<svg width="111" height="153" viewBox="0 0 111 153" fill="none" xmlns="http://www.w3.org/2000/svg">
<path d="M55.0351 99.1141L111 120.557L55.0351 142L1 120.557L55.0351 99.1141Z" fill="url(#paint0_linear)"/>
<g filter="url(#filter0_d)">
<path d="M54.4445 65.7584L89.6638 79.1007L54.4445 92.443L20.4397 79.1007L54.4445 65.7584Z" fill="url(#paint1_linear)"/>
</g>
<path d="M54.4445 58.6107L89.6638 71.953L54.4445 85.2953L20.4397 71.953L54.4445 58.6107Z" fill="url(#paint2_linear)"/>
<path d="M54.4445 51.4631L89.6638 64.8054L54.4445 78.1476L20.4397 64.8054L54.4445 51.4631Z" fill="url(#paint3_linear)"/>
<path d="M55.0351 0L111 21.443L55.0351 42.8859L1 21.443L55.0351 0Z" fill="url(#paint4_linear)"/>
<defs>
<filter id="filter0_d" x="0.439651" y="65.7584" width="109.224" height="86.6846" filterUnits="userSpaceOnUse" color-interpolation-filters="sRGB">
<feFlood flood-opacity="0" result="BackgroundImageFix"/>
<feColorMatrix in="SourceAlpha" type="matrix" values="0 0 0 0 0 0 0 0 0 0 0 0 0 0 0 0 0 0 127 0"/>
<feOffset dy="40"/>
<feGaussianBlur stdDeviation="10"/>
<feColorMatrix type="matrix" values="0 0 0 0 0 0 0 0 0 0 0 0 0 0 0 0 0 0 0.7 0"/>
<feBlend mode="normal" in2="BackgroundImageFix" result="effect1_dropShadow"/>
<feBlend mode="normal" in="SourceGraphic" in2="effect1_dropShadow" result="shape"/>
</filter>
<linearGradient id="paint0_linear" x1="56" y1="89.8546" x2="56" y2="159.057" gradientUnits="userSpaceOnUse">
<stop offset="0.252032" stop-color="#828282"/>
<stop offset="0.626016" stop-color="#C4C4C4"/>
</linearGradient>
<linearGradient id="paint1_linear" x1="55.0517" y1="66.6101" x2="55.0517" y2="96.228" gradientUnits="userSpaceOnUse">
<stop stop-color="white" stop-opacity="0"/>
<stop offset="1" stop-color="#2E2D2D"/>
</linearGradient>
<linearGradient id="paint2_linear" x1="55.0517" y1="59.4624" x2="55.0517" y2="89.0803" gradientUnits="userSpaceOnUse">
<stop stop-color="white" stop-opacity="0"/>
<stop offset="1" stop-color="#2E2D2D"/>
</linearGradient>
<linearGradient id="paint3_linear" x1="55.0517" y1="52.3147" x2="55.0517" y2="81.9327" gradientUnits="userSpaceOnUse">
<stop stop-color="white" stop-opacity="0"/>
<stop offset="1" stop-color="#2E2D2D"/>
</linearGradient>
<linearGradient id="paint4_linear" x1="56" y1="-9.25946" x2="56" y2="59.9428" gradientUnits="userSpaceOnUse">
<stop offset="0.252032" stop-color="#828282"/>
<stop offset="0.626016" stop-color="#C4C4C4"/>
</linearGradient>
</defs>
</svg>
