<svg width="85" height="87" viewBox="0 0 85 87" fill="none" xmlns="http://www.w3.org/2000/svg">
<path d="M31.7824 1.9818C32.5752 1.34246 33.5486 0.95673 34.5654 0.897063C54.2227 -0.256554 64.5164 4.514 81 21.9999L2 25.9999L31.7824 1.9818Z" fill="url(#paint0_linear)"/>
<g filter="url(#filter0_d)">
<path d="M2 26.4567C2 25.9216 2.42119 25.4813 2.95574 25.4577L81 22V24.5049C81 24.8342 81.0325 25.1626 81.0971 25.4855L82.4029 32.0145C82.4675 32.3374 82.5 32.6658 82.5 32.9951V57L81.5358 68.5703C81.512 68.8562 81.4636 69.1396 81.3912 69.4172L79.4298 76.9357C78.8769 79.0553 77.0086 80.5682 74.8203 80.6684L2 84V26.4567Z" fill="url(#paint1_linear)"/>
</g>
<g filter="url(#filter1_f)">
<path d="M2 30.5L9 31L33 29H54L62 28H69C79.5 28.5 78.5 38 75 40.7L57.5 40.5L38.5 42L32.5 41.5L24.5 42.5L14.5 41.5L10.5 43.5L2 43.7C2.4444 39.5333 2 35.3 2 30.5Z" fill="url(#paint2_linear)"/>
</g>
<g filter="url(#filter2_f)">
<path d="M2 48.5L9 49L33 47H54L62 46H69C79.5 46.5 78.5 55 75 57.7L68 59.5L36.5 60L20.5 60.5L10.5 62L5.5 61.5L2 61.7C2.4444 57.5333 2 53.3 2 48.5Z" fill="url(#paint3_linear)"/>
</g>
<g filter="url(#filter3_f)">
<path d="M1.99954 67.5L8.99954 68L32.9995 65L35.4995 66.5L38.9995 65.5L53.9995 65L61.9995 64H71.4995C79.4995 64 79.4995 76.5 75.9995 81L1.99954 84C0.5 79.5 1.99954 72.3 1.99954 67.5Z" fill="url(#paint4_linear)"/>
</g>
<defs>
<filter id="filter0_d" x="0" y="21" width="84.5" height="66" filterUnits="userSpaceOnUse" color-interpolation-filters="sRGB">
<feFlood flood-opacity="0" result="BackgroundImageFix"/>
<feColorMatrix in="SourceAlpha" type="matrix" values="0 0 0 0 0 0 0 0 0 0 0 0 0 0 0 0 0 0 127 0"/>
<feOffset dy="1"/>
<feGaussianBlur stdDeviation="1"/>
<feColorMatrix type="matrix" values="0 0 0 0 0 0 0 0 0 0 0 0 0 0 0 0 0 0 0.7 0"/>
<feBlend mode="normal" in2="BackgroundImageFix" result="effect1_dropShadow"/>
<feBlend mode="normal" in="SourceGraphic" in2="effect1_dropShadow" result="shape"/>
</filter>
<filter id="filter1_f" x="1" y="27" width="77.4244" height="17.7" filterUnits="userSpaceOnUse" color-interpolation-filters="sRGB">
<feFlood flood-opacity="0" result="BackgroundImageFix"/>
<feBlend mode="normal" in="SourceGraphic" in2="BackgroundImageFix" result="shape"/>
<feGaussianBlur stdDeviation="0.5" result="effect1_foregroundBlur"/>
</filter>
<filter id="filter2_f" x="1" y="45" width="77.4244" height="18" filterUnits="userSpaceOnUse" color-interpolation-filters="sRGB">
<feFlood flood-opacity="0" result="BackgroundImageFix"/>
<feBlend mode="normal" in="SourceGraphic" in2="BackgroundImageFix" result="shape"/>
<feGaussianBlur stdDeviation="0.5" result="effect1_foregroundBlur"/>
</filter>
<filter id="filter3_f" x="0.333008" y="63" width="78.8985" height="22" filterUnits="userSpaceOnUse" color-interpolation-filters="sRGB">
<feFlood flood-opacity="0" result="BackgroundImageFix"/>
<feBlend mode="normal" in="SourceGraphic" in2="BackgroundImageFix" result="shape"/>
<feGaussianBlur stdDeviation="0.5" result="effect1_foregroundBlur"/>
</filter>
<linearGradient id="paint0_linear" x1="20" y1="26" x2="81" y2="13" gradientUnits="userSpaceOnUse">
<stop offset="0.249217" stop-color="#C4C4C4"/>
<stop offset="1" stop-color="#E9E9E9"/>
</linearGradient>
<linearGradient id="paint1_linear" x1="42.25" y1="22" x2="42.25" y2="84" gradientUnits="userSpaceOnUse">
<stop stop-color="#A09E9E"/>
<stop offset="0.18232" stop-color="#C4C4C4"/>
<stop offset="0.469613" stop-color="#A09E9E"/>
<stop offset="0.651934" stop-color="#C4C4C4"/>
<stop offset="0.856354" stop-color="#A09E9E"/>
<stop offset="1" stop-color="#A09E9E" stop-opacity="0"/>
</linearGradient>
<linearGradient id="paint2_linear" x1="39.7122" y1="28" x2="41" y2="45" gradientUnits="userSpaceOnUse">
<stop stop-color="#4F4F4F"/>
<stop offset="0.758278" stop-color="#2E2D2D"/>
<stop offset="0.994475" stop-color="#4F4F4F"/>
</linearGradient>
<linearGradient id="paint3_linear" x1="39.7122" y1="46" x2="41.0494" y2="63.321" gradientUnits="userSpaceOnUse">
<stop stop-color="#4F4F4F"/>
<stop offset="0.758278" stop-color="#2E2D2D"/>
<stop offset="0.994475" stop-color="#4F4F4F"/>
</linearGradient>
<linearGradient id="paint4_linear" x1="39.7823" y1="64" x2="41.8255" y2="85.5869" gradientUnits="userSpaceOnUse">
<stop stop-color="#4F4F4F"/>
<stop offset="0.758278" stop-color="#2E2D2D"/>
<stop offset="0.994475" stop-color="#4F4F4F"/>
</linearGradient>
</defs>
</svg>
