<svg width="83" height="51" viewBox="0 0 83 51" fill="none" xmlns="http://www.w3.org/2000/svg">
<path d="M2 11L37 4.99998L83 5.00001L46 11L2 11Z" fill="url(#paint0_linear)"/>
<path d="M46 11.0001L83 5V44L46 51V11.0001Z" fill="url(#paint1_linear)"/>
<path d="M0 13C0 11.8954 0.895431 11 2 11H46C47.1046 11 48 11.8954 48 13V49C48 50.1046 47.1046 51 46 51H2C0.895431 51 0 50.1046 0 49V13Z" fill="#C4C4C4"/>
<path d="M18 5.99999L54 0L49.5 5.5L19 11L18 5.99999Z" fill="url(#paint2_linear)"/>
<path d="M13 5.99999L47 0H54L18.5 5.99999L13 5.99999Z" fill="url(#paint3_linear)"/>
<path d="M36 5.99999L71 0L67 5.5L37 11L36 5.99999Z" fill="url(#paint4_linear)"/>
<path d="M30.5 5.99999L65 0H71L36 5.99999L30.5 5.99999Z" fill="url(#paint5_linear)"/>
<rect y="18" width="48" height="3" fill="#828282"/>
<rect x="7" y="27" width="6" height="6" fill="#828282"/>
<rect x="21" y="27" width="6" height="6" fill="#828282"/>
<rect x="35" y="27" width="6" height="6" fill="#828282"/>
<rect x="7" y="38" width="6" height="6" fill="#828282"/>
<rect x="21" y="38" width="6" height="6" fill="#828282"/>
<rect x="35" y="38" width="6" height="6" fill="#828282"/>
<path d="M12 7C12 6.44772 12.4477 6 13 6H18C18.5523 6 19 6.44772 19 7V13H12V7Z" fill="#C4C4C4"/>
<path d="M30 7C30 6.44772 30.4477 6 31 6H36C36.5523 6 37 6.44772 37 7V13H30V7Z" fill="#C4C4C4"/>
<defs>
<linearGradient id="paint0_linear" x1="39" y1="10.6182" x2="39" y2="-7.34545" gradientUnits="userSpaceOnUse">
<stop stop-color="#4F4F4F"/>
<stop offset="0.241343" stop-color="white" stop-opacity="0"/>
</linearGradient>
<linearGradient id="paint1_linear" x1="46.5" y1="29.2545" x2="82.9992" y2="29.4206" gradientUnits="userSpaceOnUse">
<stop offset="0.0297365" stop-color="#4F4F4F"/>
<stop offset="1" stop-color="white" stop-opacity="0"/>
</linearGradient>
<linearGradient id="paint2_linear" x1="13.5" y1="10.6182" x2="80" y2="-1.00001" gradientUnits="userSpaceOnUse">
<stop offset="0.097398" stop-color="#4F4F4F"/>
<stop offset="0.38832" stop-color="white" stop-opacity="0"/>
</linearGradient>
<linearGradient id="paint3_linear" x1="19.5" y1="7" x2="22" y2="-2.5" gradientUnits="userSpaceOnUse">
<stop stop-color="#4F4F4F"/>
<stop offset="1" stop-color="white" stop-opacity="0"/>
</linearGradient>
<linearGradient id="paint4_linear" x1="31" y1="10.6182" x2="97.5" y2="-1.00001" gradientUnits="userSpaceOnUse">
<stop offset="0.097398" stop-color="#4F4F4F"/>
<stop offset="0.38832" stop-color="white" stop-opacity="0"/>
</linearGradient>
<linearGradient id="paint5_linear" x1="37" y1="7" x2="39.5" y2="-2.5" gradientUnits="userSpaceOnUse">
<stop stop-color="#4F4F4F"/>
<stop offset="1" stop-color="white" stop-opacity="0"/>
</linearGradient>
</defs>
</svg>
