<svg width="78" height="143" viewBox="0 0 78 143" fill="none" xmlns="http://www.w3.org/2000/svg">
<path d="M23.7223 8.15846C25.3681 7.34601 27.2475 7.15142 29.0605 7.43766L35.7887 8.5L42.7056 5.95174C44.3964 5.32883 46.2336 5.14232 47.9749 5.60556C74.7511 12.7288 81.5647 48.3639 52.9202 84.9625C51.9186 86.2422 50.3254 86.9311 48.7045 86.8154L37.2895 86L27.8043 86.7904C26.2223 86.9222 24.6653 86.3032 23.6588 85.0754C4.30681 61.4665 -5.11038 22.392 23.7223 8.15846Z" fill="#2E2D2D"/>
<g filter="url(#filter0_f)">
<path d="M27.1161 13.4905C29.1318 12.458 31.4785 12.3245 33.6634 12.9204L35.7888 13.5L35.8268 13.4729C38.039 11.8928 40.826 11.2309 43.4461 11.956C68.8811 18.9942 74.98 44.1897 47.2846 79.5099C46.0905 81.0328 44.0917 81.7005 42.2143 81.2312L37.2896 80L32.973 80.6166C31.2986 80.8557 29.6109 80.2365 28.5244 78.9402C9.36894 56.0853 -0.577167 27.6766 27.1161 13.4905Z" fill="#2E2D2D"/>
</g>
<path d="M31.8003 81C33.8003 80.5 36.5003 80.5 38.5003 79C38.5003 79 40.8434 86 38.5003 86C38.0005 86 38.6308 86 35.5005 86C35.0004 86 31.6469 86.6536 32.0004 86.3C33.5 84.8 31.8003 81 31.8003 81Z" fill="#4F4F4F"/>
<g filter="url(#filter1_d)">
<path d="M25.5091 7.5002C25.5091 7.5002 33.5458 5.38313 36.002 10.5002C48.002 35.5 32.6856 51.1859 31.502 65.0002C30.6017 75.5096 31.8012 81.8349 32.524 84.507C32.747 85.3315 32.3243 86.2413 31.52 86.5286C28.2188 87.7076 24.5049 86.6637 22.4474 83.8257C-0.640356 51.9801 -1.66802 19.416 25.5091 7.5002Z" fill="url(#paint0_linear)"/>
</g>
<path d="M38.7641 7.87498C38.7802 7.63329 38.8865 7.40981 39.0997 7.29485C40.287 6.65467 44.1412 5.35123 45.7891 5.30005C45.7891 5.30005 73.9924 6.4781 71.2891 45.0001C69.6626 68.1766 57.1245 81.4334 52.4973 85.5773C51.4279 86.535 50.0021 86.9371 48.5711 86.8226L38.2891 86.0001L38.7453 82.8064C38.7743 82.6034 38.7719 82.3971 38.7382 82.1948L38.396 80.1416C38.3265 79.7247 38.3909 79.2964 38.5799 78.9184L39.0083 78.0616C39.1869 77.7044 39.2042 77.2879 39.0559 76.9172L38.6435 75.8862C38.4738 75.4618 38.7863 75.0001 39.2435 75.0001C39.7239 75.0001 40.0363 74.4945 39.8215 74.0649L38.9879 72.3978C38.6971 71.8161 39.189 71.1501 39.8305 71.257C40.4558 71.3612 40.946 70.7281 40.6885 70.1488L39.8747 68.3177C39.5993 67.6981 40.0529 67.0001 40.731 67.0001H41.2891C41.8413 67.0001 42.2891 66.5524 42.2891 66.0001V65.4143C42.2891 65.1491 42.1837 64.8947 41.9962 64.7072L39.582 62.293C39.3944 62.1054 39.2891 61.8511 39.2891 61.5859V61.3875C39.2891 60.7049 39.9578 60.223 40.6053 60.4388L40.9728 60.5613C41.6204 60.7772 42.2891 60.2952 42.2891 59.6126V59.4143C42.2891 59.1491 42.1837 58.8947 41.9962 58.7072L40.582 57.293C40.3944 57.1054 40.2891 56.8511 40.2891 56.5859V55.9684C40.2891 55.5046 40.7575 55.1874 41.1881 55.3597L41.8462 55.6229C42.1758 55.7548 42.4937 55.4093 42.3349 55.0918C42.3049 55.0317 42.2597 54.9805 42.2038 54.9432L41.2317 54.2951C40.9551 54.1108 40.7891 53.8005 40.7891 53.4681V53.3464C40.7891 52.7015 41.4403 52.2606 42.0391 52.5001L42.303 52.6057C42.7753 52.7946 43.2891 52.4468 43.2891 51.9381V51.7501C43.2891 51.0597 42.7294 50.5001 42.0391 50.5001C41.3487 50.5001 40.7891 49.9404 40.7891 49.2501V49.0472C40.7891 48.4219 41.1892 47.8667 41.7825 47.6689L42.9924 47.2656C43.4324 47.119 43.6702 46.6434 43.5235 46.2034C43.3896 45.8016 42.9774 45.5624 42.5621 45.6455L41.8444 45.789C41.2536 45.9072 40.6742 45.5405 40.528 44.9559C40.3911 44.4083 40.6798 43.8438 41.2039 43.6342L42.0484 43.2963C42.4643 43.13 42.6785 42.6683 42.5368 42.2433C42.397 41.8239 41.9579 41.5829 41.529 41.6901L41.0491 41.8101C40.6202 41.9173 40.1811 41.6762 40.0413 41.2568C39.8997 40.8319 40.1138 40.3702 40.5297 40.2038L41.7268 39.725C42.0664 39.5891 42.2891 39.2603 42.2891 38.8945C42.2891 38.4005 41.8886 38.0001 41.3946 38.0001H40.9816C40.323 38.0001 39.7891 37.4661 39.7891 36.8075C39.7891 36.3198 40.086 35.8813 40.5387 35.7002L41.9506 35.1354C42.155 35.0537 42.2891 34.8557 42.2891 34.6356C42.2891 34.3029 41.9903 34.0499 41.6622 34.1046L40.5771 34.2854C39.8591 34.4051 39.1757 33.9334 39.033 33.2196C38.8952 32.5307 39.3094 31.8514 39.9849 31.6584L41.8305 31.1311C42.1019 31.0535 42.2891 30.8054 42.2891 30.5231C42.2891 30.0531 41.7944 29.7474 41.374 29.9576L40.9951 30.1471C40.5917 30.3487 40.1014 30.2185 39.8512 29.8433L39.7985 29.7643C39.5103 29.3319 39.6005 28.7509 40.0062 28.4263L41.2587 27.4243C41.5774 27.1694 41.7033 26.7429 41.5743 26.3558C41.4133 25.8729 40.9078 25.5954 40.414 25.7188L40.3275 25.7405C39.754 25.8838 39.1728 25.5352 39.0295 24.9617L39.0116 24.8903C38.8816 24.3702 39.1303 23.8295 39.6098 23.5897L40.2535 23.2678C40.5493 23.12 40.6692 22.7603 40.5213 22.4645C40.388 22.198 40.0791 22.0701 39.7964 22.1643L39.5924 22.2323C39.1487 22.3802 38.6692 22.1404 38.5213 21.6968L38.5056 21.6496C38.3777 21.2661 38.5224 20.8445 38.8588 20.6203L39.6038 20.1236C39.7195 20.0464 39.7891 19.9165 39.7891 19.7774C39.7891 19.4451 39.4187 19.247 39.1423 19.4313L39.0391 19.5001C38.7185 19.7138 38.2891 19.484 38.2891 19.0987V19.0001L39.1835 17.2112C39.2529 17.0724 39.2891 16.9193 39.2891 16.764V15.8548C39.2891 15.6374 39.1662 15.4387 38.9718 15.3414C38.5582 15.1346 38.3091 14.6998 38.3398 14.2384L38.7641 7.87498Z" fill="url(#paint1_linear)"/>
<path d="M16.9998 101C24.6497 97.1479 28.9567 89.6083 37.5 88.9998C47.4179 88.2933 53.4997 91.0002 65.9998 101.5C73.1214 107.482 75.7202 107.406 76.9998 113.5C77.8699 117.644 72.7165 119.489 71.3344 119.906C71.1111 119.973 70.8816 120.012 70.6496 120.035C46.272 122.489 26.5036 121.997 5.94174 118.177C5.32002 118.062 4.71658 117.833 4.27193 117.383C3.27531 116.376 1.74525 114.118 2.99996 110.5C5.262 103.977 10.8338 104.105 16.9998 101Z" fill="url(#paint2_linear)"/>
<path d="M31.4558 12.4704C33.458 12.4706 33.9576 16.4705 35.1905 18.1669L34.958 18.4706C31.0891 15.286 29.7411 13.6733 30.4576 12.9705L31.4558 12.4704Z" fill="#4F4F4F"/>
<g filter="url(#filter2_d)">
<path d="M31.7978 12.7003C33.4434 12.8447 34.1423 16.5011 35.2779 18.1253L35.1086 18.3834C31.6993 15.2223 30.4752 13.6655 31.0135 13.081L31.7978 12.7003Z" fill="url(#paint3_linear)"/>
</g>
<path d="M29.4969 17.0862C31.3908 16.4368 33.1613 20.0582 34.8778 21.2627L34.7565 21.6255C30.0636 19.8684 28.2653 18.7804 28.715 17.8831L29.4969 17.0862Z" fill="#4F4F4F"/>
<g filter="url(#filter3_d)">
<path d="M29.5761 16.9953C31.3039 16.5365 33.2245 19.9856 34.92 21.2143L34.8325 21.5382C30.3081 19.5878 28.5444 18.46 28.901 17.6697L29.5761 16.9953Z" fill="url(#paint4_linear)"/>
</g>
<g filter="url(#filter4_d)">
<path d="M28.9007 22.4966C30.6188 21.4686 33.1017 24.6442 35.0307 25.4666L34.9872 25.8466C30.032 25.1009 28.0472 24.4094 28.3011 23.4384L28.9007 22.4966Z" fill="url(#paint5_linear)"/>
</g>
<g filter="url(#filter5_d)">
<path d="M28.7762 27.6823C30.4243 26.5455 33.1071 29.5541 35.0851 30.2504L34.9999 31.0001C30.0069 30.5758 28.3091 28.9853 28.4999 27.9999L28.7762 27.6823Z" fill="url(#paint6_linear)"/>
</g>
<g filter="url(#filter6_d)">
<path d="M28.7554 32.8418C30.5222 32.715 32.6995 34.2479 34.4977 34.7363L34.0078 35.9839C29.4971 36.0431 28.1171 33.7741 28.2683 32.8011L28.7554 32.8418Z" fill="url(#paint7_linear)"/>
</g>
<g filter="url(#filter7_d)">
<path d="M27.7103 37.9962C29.0645 36.7498 32.2805 38.9341 34.1065 39.3269L33.932 40.6901C30.8085 40.268 29.0226 40.291 27.7103 37.9962Z" fill="url(#paint8_linear)"/>
</g>
<g filter="url(#filter8_d)">
<path d="M26.9972 43.4349C28.1898 42.0745 31.714 43.8232 33.6011 43.9958L33.6091 45.3352C30.4148 45.2817 28.6239 45.507 26.9972 43.4349Z" fill="url(#paint9_linear)"/>
</g>
<g filter="url(#filter9_d)">
<path d="M26.9404 48.3145C27.7976 47.0894 31.0412 48.2813 32.6069 48.2531L32.7342 49.3527C30.1052 49.5965 27.1034 49.8056 26.9404 48.3145Z" fill="url(#paint10_linear)"/>
</g>
<g filter="url(#filter10_d)">
<path d="M25.1317 53.0822C25.9565 51.7608 29.8453 52.5448 31.6431 52.3242L31.9344 53.4C28.9418 53.9654 25.5158 54.5422 25.1317 53.0822Z" fill="url(#paint11_linear)"/>
</g>
<g filter="url(#filter11_d)">
<path d="M23.9681 57.4016C24.7099 56.0176 28.7473 56.4859 30.5688 56.121L30.9495 57.1702C27.9326 57.9751 24.4732 58.8264 23.9681 57.4016Z" fill="url(#paint12_linear)"/>
</g>
<g filter="url(#filter12_d)">
<path d="M24.0862 61.4538C24.8146 60.0712 28.7921 60.5461 30.5856 60.1843L30.9623 61.2339C27.9921 62.0337 24.5862 62.8791 24.0862 61.4538Z" fill="url(#paint13_linear)"/>
</g>
<g filter="url(#filter13_d)">
<path d="M23.6643 65.5001C24.4466 64.1117 28.6644 64.5602 30.5702 64.1861L30.963 65.2339C27.8055 66.0543 24.1853 66.9232 23.6643 65.5001Z" fill="url(#paint14_linear)"/>
</g>
<g filter="url(#filter14_d)">
<path d="M24.0774 69.5001C24.8597 68.1117 29.0775 68.5602 30.9833 68.1861L31.3761 69.2339C28.2186 70.0543 24.5984 70.9232 24.0774 69.5001Z" fill="url(#paint15_linear)"/>
</g>
<g filter="url(#filter15_d)">
<path d="M24.0774 72.5001C24.8597 71.1117 29.0775 71.5602 30.9833 71.1861L31.3761 72.2339C28.2186 73.0543 24.5984 73.9232 24.0774 72.5001Z" fill="url(#paint16_linear)"/>
</g>
<g filter="url(#filter16_d)">
<path d="M24.0774 76.5001C24.8597 75.1117 29.0775 75.5602 30.9833 75.1861L31.3761 76.2339C28.2186 77.0543 24.5984 77.9232 24.0774 76.5001Z" fill="url(#paint17_linear)"/>
</g>
<g filter="url(#filter17_f)">
<path d="M9.5 37V34.4532C9.5 33.0114 10.4812 31.7547 11.8799 31.405C12.8929 31.1518 13.7139 30.4119 14.0707 29.4306L15.0448 26.7518C15.3324 25.961 15.9654 25.3449 16.7637 25.0788C17.8158 24.7281 18.5553 23.7809 18.6404 22.6751L18.8335 20.1646C18.9397 18.7838 19.6139 17.5089 20.6953 16.6438L24 14L27.3146 10.6854C28.3676 9.63245 29.877 9.17541 31.3372 9.46744C32.9724 9.79448 34.2879 11.0076 34.746 12.611L35 13.5L34.7516 13.2516C33.378 11.878 31.3331 11.4243 29.5074 12.0882L28.5537 12.435C27.5722 12.7919 26.8075 13.5776 26.4772 14.5684C26.1732 15.4804 25.4995 16.2224 24.621 16.6129L23.8647 16.949C22.3817 17.6081 21.3108 18.9461 20.9925 20.5375L20.5 23L20.3146 24.2978C20.1192 25.6654 19.225 26.8321 17.9553 27.3763C17.0211 27.7767 16.2767 28.5211 15.8763 29.4553L15.7933 29.6489C15.2887 30.8263 14.3047 31.7318 13.0894 32.1369L12.9752 32.1749C11.4336 32.6888 10.2613 33.9547 9.86721 35.5312L9.5 37Z" fill="url(#paint18_linear)"/>
</g>
<g filter="url(#filter18_f)">
<path d="M67 36V33.2984C67 31.9433 66.0883 30.7578 64.7786 30.4099C63.8142 30.1538 63.0413 29.4333 62.7182 28.4892L62.1778 26.9101C61.6693 25.4243 60.3901 24.3347 58.8423 24.0689C56.8964 23.7347 55.4293 22.1166 55.2867 20.1474L55.2102 19.0909C55.1134 17.7534 54.4833 16.5108 53.4615 15.6423L50.3529 13L47.2262 9.67783C46.2457 8.63608 44.7926 8.18156 43.3933 8.47892C41.8884 8.79872 40.6897 9.93513 40.2902 11.4209L40 12.5L40.1369 12.3545C41.4768 10.9309 43.5454 10.4607 45.369 11.1653L45.993 11.4064C46.9638 11.7815 47.7109 12.5785 48.0225 13.5716C48.3081 14.4821 48.9614 15.2318 49.8243 15.6392L50.4269 15.9238C51.8584 16.5998 52.8792 17.921 53.1721 19.4768L53.6471 22L53.6603 22.0982C53.9358 24.1478 55.4448 25.8163 57.4565 26.2957L58.4516 26.5328C59.6812 26.8259 60.6927 27.6965 61.1656 28.8688C61.5839 29.906 62.4273 30.7138 63.4815 31.0872L63.7392 31.1785C65.1849 31.6905 66.2712 32.9025 66.6225 34.3954L67 36Z" fill="url(#paint19_linear)"/>
</g>
<g filter="url(#filter19_f)">
<path d="M72 113C72 113 66.049 113.682 61.5 113C59.8849 112.758 56.7766 110.823 55.8013 110.196C55.5995 110.066 55.4132 109.921 55.2302 109.766C54.2356 108.922 50.6907 106.071 47.7774 105.68C45.9251 105.432 44.8655 106.149 43.0026 106C41.7361 105.899 40.0693 105.443 39.0225 105.123C38.3612 104.922 37.6699 104.83 36.9806 104.884L31.8685 105.285L25.8372 105.087C25.2868 105.068 24.7372 105.141 24.2105 105.302L19.7568 106.664C18.854 106.941 18.0478 107.467 17.4315 108.182L15.0025 111L19.1633 108.379C19.7681 107.998 20.4476 107.751 21.1559 107.654L27.8467 106.746C28.7019 106.63 29.572 106.783 30.3358 107.185V107.185C31.3612 107.724 32.5653 107.81 33.6568 107.422L34.5924 107.089C35.7305 106.685 36.9721 106.722 38.1289 107.07C38.7468 107.255 39.4286 107.429 40.0026 107.5C41.1654 107.643 41.8317 107.459 43.0026 107.5C45.3064 107.581 46.6595 107.474 48.8732 108.117C50.8617 108.694 53.4722 110.33 54.2636 110.844C54.423 110.947 54.5833 111.043 54.7529 111.129C55.8141 111.666 59.9585 113.716 62 114C66.4647 114.62 72 113 72 113Z" fill="url(#paint20_linear)"/>
</g>
<defs>
<filter id="filter0_f" x="0" y="1.66272" width="75.4621" height="89.7164" filterUnits="userSpaceOnUse" color-interpolation-filters="sRGB">
<feFlood flood-opacity="0" result="BackgroundImageFix"/>
<feBlend mode="normal" in="SourceGraphic" in2="BackgroundImageFix" result="shape"/>
<feGaussianBlur stdDeviation="5" result="effect1_foregroundBlur"/>
</filter>
<filter id="filter1_d" x="0.121094" y="0.0661621" width="51.446" height="95.9397" filterUnits="userSpaceOnUse" color-interpolation-filters="sRGB">
<feFlood flood-opacity="0" result="BackgroundImageFix"/>
<feColorMatrix in="SourceAlpha" type="matrix" values="0 0 0 0 0 0 0 0 0 0 0 0 0 0 0 0 0 0 127 0"/>
<feOffset dx="3" dy="1"/>
<feGaussianBlur stdDeviation="4"/>
<feColorMatrix type="matrix" values="0 0 0 0 0 0 0 0 0 0 0 0 0 0 0 0 0 0 0.5 0"/>
<feBlend mode="normal" in2="BackgroundImageFix" result="effect1_dropShadow"/>
<feBlend mode="normal" in="SourceGraphic" in2="effect1_dropShadow" result="shape"/>
</filter>
<filter id="filter2_d" x="29.6562" y="11.3237" width="6.9886" height="8.71353" filterUnits="userSpaceOnUse" color-interpolation-filters="sRGB">
<feFlood flood-opacity="0" result="BackgroundImageFix"/>
<feColorMatrix in="SourceAlpha" type="matrix" values="0 0 0 0 0 0 0 0 0 0 0 0 0 0 0 0 0 0 127 0"/>
<feOffset/>
<feGaussianBlur stdDeviation="0.5"/>
<feColorMatrix type="matrix" values="0 0 0 0 0.768627 0 0 0 0 0.768627 0 0 0 0 0.768627 0 0 0 1 0"/>
<feBlend mode="normal" in2="BackgroundImageFix" result="effect1_dropShadow"/>
<feBlend mode="normal" in="SourceGraphic" in2="effect1_dropShadow" result="shape"/>
</filter>
<filter id="filter3_d" x="27.6045" y="15.4197" width="8.67334" height="8.19769" filterUnits="userSpaceOnUse" color-interpolation-filters="sRGB">
<feFlood flood-opacity="0" result="BackgroundImageFix"/>
<feColorMatrix in="SourceAlpha" type="matrix" values="0 0 0 0 0 0 0 0 0 0 0 0 0 0 0 0 0 0 127 0"/>
<feOffset/>
<feGaussianBlur stdDeviation="0.5"/>
<feColorMatrix type="matrix" values="0 0 0 0 0.768627 0 0 0 0 0.768627 0 0 0 0 0.768627 0 0 0 1 0"/>
<feBlend mode="normal" in2="BackgroundImageFix" result="effect1_dropShadow"/>
<feBlend mode="normal" in="SourceGraphic" in2="effect1_dropShadow" result="shape"/>
</filter>
<filter id="filter4_d" x="27.0439" y="20.7423" width="9.32909" height="7.56864" filterUnits="userSpaceOnUse" color-interpolation-filters="sRGB">
<feFlood flood-opacity="0" result="BackgroundImageFix"/>
<feColorMatrix in="SourceAlpha" type="matrix" values="0 0 0 0 0 0 0 0 0 0 0 0 0 0 0 0 0 0 127 0"/>
<feOffset/>
<feGaussianBlur stdDeviation="0.5"/>
<feColorMatrix type="matrix" values="0 0 0 0 0.768627 0 0 0 0 0.768627 0 0 0 0 0.768627 0 0 0 1 0"/>
<feBlend mode="normal" in2="BackgroundImageFix" result="effect1_dropShadow"/>
<feBlend mode="normal" in="SourceGraphic" in2="effect1_dropShadow" result="shape"/>
</filter>
<filter id="filter5_d" x="27.0718" y="25.887" width="9.42325" height="7.0851" filterUnits="userSpaceOnUse" color-interpolation-filters="sRGB">
<feFlood flood-opacity="0" result="BackgroundImageFix"/>
<feColorMatrix in="SourceAlpha" type="matrix" values="0 0 0 0 0 0 0 0 0 0 0 0 0 0 0 0 0 0 127 0"/>
<feOffset/>
<feGaussianBlur stdDeviation="0.5"/>
<feColorMatrix type="matrix" values="0 0 0 0 0.768627 0 0 0 0 0.768627 0 0 0 0 0.768627 0 0 0 1 0"/>
<feBlend mode="normal" in2="BackgroundImageFix" result="effect1_dropShadow"/>
<feBlend mode="normal" in="SourceGraphic" in2="effect1_dropShadow" result="shape"/>
</filter>
<filter id="filter6_d" x="26.6763" y="31.2896" width="8.8407" height="6.41238" filterUnits="userSpaceOnUse" color-interpolation-filters="sRGB">
<feFlood flood-opacity="0" result="BackgroundImageFix"/>
<feColorMatrix in="SourceAlpha" type="matrix" values="0 0 0 0 0 0 0 0 0 0 0 0 0 0 0 0 0 0 127 0"/>
<feOffset/>
<feGaussianBlur stdDeviation="0.5"/>
<feColorMatrix type="matrix" values="0 0 0 0 0.768627 0 0 0 0 0.768627 0 0 0 0 0.768627 0 0 0 1 0"/>
<feBlend mode="normal" in2="BackgroundImageFix" result="effect1_dropShadow"/>
<feBlend mode="normal" in="SourceGraphic" in2="effect1_dropShadow" result="shape"/>
</filter>
<filter id="filter7_d" x="26.3389" y="36.1315" width="9.06776" height="6.11363" filterUnits="userSpaceOnUse" color-interpolation-filters="sRGB">
<feFlood flood-opacity="0" result="BackgroundImageFix"/>
<feColorMatrix in="SourceAlpha" type="matrix" values="0 0 0 0 0 0 0 0 0 0 0 0 0 0 0 0 0 0 127 0"/>
<feOffset/>
<feGaussianBlur stdDeviation="0.5"/>
<feColorMatrix type="matrix" values="0 0 0 0 0.768627 0 0 0 0 0.768627 0 0 0 0 0.768627 0 0 0 1 0"/>
<feBlend mode="normal" in2="BackgroundImageFix" result="effect1_dropShadow"/>
<feBlend mode="normal" in="SourceGraphic" in2="effect1_dropShadow" result="shape"/>
</filter>
<filter id="filter8_d" x="25.7739" y="41.5652" width="9.11988" height="5.32819" filterUnits="userSpaceOnUse" color-interpolation-filters="sRGB">
<feFlood flood-opacity="0" result="BackgroundImageFix"/>
<feColorMatrix in="SourceAlpha" type="matrix" values="0 0 0 0 0 0 0 0 0 0 0 0 0 0 0 0 0 0 127 0"/>
<feOffset/>
<feGaussianBlur stdDeviation="0.5"/>
<feColorMatrix type="matrix" values="0 0 0 0 0.768627 0 0 0 0 0.768627 0 0 0 0 0.768627 0 0 0 1 0"/>
<feBlend mode="normal" in2="BackgroundImageFix" result="effect1_dropShadow"/>
<feBlend mode="normal" in="SourceGraphic" in2="effect1_dropShadow" result="shape"/>
</filter>
<filter id="filter9_d" x="25.854" y="46.6075" width="7.98772" height="4.20615" filterUnits="userSpaceOnUse" color-interpolation-filters="sRGB">
<feFlood flood-opacity="0" result="BackgroundImageFix"/>
<feColorMatrix in="SourceAlpha" type="matrix" values="0 0 0 0 0 0 0 0 0 0 0 0 0 0 0 0 0 0 127 0"/>
<feOffset/>
<feGaussianBlur stdDeviation="0.5"/>
<feColorMatrix type="matrix" values="0 0 0 0 0.768627 0 0 0 0 0.768627 0 0 0 0 0.768627 0 0 0 1 0"/>
<feBlend mode="normal" in2="BackgroundImageFix" result="effect1_dropShadow"/>
<feBlend mode="normal" in="SourceGraphic" in2="effect1_dropShadow" result="shape"/>
</filter>
<filter id="filter10_d" x="24.1094" y="51.1593" width="8.83955" height="3.9168" filterUnits="userSpaceOnUse" color-interpolation-filters="sRGB">
<feFlood flood-opacity="0" result="BackgroundImageFix"/>
<feColorMatrix in="SourceAlpha" type="matrix" values="0 0 0 0 0 0 0 0 0 0 0 0 0 0 0 0 0 0 127 0"/>
<feOffset/>
<feGaussianBlur stdDeviation="0.5"/>
<feColorMatrix type="matrix" values="0 0 0 0 0.768627 0 0 0 0 0.768627 0 0 0 0 0.768627 0 0 0 1 0"/>
<feBlend mode="normal" in2="BackgroundImageFix" result="effect1_dropShadow"/>
<feBlend mode="normal" in="SourceGraphic" in2="effect1_dropShadow" result="shape"/>
</filter>
<filter id="filter11_d" x="22.8906" y="54.9363" width="9.10936" height="4.45384" filterUnits="userSpaceOnUse" color-interpolation-filters="sRGB">
<feFlood flood-opacity="0" result="BackgroundImageFix"/>
<feColorMatrix in="SourceAlpha" type="matrix" values="0 0 0 0 0 0 0 0 0 0 0 0 0 0 0 0 0 0 127 0"/>
<feOffset/>
<feGaussianBlur stdDeviation="0.5"/>
<feColorMatrix type="matrix" values="0 0 0 0 0.768627 0 0 0 0 0.768627 0 0 0 0 0.768627 0 0 0 1 0"/>
<feBlend mode="normal" in2="BackgroundImageFix" result="effect1_dropShadow"/>
<feBlend mode="normal" in="SourceGraphic" in2="effect1_dropShadow" result="shape"/>
</filter>
<filter id="filter12_d" x="23.0088" y="59" width="9.00405" height="4.44228" filterUnits="userSpaceOnUse" color-interpolation-filters="sRGB">
<feFlood flood-opacity="0" result="BackgroundImageFix"/>
<feColorMatrix in="SourceAlpha" type="matrix" values="0 0 0 0 0 0 0 0 0 0 0 0 0 0 0 0 0 0 127 0"/>
<feOffset/>
<feGaussianBlur stdDeviation="0.5"/>
<feColorMatrix type="matrix" values="0 0 0 0 0.768627 0 0 0 0 0.768627 0 0 0 0 0.768627 0 0 0 1 0"/>
<feBlend mode="normal" in2="BackgroundImageFix" result="effect1_dropShadow"/>
<feBlend mode="normal" in="SourceGraphic" in2="effect1_dropShadow" result="shape"/>
</filter>
<filter id="filter13_d" x="22.5869" y="63" width="9.42655" height="4.48866" filterUnits="userSpaceOnUse" color-interpolation-filters="sRGB">
<feFlood flood-opacity="0" result="BackgroundImageFix"/>
<feColorMatrix in="SourceAlpha" type="matrix" values="0 0 0 0 0 0 0 0 0 0 0 0 0 0 0 0 0 0 127 0"/>
<feOffset/>
<feGaussianBlur stdDeviation="0.5"/>
<feColorMatrix type="matrix" values="0 0 0 0 0.768627 0 0 0 0 0.768627 0 0 0 0 0.768627 0 0 0 1 0"/>
<feBlend mode="normal" in2="BackgroundImageFix" result="effect1_dropShadow"/>
<feBlend mode="normal" in="SourceGraphic" in2="effect1_dropShadow" result="shape"/>
</filter>
<filter id="filter14_d" x="23" y="67" width="9.42655" height="4.48866" filterUnits="userSpaceOnUse" color-interpolation-filters="sRGB">
<feFlood flood-opacity="0" result="BackgroundImageFix"/>
<feColorMatrix in="SourceAlpha" type="matrix" values="0 0 0 0 0 0 0 0 0 0 0 0 0 0 0 0 0 0 127 0"/>
<feOffset/>
<feGaussianBlur stdDeviation="0.5"/>
<feColorMatrix type="matrix" values="0 0 0 0 0.768627 0 0 0 0 0.768627 0 0 0 0 0.768627 0 0 0 1 0"/>
<feBlend mode="normal" in2="BackgroundImageFix" result="effect1_dropShadow"/>
<feBlend mode="normal" in="SourceGraphic" in2="effect1_dropShadow" result="shape"/>
</filter>
<filter id="filter15_d" x="23" y="70" width="9.42655" height="4.48866" filterUnits="userSpaceOnUse" color-interpolation-filters="sRGB">
<feFlood flood-opacity="0" result="BackgroundImageFix"/>
<feColorMatrix in="SourceAlpha" type="matrix" values="0 0 0 0 0 0 0 0 0 0 0 0 0 0 0 0 0 0 127 0"/>
<feOffset/>
<feGaussianBlur stdDeviation="0.5"/>
<feColorMatrix type="matrix" values="0 0 0 0 0.768627 0 0 0 0 0.768627 0 0 0 0 0.768627 0 0 0 1 0"/>
<feBlend mode="normal" in2="BackgroundImageFix" result="effect1_dropShadow"/>
<feBlend mode="normal" in="SourceGraphic" in2="effect1_dropShadow" result="shape"/>
</filter>
<filter id="filter16_d" x="23" y="74" width="9.42655" height="4.48866" filterUnits="userSpaceOnUse" color-interpolation-filters="sRGB">
<feFlood flood-opacity="0" result="BackgroundImageFix"/>
<feColorMatrix in="SourceAlpha" type="matrix" values="0 0 0 0 0 0 0 0 0 0 0 0 0 0 0 0 0 0 127 0"/>
<feOffset/>
<feGaussianBlur stdDeviation="0.5"/>
<feColorMatrix type="matrix" values="0 0 0 0 0.768627 0 0 0 0 0.768627 0 0 0 0 0.768627 0 0 0 1 0"/>
<feBlend mode="normal" in2="BackgroundImageFix" result="effect1_dropShadow"/>
<feBlend mode="normal" in="SourceGraphic" in2="effect1_dropShadow" result="shape"/>
</filter>
<filter id="filter17_f" x="6.5" y="6.38086" width="31.5" height="33.6191" filterUnits="userSpaceOnUse" color-interpolation-filters="sRGB">
<feFlood flood-opacity="0" result="BackgroundImageFix"/>
<feBlend mode="normal" in="SourceGraphic" in2="BackgroundImageFix" result="shape"/>
<feGaussianBlur stdDeviation="1.5" result="effect1_foregroundBlur"/>
</filter>
<filter id="filter18_f" x="37" y="5.3894" width="33" height="33.6106" filterUnits="userSpaceOnUse" color-interpolation-filters="sRGB">
<feFlood flood-opacity="0" result="BackgroundImageFix"/>
<feBlend mode="normal" in="SourceGraphic" in2="BackgroundImageFix" result="shape"/>
<feGaussianBlur stdDeviation="1.5" result="effect1_foregroundBlur"/>
</filter>
<filter id="filter19_f" x="12.791" y="81.2839" width="61.2089" height="61.2197" filterUnits="userSpaceOnUse" color-interpolation-filters="sRGB">
<feFlood flood-opacity="0" result="BackgroundImageFix"/>
<feBlend mode="normal" in="SourceGraphic" in2="BackgroundImageFix" result="shape"/>
<feGaussianBlur stdDeviation="1" result="effect1_foregroundBlur"/>
</filter>
<linearGradient id="paint0_linear" x1="4.44733" y1="36.8544" x2="38.6789" y2="37.2607" gradientUnits="userSpaceOnUse">
<stop stop-color="#C4C4C4"/>
<stop offset="1" stop-color="#C4C4C4" stop-opacity="0"/>
</linearGradient>
<linearGradient id="paint1_linear" x1="37.6583" y1="35.1856" x2="69.7045" y2="35.5406" gradientUnits="userSpaceOnUse">
<stop stop-color="#C4C4C4"/>
<stop offset="1" stop-color="#C4C4C4" stop-opacity="0"/>
</linearGradient>
<linearGradient id="paint2_linear" x1="78.0086" y1="88.868" x2="76.7884" y2="122.81" gradientUnits="userSpaceOnUse">
<stop stop-color="#4F4F4F"/>
<stop offset="0.0415782" stop-color="#C4C4C4"/>
<stop offset="0.883213" stop-color="#4F4F4F"/>
</linearGradient>
<linearGradient id="paint3_linear" x1="31.5" y1="16" x2="35.4492" y2="14.3763" gradientUnits="userSpaceOnUse">
<stop offset="0.122968" stop-color="#C4C4C4"/>
<stop offset="0.401322" stop-color="#4F4F4F" stop-opacity="0"/>
</linearGradient>
<linearGradient id="paint4_linear" x1="30.3614" y1="20.4494" x2="33.8861" y2="17.3845" gradientUnits="userSpaceOnUse">
<stop offset="0.122968" stop-color="#C4C4C4"/>
<stop offset="0.401322" stop-color="#4F4F4F" stop-opacity="0"/>
</linearGradient>
<linearGradient id="paint5_linear" x1="30.2117" y1="26.0244" x2="33.5933" y2="21.7512" gradientUnits="userSpaceOnUse">
<stop offset="0.122968" stop-color="#C4C4C4"/>
<stop offset="0.401322" stop-color="#4F4F4F" stop-opacity="0"/>
</linearGradient>
<linearGradient id="paint6_linear" x1="30.46" y1="30.8375" x2="33.1915" y2="26.7269" gradientUnits="userSpaceOnUse">
<stop offset="0.122968" stop-color="#C4C4C4"/>
<stop offset="0.401322" stop-color="#4F4F4F" stop-opacity="0"/>
</linearGradient>
<linearGradient id="paint7_linear" x1="29.9396" y1="35.9335" x2="32.3423" y2="31.8581" gradientUnits="userSpaceOnUse">
<stop offset="0.122968" stop-color="#C4C4C4"/>
<stop offset="0.401322" stop-color="#4F4F4F" stop-opacity="0"/>
</linearGradient>
<linearGradient id="paint8_linear" x1="29.7994" y1="40.6461" x2="31.8648" y2="36.5122" gradientUnits="userSpaceOnUse">
<stop offset="0.122968" stop-color="#828282"/>
<stop offset="0.401322" stop-color="#4F4F4F" stop-opacity="0"/>
</linearGradient>
<linearGradient id="paint9_linear" x1="29.452" y1="45.7624" x2="30.9203" y2="41.5086" gradientUnits="userSpaceOnUse">
<stop offset="0.122968" stop-color="#828282"/>
<stop offset="0.401322" stop-color="#4F4F4F" stop-opacity="0"/>
</linearGradient>
<linearGradient id="paint10_linear" x1="29.2435" y1="50.0687" x2="30.0697" y2="46.3844" gradientUnits="userSpaceOnUse">
<stop offset="0.122968" stop-color="#828282"/>
<stop offset="0.401322" stop-color="#4F4F4F" stop-opacity="0"/>
</linearGradient>
<linearGradient id="paint11_linear" x1="28.0126" y1="54.5401" x2="28.3308" y2="50.7691" gradientUnits="userSpaceOnUse">
<stop offset="0.122968" stop-color="#828282"/>
<stop offset="0.401322" stop-color="#4F4F4F" stop-opacity="0"/>
</linearGradient>
<linearGradient id="paint12_linear" x1="27.0266" y1="58.623" x2="27.0395" y2="54.8375" gradientUnits="userSpaceOnUse">
<stop offset="0.122968" stop-color="#828282"/>
<stop offset="0.401322" stop-color="#4F4F4F" stop-opacity="0"/>
</linearGradient>
<linearGradient id="paint13_linear" x1="27.1008" y1="62.68" x2="27.1202" y2="58.8952" gradientUnits="userSpaceOnUse">
<stop offset="0.122968" stop-color="#828282"/>
<stop offset="0.401322" stop-color="#4F4F4F" stop-opacity="0"/>
</linearGradient>
<linearGradient id="paint14_linear" x1="26.8552" y1="66.707" x2="26.8496" y2="62.9194" gradientUnits="userSpaceOnUse">
<stop offset="0.122968" stop-color="#828282"/>
<stop offset="0.401322" stop-color="#4F4F4F" stop-opacity="0"/>
</linearGradient>
<linearGradient id="paint15_linear" x1="27.2683" y1="70.707" x2="27.2627" y2="66.9194" gradientUnits="userSpaceOnUse">
<stop offset="0.122968" stop-color="#828282"/>
<stop offset="0.401322" stop-color="#4F4F4F" stop-opacity="0"/>
</linearGradient>
<linearGradient id="paint16_linear" x1="27.2683" y1="73.707" x2="27.2627" y2="69.9194" gradientUnits="userSpaceOnUse">
<stop offset="0.122968" stop-color="#828282"/>
<stop offset="0.401322" stop-color="#4F4F4F" stop-opacity="0"/>
</linearGradient>
<linearGradient id="paint17_linear" x1="27.2683" y1="77.707" x2="27.2627" y2="73.9194" gradientUnits="userSpaceOnUse">
<stop offset="0.122968" stop-color="#828282"/>
<stop offset="0.401322" stop-color="#4F4F4F" stop-opacity="0"/>
</linearGradient>
<linearGradient id="paint18_linear" x1="22.25" y1="9" x2="22.25" y2="37" gradientUnits="userSpaceOnUse">
<stop stop-color="white"/>
<stop offset="1" stop-color="white" stop-opacity="0"/>
</linearGradient>
<linearGradient id="paint19_linear" x1="53.5" y1="8" x2="53.5" y2="36" gradientUnits="userSpaceOnUse">
<stop stop-color="white"/>
<stop offset="1" stop-color="white" stop-opacity="0"/>
</linearGradient>
<linearGradient id="paint20_linear" x1="31.5712" y1="99.5209" x2="90" y2="112" gradientUnits="userSpaceOnUse">
<stop stop-color="white"/>
<stop offset="1" stop-color="white" stop-opacity="0"/>
</linearGradient>
</defs>
</svg>
