<svg width="118" height="56" viewBox="0 0 118 56" fill="none" xmlns="http://www.w3.org/2000/svg">
<g filter="url(#filter0_f)">
<path d="M43.5 48.2309L6 51.8856C25.2 54.8094 82.6667 53.1039 109 51.8856L93 47.5C91.6667 47.5 88.7 47.7924 87.5 48.9619C83.1 51.3009 64 49.4492 55 48.2309H43.5Z" fill="#09090A"/>
</g>
<circle cx="98" cy="43" r="7" fill="#1E1D1D"/>
<path d="M14.5 37.15L18.5 37C16 38.5 11.4687 44.7916 11.5 48.65L6.00004 49.6502C5.50024 45.5 10 39.15 14.5 37.15Z" fill="#2C2C2C"/>
<path d="M56 43C56 46.866 52.866 49.8 49 49.8C45.134 49.8 42 46.866 42 43C42 39.134 45.134 36 49 36C52.866 36 56 39.134 56 43Z" fill="#1E1D1D"/>
<g filter="url(#filter1_f)">
<path d="M27 43L45 42L42.1421 45.1177C41.6228 45.6842 40.906 46.0298 40.1394 46.0833L27 47V43Z" fill="#2C2C2C"/>
</g>
<path d="M29 45C29 48.866 25.866 51 22 51C18.134 51 15 48.866 15 45C15 41.134 18.134 38 22 38C25.866 38 29 41.134 29 45Z" fill="#1E1D1D"/>
<g filter="url(#filter2_f)">
<path d="M57 42H108L105.251 44.9992C104.668 45.6353 103.839 45.9896 102.976 45.9713L57 45V42Z" fill="#2C2C2C"/>
</g>
<path d="M27 45C27 48.866 23.866 51 20 51C16.134 51 13 48.866 13 45C13 41.134 16.134 38 20 38C23.866 38 27 41.134 27 45Z" fill="#2C2C2C"/>
<path d="M6.0512 5.77854C6.63697 4.06309 8.07841 2.79431 9.8767 2.56609C28.8989 0.152004 81.3353 0.589464 101.75 2.73917C103.189 2.89077 104.461 3.69157 105.264 4.89606L117 22.4999L115 42.9999L7.75705 43.9617C5.30346 43.9837 3.19647 42.2221 2.78352 39.8034L0.128422 24.2521C0.0441489 23.7585 0.0847702 23.2517 0.246582 22.7778L6.0512 5.77854Z" fill="url(#paint0_linear)"/>
<path d="M85.0773 17.8694L78.1626 4.04246C78.5236 3.8303 79.0799 3.64326 79.8012 3.48476C80.5844 3.31265 81.5496 3.17675 82.6443 3.07566C84.8334 2.8735 87.5315 2.81133 90.3097 2.87403C93.0876 2.93672 95.9429 3.12419 98.4462 3.42064C100.929 3.71462 103.056 4.11482 104.419 4.60327L113.266 17.8746L85.0773 17.8694Z" fill="url(#paint1_linear)" stroke="#4F4F4F" stroke-width="0.25"/>
<path d="M78.5321 4.57766C78.511 4.52856 78.4898 4.47597 78.4913 4.42256C78.5437 2.55016 96.9574 2.25044 103.902 4.49013C104.296 4.61717 104.623 4.88544 104.853 5.22993L106.7 8.00353C105.24 7.02856 90.8171 5.58255 80.8275 7.806C80.3485 7.91262 79.8578 7.66975 79.6645 7.2187L78.5321 4.57766Z" fill="white"/>
<g filter="url(#filter3_f)">
<path d="M89 23.5L117 23L116.548 29L89 29.5V23.5Z" fill="#2C2C2C"/>
<path d="M89.125 29.3727V23.6228L116.865 23.1274L116.432 28.8771L89.125 29.3727Z" stroke="black" stroke-width="0.25"/>
</g>
<g filter="url(#filter4_f)">
<path d="M112 23.5H117L116.919 28.5H112V23.5Z" fill="#010203"/>
<path d="M112.125 23.625H116.873L116.796 28.375H112.125V23.625Z" stroke="black" stroke-width="0.25"/>
</g>
<g filter="url(#filter5_f)">
<path d="M89 24H94L93.9194 29H89V24Z" fill="#010203"/>
<path d="M89.125 24.125H93.873L93.7964 28.875H89.125V24.125Z" stroke="black" stroke-width="0.25"/>
</g>
<path d="M78 45.2593C78 49.2684 74.866 52 71 52C65 52 64 49.2684 64 45.2593C64 41.2501 66.134 38 70 38C77 38 78 41.2501 78 45.2593Z" fill="#1E1D1D"/>
<g filter="url(#filter6_f)">
<path d="M94.5 32.5L113 32L112.548 37L94 37.5L94.5 32.5Z" fill="#2C2C2C"/>
<path d="M94.1385 37.3712L94.6134 32.622L112.863 32.1288L112.434 36.878L94.1385 37.3712Z" stroke="black" stroke-width="0.25"/>
</g>
<g filter="url(#filter7_f)">
<path d="M98.3158 36.5L110 36L109.715 37L98 37.5L98.3158 36.5Z" fill="#2D2D2D"/>
<path d="M98.1729 37.3675L98.4086 36.6211L109.832 36.1323L109.619 36.879L98.1729 37.3675Z" stroke="black" stroke-width="0.25"/>
</g>
<path d="M87 41.9365C87 40.8571 87.8566 39.9724 88.9355 39.9376L116.968 39.0333C117.532 39.0151 118 39.4679 118 40.0328V42.0472C118 42.5807 117.581 43.0203 117.048 43.046L89.0967 44.3985C87.9555 44.4538 87 43.5434 87 42.4009V41.9365Z" fill="#C0BCBC"/>
<path d="M34 43H59V44L34 45V43Z" fill="#1F1D1D"/>
<path d="M86.7036 42.0362C86.5919 40.9192 87.4211 39.9291 88.5403 39.8431L91.9233 39.5828C92.5041 39.5381 93 39.9974 93 40.5799V43.1529C93 43.6417 92.6466 44.0589 92.1644 44.1393L89.1064 44.6489C87.9661 44.839 86.9025 44.0255 86.7875 42.8752L86.7036 42.0362Z" fill="#2C2C2C"/>
<path d="M34.9013 4H58C57.5373 18.9042 57.4016 28.0958 58 43H34.9013C33.6978 28.09 33.7013 18.7698 34.9013 4Z" fill="url(#paint2_linear)"/>
<g filter="url(#filter8_d)">
<path d="M57.9992 4H76.7187L83.9992 18.5V43.5L77.6583 43.9064C76.789 43.9622 75.9837 43.4488 75.6671 42.6373L74.3819 39.342C73.6028 37.3445 71.6368 36.066 69.495 36.1641L62.1576 36.5C60.1339 37.4162 61.4995 45 57.9995 44C57 40 56.499 11 57.9992 4Z" fill="#A09E9E"/>
</g>
<path d="M57.8785 29.7644L59.1191 4.125H76.7733L83.875 18.5291V42.3836L78.5703 42.7625C77.7028 42.8245 76.9065 42.2817 76.6471 41.4515L75.7158 38.4713C75.0471 36.3318 73.0656 34.875 70.824 34.875H62.7478C59.9629 34.875 57.7439 32.546 57.8785 29.7644Z" fill="url(#paint3_linear)" stroke="#828282" stroke-width="0.25"/>
<path d="M60 6H76.5L82.5 18H60V6Z" fill="url(#paint4_linear)"/>
<g filter="url(#filter9_d)">
<path d="M24 45.1481C24 47.4391 22.2091 49 20 49C17.7909 49 16 47.4391 16 45.1481C16 42.8572 17.7909 41 20 41C22.2091 41 24 42.8572 24 45.1481Z" fill="white"/>
</g>
<g filter="url(#filter10_d)">
<path d="M23.5 45C23.5 46.6569 22 48 20 48C18.3431 48 17 46.6569 17 45C17 43.3431 18.3431 42 20 42C22.5 42 23.5 43.3431 23.5 45Z" fill="#C4C4C4"/>
</g>
<g filter="url(#filter11_d)">
<circle cx="20.5" cy="45" r="2.5" fill="white"/>
</g>
<circle cx="20" cy="45" r="1" fill="#C4C4C4"/>
<path d="M62 36.4996L65 36.3496C62.5 37.8496 62.9687 44.1412 63 47.9996L58.5 48.9998C60.001 45.5001 57.5 38.4996 62 36.4996Z" fill="#171717"/>
<path d="M75.5 45.2593C75.5 49.2684 73 52 68.5 52C64.634 52 61.5 49.2684 61.5 45.2593C61.5 41.2501 64.634 38 68.5 38C72.366 38 75.5 41.2501 75.5 45.2593Z" fill="#4F4F4F"/>
<path d="M75.5 45.2593C75.5 49.2684 73 52 68.5 52C64.634 52 61.5 49.2684 61.5 45.2593C61.5 41.2501 64.634 38 68.5 38C72.366 38 75.5 41.2501 75.5 45.2593Z" fill="#2C2C2C"/>
<g filter="url(#filter12_d)">
<path d="M73 45.1481C73 47.4391 71.2091 49 69 49C66.7909 49 65 47.4391 65 45.1481C65 42.8572 66.7909 41 69 41C71.2091 41 73 42.8572 73 45.1481Z" fill="white"/>
</g>
<g filter="url(#filter13_f)">
<path d="M12 4.2998H35C33.7189 19.6117 33.7536 30.1769 35 45.2998H12V4.2998Z" fill="black"/>
</g>
<g filter="url(#filter14_f)">
<path d="M2.5 37.2998H26.7V37.7998H2.5V37.2998Z" fill="#4F4F4F"/>
</g>
<path d="M7.77693 4.69399C7.90986 4.28044 8.29457 4 8.72896 4H11V18H4.87182C4.19378 18 3.7123 17.3395 3.91979 16.694L7.77693 4.69399Z" fill="#4F4F4F"/>
<path d="M7.47625 5.69257C7.60962 5.27974 7.99398 5 8.42782 5H11V18H4.87397C4.1953 18 3.71376 17.3384 3.9224 16.6926L7.47625 5.69257Z" fill="#2C2C2C"/>
<path d="M6.77829 7.6968C6.91033 7.28182 7.29574 7 7.73122 7H11V18H4.86758C4.19078 18 3.70945 17.3417 3.91466 16.6968L6.77829 7.6968Z" fill="#4F4F4F"/>
<path d="M6.12893 9.69811C6.26055 9.28247 6.64629 9 7.08227 9H10.5L11 18H4.86561C4.18938 18 3.70812 17.3428 3.91227 16.6981L6.12893 9.69811Z" fill="#2C2C2C"/>
<path d="M5.47995 11.7002C5.61091 11.2835 5.99715 11 6.43394 11H10L11 18H4.86251C4.18719 18 3.70604 17.3444 3.90852 16.7002L5.47995 11.7002Z" fill="#4F4F4F"/>
<path d="M4.7862 13.7127C4.9131 13.2897 5.30242 13 5.74403 13H10L11 18H4.84403C4.17417 18 3.69372 17.3543 3.8862 16.7127L4.7862 13.7127Z" fill="#2C2C2C"/>
<path d="M4.1862 15.7127C4.3131 15.2897 4.70242 15 5.14403 15H9.5L11 18H4.84403C4.17417 18 3.69372 17.3543 3.8862 16.7127L4.1862 15.7127Z" fill="#4F4F4F"/>
<path d="M10 3.875H9.88688L9.87562 3.98756L8.37791 18.9647L7.8882 19.9441L7.875 19.9705V20V23V23.0295L7.8882 23.0559L8.37706 24.0336L9.80983 44.379C9.85133 44.9682 10.3414 45.425 10.9321 45.425H34H34.1313L34.1248 45.2938L33.125 24.9969V24V23.9482L33.0884 23.9116L32.125 22.9482V20.0518L33.0884 19.0884L33.1216 19.0552L33.1247 19.0083L34.1247 4.00831L34.1336 3.875H34H10Z" fill="url(#paint5_linear)" stroke="#707070" stroke-width="0.25"/>
<path d="M60.125 13.125H75.875V17.875H60.125V13.125Z" fill="url(#paint6_linear)" stroke="#4F4F4F" stroke-width="0.25"/>
<path d="M77 7L78 9L81.7764 16.5528C82.1088 17.2177 81.6253 18 80.882 18H76L77 7Z" fill="#A09E9E"/>
<path d="M77.0998 7.5L77.7996 9L81.576 16.5528C81.9085 17.2177 81.425 18 80.6816 18H76.2002L77.0998 7.5Z" fill="white"/>
<path d="M0 40.5C0 40.2239 0.223858 40 0.5 40H4.28504C5.82629 40 7.11679 41.1679 7.27015 42.7015L7.5 45H3C1.34315 45 0 43.6569 0 42V40.5Z" fill="#2C2C2C"/>
<rect x="71.3516" y="11.7559" width="4" height="5" rx="0.5" transform="rotate(7.65998 71.3516 11.7559)" fill="url(#paint7_linear)"/>
<path d="M73 15.4236C73 15.1791 73.1767 14.9705 73.4178 14.9304L75.4178 14.597C75.7226 14.5462 76 14.7813 76 15.0902V17.4098C76 17.7187 75.7226 17.9538 75.4178 17.903L73.4178 17.5696C73.1767 17.5295 73 17.3209 73 17.0764V15.4236Z" fill="url(#paint8_linear)"/>
<path d="M94 26.5C94 27.8807 92.8807 28.75 91.5 28.75C90.1193 28.75 89 27.8807 89 26.5C89 25.1193 90.1193 24 91.5 24C92.8807 24 94 25.1193 94 26.5Z" fill="url(#paint9_linear)"/>
<path d="M117 26C117 27.3807 115.881 28.5 114.5 28.5C113.119 28.5 112.5 27.3807 112.5 26C112.5 24.6193 113.119 23.5 114.5 23.5C115.881 23.5 117 24.6193 117 26Z" fill="url(#paint10_linear)"/>
<path d="M13.0125 5.875C12.431 5.875 11.9453 6.3182 11.8922 6.8973L10.9756 16.8973C10.9151 17.5564 11.434 18.125 12.0959 18.125H30.5312C31.3712 18.125 32.0727 17.4848 32.1494 16.6483L32.9744 7.64834C33.0617 6.69629 32.3123 5.875 31.3562 5.875H13.0125Z" fill="white" stroke="#4F4F4F" stroke-width="0.25"/>
<path d="M12.1381 16.875L13.1131 7.125H31.8619L30.8869 16.875H12.1381Z" fill="url(#paint11_linear)" stroke="#A09E9E" stroke-width="0.25"/>
<path d="M25 7H32L31 17H24L25 7Z" fill="url(#paint12_linear)"/>
<g filter="url(#filter15_d)">
<path d="M72.5 45C72.5 46.6569 71 48 69 48C67.3431 48 66 46.6569 66 45C66 43.3431 67.3431 42 69 42C71.5 42 72.5 43.3431 72.5 45Z" fill="#C4C4C4"/>
</g>
<g filter="url(#filter16_d)">
<circle cx="69.5" cy="45" r="2.5" fill="#D5D4D4"/>
</g>
<circle cx="69" cy="45" r="2.5" fill="white"/>
<circle cx="69" cy="45" r="1" fill="#C4C4C4"/>
<path d="M8 23H32L33 24V25H8.5V24L8 23Z" fill="#808080"/>
<path d="M8 23H32L33 24H8.5L8 23Z" fill="#4F4F4F"/>
<g filter="url(#filter17_f)">
<path d="M9.5 38H33.7V38.5H9.5V38Z" fill="#4F4F4F"/>
</g>
<g filter="url(#filter18_f)">
<path d="M57 4H77V4.5H57V4Z" fill="#4F4F4F"/>
</g>
<g filter="url(#filter19_f)">
<path d="M57.5 38H60.5V38.5H57.5V38Z" fill="#4F4F4F"/>
</g>
<path d="M28 24H30.6667H32V24.5L30.6667 25L28 24.5V24Z" fill="#2C2C2C"/>
<g filter="url(#filter20_f)">
<path d="M75.9561 38.1709H83.6586V38.6709H75.9561V38.1709Z" fill="#4F4F4F"/>
</g>
<g filter="url(#filter21_f)">
<path d="M8.5 25H32.7V25.3H8.5V25Z" fill="#B6B6B6"/>
</g>
<g filter="url(#filter22_f)">
<path d="M57.5 25H82.5V25.3H57.5V25Z" fill="#B6B6B6"/>
</g>
<path d="M8.5 19H33L32 20H8L8.5 19Z" fill="#808080"/>
<path d="M56.5 23H81.5L82.5 24V25H57V24L56.5 23Z" fill="#808080"/>
<path d="M57 19H82.5V20H56.5L57 19Z" fill="#808080"/>
<path d="M56.5 20H82.5V23H56.5V20Z" fill="#ABA9A9"/>
<path d="M58.5 19L58 20V23L58.5 24V25" stroke="#828282" stroke-width="0.25"/>
<path d="M56.5 23H82.5V24H57L56.5 23Z" fill="#4F4F4F"/>
<g filter="url(#filter23_f)">
<rect x="86" y="34" width="3" height="3" rx="0.2" fill="#1E1C1C"/>
</g>
<g filter="url(#filter24_f)">
<path d="M115 33.2C115 33.0895 115.09 33 115.2 33H116.264C116.387 33 116.482 33.111 116.461 33.2329L116.028 35.8329C116.012 35.9293 115.928 36 115.831 36H115.2C115.09 36 115 35.9105 115 35.8V33.2Z" fill="#1E1C1C"/>
</g>
<path d="M82.5 19V42.5" stroke="#828282" stroke-width="0.25"/>
<path d="M60 24H62.6667H64V24.5L62.6667 25L60 24.5V24Z" fill="#2C2C2C"/>
<defs>
<filter id="filter0_f" x="4" y="45.5" width="107" height="10" filterUnits="userSpaceOnUse" color-interpolation-filters="sRGB">
<feFlood flood-opacity="0" result="BackgroundImageFix"/>
<feBlend mode="normal" in="SourceGraphic" in2="BackgroundImageFix" result="shape"/>
<feGaussianBlur stdDeviation="1" result="effect1_foregroundBlur"/>
</filter>
<filter id="filter1_f" x="26.5" y="41.5" width="19" height="6" filterUnits="userSpaceOnUse" color-interpolation-filters="sRGB">
<feFlood flood-opacity="0" result="BackgroundImageFix"/>
<feBlend mode="normal" in="SourceGraphic" in2="BackgroundImageFix" result="shape"/>
<feGaussianBlur stdDeviation="0.25" result="effect1_foregroundBlur"/>
</filter>
<filter id="filter2_f" x="56.5" y="41.5" width="52" height="4.97199" filterUnits="userSpaceOnUse" color-interpolation-filters="sRGB">
<feFlood flood-opacity="0" result="BackgroundImageFix"/>
<feBlend mode="normal" in="SourceGraphic" in2="BackgroundImageFix" result="shape"/>
<feGaussianBlur stdDeviation="0.25" result="effect1_foregroundBlur"/>
</filter>
<filter id="filter3_f" x="88.5" y="22.5" width="29" height="7.5" filterUnits="userSpaceOnUse" color-interpolation-filters="sRGB">
<feFlood flood-opacity="0" result="BackgroundImageFix"/>
<feBlend mode="normal" in="SourceGraphic" in2="BackgroundImageFix" result="shape"/>
<feGaussianBlur stdDeviation="0.25" result="effect1_foregroundBlur"/>
</filter>
<filter id="filter4_f" x="111" y="22.5" width="7" height="7" filterUnits="userSpaceOnUse" color-interpolation-filters="sRGB">
<feFlood flood-opacity="0" result="BackgroundImageFix"/>
<feBlend mode="normal" in="SourceGraphic" in2="BackgroundImageFix" result="shape"/>
<feGaussianBlur stdDeviation="0.5" result="effect1_foregroundBlur"/>
</filter>
<filter id="filter5_f" x="88" y="23" width="7" height="7" filterUnits="userSpaceOnUse" color-interpolation-filters="sRGB">
<feFlood flood-opacity="0" result="BackgroundImageFix"/>
<feBlend mode="normal" in="SourceGraphic" in2="BackgroundImageFix" result="shape"/>
<feGaussianBlur stdDeviation="0.5" result="effect1_foregroundBlur"/>
</filter>
<filter id="filter6_f" x="93.5" y="31.5" width="20" height="6.5" filterUnits="userSpaceOnUse" color-interpolation-filters="sRGB">
<feFlood flood-opacity="0" result="BackgroundImageFix"/>
<feBlend mode="normal" in="SourceGraphic" in2="BackgroundImageFix" result="shape"/>
<feGaussianBlur stdDeviation="0.25" result="effect1_foregroundBlur"/>
</filter>
<filter id="filter7_f" x="97.5" y="35.5" width="13" height="2.5" filterUnits="userSpaceOnUse" color-interpolation-filters="sRGB">
<feFlood flood-opacity="0" result="BackgroundImageFix"/>
<feBlend mode="normal" in="SourceGraphic" in2="BackgroundImageFix" result="shape"/>
<feGaussianBlur stdDeviation="0.25" result="effect1_foregroundBlur"/>
</filter>
<filter id="filter8_d" x="55.0527" y="3" width="28.9465" height="42.0906" filterUnits="userSpaceOnUse" color-interpolation-filters="sRGB">
<feFlood flood-opacity="0" result="BackgroundImageFix"/>
<feColorMatrix in="SourceAlpha" type="matrix" values="0 0 0 0 0 0 0 0 0 0 0 0 0 0 0 0 0 0 127 0"/>
<feOffset dx="-1"/>
<feGaussianBlur stdDeviation="0.5"/>
<feColorMatrix type="matrix" values="0 0 0 0 0 0 0 0 0 0 0 0 0 0 0 0 0 0 0.25 0"/>
<feBlend mode="normal" in2="BackgroundImageFix" result="effect1_dropShadow"/>
<feBlend mode="normal" in="SourceGraphic" in2="effect1_dropShadow" result="shape"/>
</filter>
<filter id="filter9_d" x="13" y="38" width="12" height="12" filterUnits="userSpaceOnUse" color-interpolation-filters="sRGB">
<feFlood flood-opacity="0" result="BackgroundImageFix"/>
<feColorMatrix in="SourceAlpha" type="matrix" values="0 0 0 0 0 0 0 0 0 0 0 0 0 0 0 0 0 0 127 0"/>
<feOffset dx="-1" dy="-1"/>
<feGaussianBlur stdDeviation="1"/>
<feColorMatrix type="matrix" values="0 0 0 0 0 0 0 0 0 0 0 0 0 0 0 0 0 0 0.5 0"/>
<feBlend mode="normal" in2="BackgroundImageFix" result="effect1_dropShadow"/>
<feBlend mode="normal" in="SourceGraphic" in2="effect1_dropShadow" result="shape"/>
</filter>
<filter id="filter10_d" x="16" y="40" width="8.5" height="8" filterUnits="userSpaceOnUse" color-interpolation-filters="sRGB">
<feFlood flood-opacity="0" result="BackgroundImageFix"/>
<feColorMatrix in="SourceAlpha" type="matrix" values="0 0 0 0 0 0 0 0 0 0 0 0 0 0 0 0 0 0 127 0"/>
<feOffset dy="-1"/>
<feGaussianBlur stdDeviation="0.5"/>
<feColorMatrix type="matrix" values="0 0 0 0 0 0 0 0 0 0 0 0 0 0 0 0 0 0 0.7 0"/>
<feBlend mode="normal" in2="BackgroundImageFix" result="effect1_dropShadow"/>
<feBlend mode="normal" in="SourceGraphic" in2="effect1_dropShadow" result="shape"/>
</filter>
<filter id="filter11_d" x="16" y="41.5" width="9" height="9" filterUnits="userSpaceOnUse" color-interpolation-filters="sRGB">
<feFlood flood-opacity="0" result="BackgroundImageFix"/>
<feColorMatrix in="SourceAlpha" type="matrix" values="0 0 0 0 0 0 0 0 0 0 0 0 0 0 0 0 0 0 127 0"/>
<feOffset dy="1"/>
<feGaussianBlur stdDeviation="1"/>
<feColorMatrix type="matrix" values="0 0 0 0 0 0 0 0 0 0 0 0 0 0 0 0 0 0 0.5 0"/>
<feBlend mode="normal" in2="BackgroundImageFix" result="effect1_dropShadow"/>
<feBlend mode="normal" in="SourceGraphic" in2="effect1_dropShadow" result="shape"/>
</filter>
<filter id="filter12_d" x="62" y="38" width="12" height="12" filterUnits="userSpaceOnUse" color-interpolation-filters="sRGB">
<feFlood flood-opacity="0" result="BackgroundImageFix"/>
<feColorMatrix in="SourceAlpha" type="matrix" values="0 0 0 0 0 0 0 0 0 0 0 0 0 0 0 0 0 0 127 0"/>
<feOffset dx="-1" dy="-1"/>
<feGaussianBlur stdDeviation="1"/>
<feColorMatrix type="matrix" values="0 0 0 0 0 0 0 0 0 0 0 0 0 0 0 0 0 0 0.5 0"/>
<feBlend mode="normal" in2="BackgroundImageFix" result="effect1_dropShadow"/>
<feBlend mode="normal" in="SourceGraphic" in2="effect1_dropShadow" result="shape"/>
</filter>
<filter id="filter13_f" x="11" y="3.2998" width="25" height="43" filterUnits="userSpaceOnUse" color-interpolation-filters="sRGB">
<feFlood flood-opacity="0" result="BackgroundImageFix"/>
<feBlend mode="normal" in="SourceGraphic" in2="BackgroundImageFix" result="shape"/>
<feGaussianBlur stdDeviation="0.5" result="effect1_foregroundBlur"/>
</filter>
<filter id="filter14_f" x="2" y="36.7998" width="25.2" height="1.5" filterUnits="userSpaceOnUse" color-interpolation-filters="sRGB">
<feFlood flood-opacity="0" result="BackgroundImageFix"/>
<feBlend mode="normal" in="SourceGraphic" in2="BackgroundImageFix" result="shape"/>
<feGaussianBlur stdDeviation="0.25" result="effect1_foregroundBlur"/>
</filter>
<filter id="filter15_d" x="65" y="40" width="8.5" height="8" filterUnits="userSpaceOnUse" color-interpolation-filters="sRGB">
<feFlood flood-opacity="0" result="BackgroundImageFix"/>
<feColorMatrix in="SourceAlpha" type="matrix" values="0 0 0 0 0 0 0 0 0 0 0 0 0 0 0 0 0 0 127 0"/>
<feOffset dy="-1"/>
<feGaussianBlur stdDeviation="0.5"/>
<feColorMatrix type="matrix" values="0 0 0 0 0 0 0 0 0 0 0 0 0 0 0 0 0 0 0.7 0"/>
<feBlend mode="normal" in2="BackgroundImageFix" result="effect1_dropShadow"/>
<feBlend mode="normal" in="SourceGraphic" in2="effect1_dropShadow" result="shape"/>
</filter>
<filter id="filter16_d" x="65" y="41.5" width="9" height="9" filterUnits="userSpaceOnUse" color-interpolation-filters="sRGB">
<feFlood flood-opacity="0" result="BackgroundImageFix"/>
<feColorMatrix in="SourceAlpha" type="matrix" values="0 0 0 0 0 0 0 0 0 0 0 0 0 0 0 0 0 0 127 0"/>
<feOffset dy="1"/>
<feGaussianBlur stdDeviation="1"/>
<feColorMatrix type="matrix" values="0 0 0 0 0 0 0 0 0 0 0 0 0 0 0 0 0 0 0.5 0"/>
<feBlend mode="normal" in2="BackgroundImageFix" result="effect1_dropShadow"/>
<feBlend mode="normal" in="SourceGraphic" in2="effect1_dropShadow" result="shape"/>
</filter>
<filter id="filter17_f" x="9" y="37.5" width="25.2" height="1.5" filterUnits="userSpaceOnUse" color-interpolation-filters="sRGB">
<feFlood flood-opacity="0" result="BackgroundImageFix"/>
<feBlend mode="normal" in="SourceGraphic" in2="BackgroundImageFix" result="shape"/>
<feGaussianBlur stdDeviation="0.25" result="effect1_foregroundBlur"/>
</filter>
<filter id="filter18_f" x="56.7" y="3.7" width="20.6" height="1.1" filterUnits="userSpaceOnUse" color-interpolation-filters="sRGB">
<feFlood flood-opacity="0" result="BackgroundImageFix"/>
<feBlend mode="normal" in="SourceGraphic" in2="BackgroundImageFix" result="shape"/>
<feGaussianBlur stdDeviation="0.15" result="effect1_foregroundBlur"/>
</filter>
<filter id="filter19_f" x="57" y="37.5" width="4" height="1.5" filterUnits="userSpaceOnUse" color-interpolation-filters="sRGB">
<feFlood flood-opacity="0" result="BackgroundImageFix"/>
<feBlend mode="normal" in="SourceGraphic" in2="BackgroundImageFix" result="shape"/>
<feGaussianBlur stdDeviation="0.25" result="effect1_foregroundBlur"/>
</filter>
<filter id="filter20_f" x="75.4561" y="37.6709" width="8.70256" height="1.5" filterUnits="userSpaceOnUse" color-interpolation-filters="sRGB">
<feFlood flood-opacity="0" result="BackgroundImageFix"/>
<feBlend mode="normal" in="SourceGraphic" in2="BackgroundImageFix" result="shape"/>
<feGaussianBlur stdDeviation="0.25" result="effect1_foregroundBlur"/>
</filter>
<filter id="filter21_f" x="8" y="24.5" width="25.2" height="1.3" filterUnits="userSpaceOnUse" color-interpolation-filters="sRGB">
<feFlood flood-opacity="0" result="BackgroundImageFix"/>
<feBlend mode="normal" in="SourceGraphic" in2="BackgroundImageFix" result="shape"/>
<feGaussianBlur stdDeviation="0.25" result="effect1_foregroundBlur"/>
</filter>
<filter id="filter22_f" x="57" y="24.5" width="26" height="1.3" filterUnits="userSpaceOnUse" color-interpolation-filters="sRGB">
<feFlood flood-opacity="0" result="BackgroundImageFix"/>
<feBlend mode="normal" in="SourceGraphic" in2="BackgroundImageFix" result="shape"/>
<feGaussianBlur stdDeviation="0.25" result="effect1_foregroundBlur"/>
</filter>
<filter id="filter23_f" x="85.5" y="33.5" width="4" height="4" filterUnits="userSpaceOnUse" color-interpolation-filters="sRGB">
<feFlood flood-opacity="0" result="BackgroundImageFix"/>
<feBlend mode="normal" in="SourceGraphic" in2="BackgroundImageFix" result="shape"/>
<feGaussianBlur stdDeviation="0.25" result="effect1_foregroundBlur"/>
</filter>
<filter id="filter24_f" x="114.5" y="32.5" width="2.46396" height="4" filterUnits="userSpaceOnUse" color-interpolation-filters="sRGB">
<feFlood flood-opacity="0" result="BackgroundImageFix"/>
<feBlend mode="normal" in="SourceGraphic" in2="BackgroundImageFix" result="shape"/>
<feGaussianBlur stdDeviation="0.25" result="effect1_foregroundBlur"/>
</filter>
<linearGradient id="paint0_linear" x1="58.5" y1="0.933594" x2="58" y2="51.5" gradientUnits="userSpaceOnUse">
<stop stop-color="#D9D7D7"/>
<stop offset="1" stop-color="#565353"/>
</linearGradient>
<linearGradient id="paint1_linear" x1="95.75" y1="3.12793" x2="95.75" y2="18" gradientUnits="userSpaceOnUse">
<stop stop-color="#DEDBDB"/>
<stop offset="1" stop-color="#464646" stop-opacity="0.67"/>
</linearGradient>
<linearGradient id="paint2_linear" x1="46" y1="4" x2="46" y2="43" gradientUnits="userSpaceOnUse">
<stop stop-color="#0B0909"/>
<stop offset="1" stop-color="#464646" stop-opacity="0.67"/>
</linearGradient>
<linearGradient id="paint3_linear" x1="70.75" y1="4" x2="68.9423" y2="49.7249" gradientUnits="userSpaceOnUse">
<stop stop-color="#D9D7D7"/>
<stop offset="1" stop-color="#565353"/>
</linearGradient>
<linearGradient id="paint4_linear" x1="71.25" y1="6" x2="71.25" y2="18" gradientUnits="userSpaceOnUse">
<stop stop-color="#0B0909"/>
<stop offset="1" stop-color="#464646" stop-opacity="0.67"/>
</linearGradient>
<linearGradient id="paint5_linear" x1="21" y1="4" x2="18.9343" y2="52.4091" gradientUnits="userSpaceOnUse">
<stop stop-color="#D9D7D7"/>
<stop offset="1" stop-color="#565353"/>
</linearGradient>
<linearGradient id="paint6_linear" x1="68" y1="13.1317" x2="68" y2="18.0001" gradientUnits="userSpaceOnUse">
<stop stop-color="white"/>
<stop offset="1" stop-color="#F8F5F5" stop-opacity="0.07"/>
</linearGradient>
<linearGradient id="paint7_linear" x1="73.3516" y1="11.7559" x2="73.3516" y2="16.7559" gradientUnits="userSpaceOnUse">
<stop stop-color="#434242"/>
<stop offset="1" stop-color="#151414"/>
</linearGradient>
<linearGradient id="paint8_linear" x1="74.5" y1="14.5" x2="74.5" y2="18" gradientUnits="userSpaceOnUse">
<stop stop-color="#3F3E3E"/>
<stop offset="1" stop-color="#151414" stop-opacity="0.85"/>
<stop offset="1" stop-color="#151414" stop-opacity="0.85"/>
</linearGradient>
<linearGradient id="paint9_linear" x1="91.5" y1="24" x2="94" y2="29" gradientUnits="userSpaceOnUse">
<stop stop-color="white" stop-opacity="0.46"/>
<stop offset="1" stop-color="white"/>
</linearGradient>
<linearGradient id="paint10_linear" x1="114.75" y1="23.5" x2="117.617" y2="28.4024" gradientUnits="userSpaceOnUse">
<stop stop-color="white" stop-opacity="0.73"/>
<stop offset="1" stop-color="white"/>
</linearGradient>
<linearGradient id="paint11_linear" x1="22" y1="7.26342" x2="22" y2="17.0002" gradientUnits="userSpaceOnUse">
<stop stop-color="#DEDBDB"/>
<stop offset="1" stop-color="#464646" stop-opacity="0.67"/>
</linearGradient>
<linearGradient id="paint12_linear" x1="28" y1="7" x2="28" y2="17" gradientUnits="userSpaceOnUse">
<stop stop-color="#0B0909"/>
<stop offset="1" stop-color="#464646" stop-opacity="0.67"/>
</linearGradient>
</defs>
</svg>
