<svg width="114" height="125" viewBox="0 0 114 125" fill="none" xmlns="http://www.w3.org/2000/svg">
<g filter="url(#filter0_di)">
<path d="M23 35.9777C23 29.6899 25.8994 23.6555 31.186 20.2513C50.9691 7.51229 64.8781 7.77222 84.6236 20.2487C90.0139 23.6546 93 29.7588 93 36.135V89.835C93 96.2176 90.0178 102.343 84.5812 105.687C66.018 117.105 52.1794 117.092 32.0996 105.648C26.2898 102.337 23 95.9741 23 89.287V35.9777Z" fill="url(#paint0_angular)"/>
</g>
<rect x="33" y="42" width="12" height="3" rx="1.5" fill="#4F4F4F"/>
<rect x="73" y="42.001" width="12" height="3" rx="1.5" fill="#4F4F4F"/>
<ellipse cx="39" cy="54.5" rx="5" ry="0.5" fill="#2E2D2D"/>
<ellipse cx="78" cy="54.5" rx="5" ry="0.5" fill="#2E2D2D"/>
<g filter="url(#filter1_d)">
<rect x="43" y="85" width="30" height="6" rx="3" fill="#4F4F4F"/>
</g>
<g filter="url(#filter2_f)">
<rect x="45" y="87.5" width="26" height="1" rx="0.5" fill="black"/>
</g>
<path fill-rule="evenodd" clip-rule="evenodd" d="M103.627 27.7209C102.275 28.533 100.692 29 99 29C97.0705 29 95.2827 28.3928 93.8175 27.359C92.6694 28.3799 91.1571 29 89.5 29C85.9101 29 83 26.0899 83 22.5C83 18.9101 85.9101 16 89.5 16C89.9685 16 90.4253 16.0496 90.8657 16.1437C92.31 13.1026 95.4094 11 99 11C102.539 11 105.601 13.0429 107.071 16.0139C107.213 16.0047 107.356 16 107.5 16C111.09 16 114 18.9101 114 22.5C114 26.0899 111.09 29 107.5 29C106.049 29 104.709 28.5245 103.627 27.7209Z" fill="url(#paint1_linear)"/>
<path fill-rule="evenodd" clip-rule="evenodd" d="M63.6273 18.7209C62.2752 19.533 60.6921 20 59 20C57.0705 20 55.2827 19.3928 53.8175 18.359C52.6694 19.3799 51.1571 20 49.5 20C45.9101 20 43 17.0899 43 13.5C43 9.91015 45.9101 7 49.5 7C49.9685 7 50.4253 7.04956 50.8657 7.14371C52.31 4.10261 55.4094 2 59 2C62.5392 2 65.6013 4.04294 67.0714 7.01391C67.2131 7.00468 67.356 7 67.5 7C71.0899 7 74 9.91015 74 13.5C74 17.0899 71.0899 20 67.5 20C66.049 20 64.709 19.5245 63.6273 18.7209Z" fill="url(#paint2_linear)"/>
<path fill-rule="evenodd" clip-rule="evenodd" d="M20.6273 27.7209C19.2752 28.533 17.6921 29 16 29C14.0705 29 12.2827 28.3928 10.8175 27.359C9.66944 28.3799 8.15714 29 6.5 29C2.91015 29 0 26.0899 0 22.5C0 18.9101 2.91015 16 6.5 16C6.96846 16 7.42534 16.0496 7.86569 16.1437C9.30997 13.1026 12.4094 11 16 11C19.5392 11 22.6013 13.0429 24.0714 16.0139C24.2131 16.0047 24.356 16 24.5 16C28.0899 16 31 18.9101 31 22.5C31 26.0899 28.0899 29 24.5 29C23.049 29 21.709 28.5245 20.6273 27.7209Z" fill="url(#paint3_linear)"/>
<defs>
<filter id="filter0_di" x="13" y="0.793945" width="90" height="128.447" filterUnits="userSpaceOnUse" color-interpolation-filters="sRGB">
<feFlood flood-opacity="0" result="BackgroundImageFix"/>
<feColorMatrix in="SourceAlpha" type="matrix" values="0 0 0 0 0 0 0 0 0 0 0 0 0 0 0 0 0 0 127 0"/>
<feOffset/>
<feGaussianBlur stdDeviation="5"/>
<feColorMatrix type="matrix" values="0 0 0 0 0 0 0 0 0 0 0 0 0 0 0 0 0 0 0.5 0"/>
<feBlend mode="normal" in2="BackgroundImageFix" result="effect1_dropShadow"/>
<feBlend mode="normal" in="SourceGraphic" in2="effect1_dropShadow" result="shape"/>
<feColorMatrix in="SourceAlpha" type="matrix" values="0 0 0 0 0 0 0 0 0 0 0 0 0 0 0 0 0 0 127 0" result="hardAlpha"/>
<feOffset dy="20"/>
<feGaussianBlur stdDeviation="7.5"/>
<feComposite in2="hardAlpha" operator="arithmetic" k2="-1" k3="1"/>
<feColorMatrix type="matrix" values="0 0 0 0 0 0 0 0 0 0 0 0 0 0 0 0 0 0 0.25 0"/>
<feBlend mode="normal" in2="shape" result="effect2_innerShadow"/>
</filter>
<filter id="filter1_d" x="42" y="84" width="32" height="8" filterUnits="userSpaceOnUse" color-interpolation-filters="sRGB">
<feFlood flood-opacity="0" result="BackgroundImageFix"/>
<feColorMatrix in="SourceAlpha" type="matrix" values="0 0 0 0 0 0 0 0 0 0 0 0 0 0 0 0 0 0 127 0"/>
<feOffset/>
<feGaussianBlur stdDeviation="0.5"/>
<feColorMatrix type="matrix" values="0 0 0 0 0 0 0 0 0 0 0 0 0 0 0 0 0 0 0.25 0"/>
<feBlend mode="normal" in2="BackgroundImageFix" result="effect1_dropShadow"/>
<feBlend mode="normal" in="SourceGraphic" in2="effect1_dropShadow" result="shape"/>
</filter>
<filter id="filter2_f" x="44" y="86.5" width="28" height="3" filterUnits="userSpaceOnUse" color-interpolation-filters="sRGB">
<feFlood flood-opacity="0" result="BackgroundImageFix"/>
<feBlend mode="normal" in="SourceGraphic" in2="BackgroundImageFix" result="shape"/>
<feGaussianBlur stdDeviation="0.5" result="effect1_foregroundBlur"/>
</filter>
<radialGradient id="paint0_angular" cx="0" cy="0" r="1" gradientUnits="userSpaceOnUse" gradientTransform="translate(58 70.0001) rotate(-90) scale(44 40.093)">
<stop stop-color="#9A9898"/>
<stop offset="1" stop-color="#EAE8E8" stop-opacity="0.99"/>
</radialGradient>
<linearGradient id="paint1_linear" x1="98.5" y1="11" x2="98.5" y2="29" gradientUnits="userSpaceOnUse">
<stop stop-color="#C4C4C4"/>
<stop offset="1" stop-color="#2E2D2D"/>
</linearGradient>
<linearGradient id="paint2_linear" x1="58.5" y1="2" x2="58.5" y2="20" gradientUnits="userSpaceOnUse">
<stop stop-color="#C4C4C4"/>
<stop offset="1" stop-color="#2E2D2D"/>
</linearGradient>
<linearGradient id="paint3_linear" x1="15.5" y1="11" x2="15.5" y2="29" gradientUnits="userSpaceOnUse">
<stop stop-color="#C4C4C4"/>
<stop offset="1" stop-color="#4F4F4F"/>
</linearGradient>
</defs>
</svg>
