<svg width="93" height="125" viewBox="0 0 93 125" fill="none" xmlns="http://www.w3.org/2000/svg">
<g filter="url(#filter0_di)">
<path d="M13 35.9777C13 29.6899 15.8994 23.6555 21.186 20.2513C40.9691 7.51229 54.8781 7.77222 74.6236 20.2487C80.0139 23.6546 83 29.7588 83 36.135V89.835C83 96.2176 80.0178 102.343 74.5812 105.687C56.018 117.105 42.1794 117.092 22.0996 105.648C16.2898 102.337 13 95.9741 13 89.287V35.9777Z" fill="url(#paint0_angular)"/>
</g>
<g filter="url(#filter1_d)">
<path d="M28 89.2684C28 86.911 29.911 85 32.2684 85H63.6545C66.0545 85 68 86.9455 68 89.3455C68 90.3694 67.6467 91.3683 66.9504 92.119C56.3002 103.6 40.6829 103.604 29.1516 92.13C28.3937 91.3759 28 90.3376 28 89.2684Z" fill="#2E2D2D"/>
</g>
<rect x="23" y="42" width="12" height="3" rx="1.5" fill="#4F4F4F"/>
<rect x="61" y="42" width="12" height="3" rx="1.5" fill="#4F4F4F"/>
<circle cx="29" cy="53" r="3" fill="url(#paint1_radial)"/>
<circle cx="67" cy="53" r="3" fill="url(#paint2_radial)"/>
<g filter="url(#filter2_f)">
<path d="M30 88.862C30 88.1098 30.6098 87.5 31.3621 87.5H64.638C65.3902 87.5 66 88.1098 66 88.862C66 89.2663 65.8321 89.6498 65.4615 89.8113C60.6752 91.8962 35.3248 91.8962 30.5385 89.8113C30.1679 89.6498 30 89.2663 30 88.862Z" fill="white"/>
</g>
<path d="M41.0922 99.278C41.2508 99.4296 41.4427 99.543 41.6534 99.6041C46.6077 101.041 51.5159 100.474 54.2393 99.803C54.5204 99.7338 54.7704 99.5788 54.9657 99.3651C55.5367 98.7406 55.4955 97.7605 54.7807 97.3076C50.971 94.8936 45.0035 94.8975 41.2008 97.3194C40.5115 97.7583 40.5016 98.7133 41.0922 99.278Z" fill="url(#paint3_linear)"/>
<g filter="url(#filter3_df)">
<path d="M16.3497 14.875C20.7597 21.4137 25.2476 28.1971 21.7454 32.9821C18.8004 37.006 13.8975 37.006 10.9589 32.9821C7.61571 28.4044 13.8952 20.9107 16.3497 14.875Z" fill="url(#paint4_linear)"/>
</g>
<g filter="url(#filter4_f)">
<path d="M16.3873 16.5C19.6948 22.0327 23.0607 27.7726 20.4341 31.8214C18.2253 35.2262 14.5481 35.2262 12.3442 31.8214C9.83678 27.948 14.5464 21.6071 16.3873 16.5Z" fill="url(#paint5_linear)"/>
</g>
<g filter="url(#filter5_f)">
<path d="M16.4249 18.125C18.6298 21.6458 20.8738 25.2984 19.1227 27.875C17.6502 30.0417 15.1988 30.0417 13.7294 27.875C12.0579 25.4101 15.1976 21.375 16.4249 18.125Z" fill="url(#paint6_linear)"/>
</g>
<g filter="url(#filter6_df)">
<path d="M76.9075 30C79.6213 34.0238 82.3832 38.1982 80.228 41.1429C78.4156 43.619 75.3985 43.619 73.5901 41.1429C71.5327 38.3258 75.397 33.7143 76.9075 30Z" fill="url(#paint7_linear)"/>
</g>
<g filter="url(#filter7_f)">
<path d="M76.9307 31C78.966 34.4048 81.0374 37.937 79.421 40.4286C78.0617 42.5238 75.7989 42.5238 74.4426 40.4286C72.8996 38.0449 75.7978 34.1429 76.9307 31Z" fill="url(#paint8_linear)"/>
</g>
<g filter="url(#filter8_f)">
<path d="M76.9538 32C78.3107 34.1667 79.6916 36.4144 78.614 38C77.7078 39.3333 76.1992 39.3333 75.295 38C74.2664 36.4831 76.1985 34 76.9538 32Z" fill="url(#paint9_linear)"/>
</g>
<defs>
<filter id="filter0_di" x="3" y="0.793945" width="90" height="128.447" filterUnits="userSpaceOnUse" color-interpolation-filters="sRGB">
<feFlood flood-opacity="0" result="BackgroundImageFix"/>
<feColorMatrix in="SourceAlpha" type="matrix" values="0 0 0 0 0 0 0 0 0 0 0 0 0 0 0 0 0 0 127 0"/>
<feOffset/>
<feGaussianBlur stdDeviation="5"/>
<feColorMatrix type="matrix" values="0 0 0 0 0 0 0 0 0 0 0 0 0 0 0 0 0 0 0.5 0"/>
<feBlend mode="normal" in2="BackgroundImageFix" result="effect1_dropShadow"/>
<feBlend mode="normal" in="SourceGraphic" in2="effect1_dropShadow" result="shape"/>
<feColorMatrix in="SourceAlpha" type="matrix" values="0 0 0 0 0 0 0 0 0 0 0 0 0 0 0 0 0 0 127 0" result="hardAlpha"/>
<feOffset dy="20"/>
<feGaussianBlur stdDeviation="7.5"/>
<feComposite in2="hardAlpha" operator="arithmetic" k2="-1" k3="1"/>
<feColorMatrix type="matrix" values="0 0 0 0 0 0 0 0 0 0 0 0 0 0 0 0 0 0 0.25 0"/>
<feBlend mode="normal" in2="shape" result="effect2_innerShadow"/>
</filter>
<filter id="filter1_d" x="27" y="84" width="42" height="17.7327" filterUnits="userSpaceOnUse" color-interpolation-filters="sRGB">
<feFlood flood-opacity="0" result="BackgroundImageFix"/>
<feColorMatrix in="SourceAlpha" type="matrix" values="0 0 0 0 0 0 0 0 0 0 0 0 0 0 0 0 0 0 127 0"/>
<feOffset/>
<feGaussianBlur stdDeviation="0.5"/>
<feColorMatrix type="matrix" values="0 0 0 0 0 0 0 0 0 0 0 0 0 0 0 0 0 0 0.25 0"/>
<feBlend mode="normal" in2="BackgroundImageFix" result="effect1_dropShadow"/>
<feBlend mode="normal" in="SourceGraphic" in2="effect1_dropShadow" result="shape"/>
</filter>
<filter id="filter2_f" x="28" y="85.5" width="40" height="7.875" filterUnits="userSpaceOnUse" color-interpolation-filters="sRGB">
<feFlood flood-opacity="0" result="BackgroundImageFix"/>
<feBlend mode="normal" in="SourceGraphic" in2="BackgroundImageFix" result="shape"/>
<feGaussianBlur stdDeviation="1" result="effect1_foregroundBlur"/>
</filter>
<filter id="filter3_df" x="0" y="5.875" width="33" height="41.125" filterUnits="userSpaceOnUse" color-interpolation-filters="sRGB">
<feFlood flood-opacity="0" result="BackgroundImageFix"/>
<feColorMatrix in="SourceAlpha" type="matrix" values="0 0 0 0 0 0 0 0 0 0 0 0 0 0 0 0 0 0 127 0"/>
<feOffset dy="1"/>
<feGaussianBlur stdDeviation="5"/>
<feColorMatrix type="matrix" values="0 0 0 0 0 0 0 0 0 0 0 0 0 0 0 0 0 0 0.25 0"/>
<feBlend mode="normal" in2="BackgroundImageFix" result="effect1_dropShadow"/>
<feBlend mode="normal" in="SourceGraphic" in2="effect1_dropShadow" result="shape"/>
<feGaussianBlur stdDeviation="0.5" result="effect2_foregroundBlur"/>
</filter>
<filter id="filter4_f" x="11.125" y="16" width="10.75" height="18.875" filterUnits="userSpaceOnUse" color-interpolation-filters="sRGB">
<feFlood flood-opacity="0" result="BackgroundImageFix"/>
<feBlend mode="normal" in="SourceGraphic" in2="BackgroundImageFix" result="shape"/>
<feGaussianBlur stdDeviation="0.25" result="effect1_foregroundBlur"/>
</filter>
<filter id="filter5_f" x="12.75" y="17.625" width="7.5" height="12.375" filterUnits="userSpaceOnUse" color-interpolation-filters="sRGB">
<feFlood flood-opacity="0" result="BackgroundImageFix"/>
<feBlend mode="normal" in="SourceGraphic" in2="BackgroundImageFix" result="shape"/>
<feGaussianBlur stdDeviation="0.25" result="effect1_foregroundBlur"/>
</filter>
<filter id="filter6_df" x="63" y="21" width="28" height="33" filterUnits="userSpaceOnUse" color-interpolation-filters="sRGB">
<feFlood flood-opacity="0" result="BackgroundImageFix"/>
<feColorMatrix in="SourceAlpha" type="matrix" values="0 0 0 0 0 0 0 0 0 0 0 0 0 0 0 0 0 0 127 0"/>
<feOffset dy="1"/>
<feGaussianBlur stdDeviation="5"/>
<feColorMatrix type="matrix" values="0 0 0 0 0 0 0 0 0 0 0 0 0 0 0 0 0 0 0.25 0"/>
<feBlend mode="normal" in2="BackgroundImageFix" result="effect1_dropShadow"/>
<feBlend mode="normal" in="SourceGraphic" in2="effect1_dropShadow" result="shape"/>
<feGaussianBlur stdDeviation="0.5" result="effect2_foregroundBlur"/>
</filter>
<filter id="filter7_f" x="73.5" y="30.5" width="7" height="12" filterUnits="userSpaceOnUse" color-interpolation-filters="sRGB">
<feFlood flood-opacity="0" result="BackgroundImageFix"/>
<feBlend mode="normal" in="SourceGraphic" in2="BackgroundImageFix" result="shape"/>
<feGaussianBlur stdDeviation="0.25" result="effect1_foregroundBlur"/>
</filter>
<filter id="filter8_f" x="74.5" y="31.5" width="5" height="8" filterUnits="userSpaceOnUse" color-interpolation-filters="sRGB">
<feFlood flood-opacity="0" result="BackgroundImageFix"/>
<feBlend mode="normal" in="SourceGraphic" in2="BackgroundImageFix" result="shape"/>
<feGaussianBlur stdDeviation="0.25" result="effect1_foregroundBlur"/>
</filter>
<radialGradient id="paint0_angular" cx="0" cy="0" r="1" gradientUnits="userSpaceOnUse" gradientTransform="translate(48 70.0001) rotate(-90) scale(44 40.093)">
<stop stop-color="#9A9898"/>
<stop offset="1" stop-color="#EAE8E8" stop-opacity="0.99"/>
</radialGradient>
<radialGradient id="paint1_radial" cx="0" cy="0" r="1" gradientUnits="userSpaceOnUse" gradientTransform="translate(29 53) rotate(90) scale(3)">
<stop stop-color="#EBE3E3"/>
<stop offset="1" stop-color="#4F4D4D"/>
</radialGradient>
<radialGradient id="paint2_radial" cx="0" cy="0" r="1" gradientUnits="userSpaceOnUse" gradientTransform="translate(67 53) rotate(90) scale(3)">
<stop stop-color="#EBE3E3"/>
<stop offset="1" stop-color="#4F4D4D"/>
</radialGradient>
<linearGradient id="paint3_linear" x1="48" y1="100.5" x2="48" y2="95.5" gradientUnits="userSpaceOnUse">
<stop stop-color="#828282"/>
<stop offset="1" stop-color="#2E2D2D"/>
</linearGradient>
<linearGradient id="paint4_linear" x1="16.5" y1="14.875" x2="16.5" y2="36" gradientUnits="userSpaceOnUse">
<stop offset="0.00573561" stop-color="#2E2D2D"/>
<stop offset="1" stop-color="#828282"/>
</linearGradient>
<linearGradient id="paint5_linear" x1="16.5" y1="16.5" x2="16.5" y2="34.375" gradientUnits="userSpaceOnUse">
<stop offset="0.652182" stop-color="#C4C4C4" stop-opacity="0"/>
<stop offset="1" stop-color="white"/>
</linearGradient>
<linearGradient id="paint6_linear" x1="16.5" y1="18.125" x2="16.5" y2="29.5" gradientUnits="userSpaceOnUse">
<stop stop-color="#C4C4C4"/>
<stop offset="1" stop-color="#C4C4C4" stop-opacity="0"/>
</linearGradient>
<linearGradient id="paint7_linear" x1="77" y1="30" x2="77" y2="43" gradientUnits="userSpaceOnUse">
<stop offset="0.00573561" stop-color="#2E2D2D"/>
<stop offset="1" stop-color="#828282"/>
</linearGradient>
<linearGradient id="paint8_linear" x1="77" y1="31" x2="77" y2="42" gradientUnits="userSpaceOnUse">
<stop offset="0.652182" stop-color="#C4C4C4" stop-opacity="0"/>
<stop offset="1" stop-color="white"/>
</linearGradient>
<linearGradient id="paint9_linear" x1="77" y1="32" x2="77" y2="39" gradientUnits="userSpaceOnUse">
<stop stop-color="#C4C4C4"/>
<stop offset="1" stop-color="#C4C4C4" stop-opacity="0"/>
</linearGradient>
</defs>
</svg>
