<svg width="90" height="125" viewBox="0 0 90 125" fill="none" xmlns="http://www.w3.org/2000/svg">
<g filter="url(#filter0_di)">
<path d="M10 35.9777C10 29.6899 12.8994 23.6555 18.186 20.2513C37.9691 7.51229 51.8781 7.77222 71.6236 20.2487C77.0139 23.6546 80 29.7588 80 36.135V89.835C80 96.2176 77.0178 102.343 71.5812 105.687C53.018 117.105 39.1794 117.092 19.0996 105.648C13.2898 102.337 10 95.9741 10 89.287V35.9777Z" fill="url(#paint0_angular)"/>
</g>
<ellipse cx="26" cy="53.5" rx="5" ry="0.5" fill="#2E2D2D"/>
<ellipse cx="64" cy="53.5" rx="5" ry="0.5" fill="#2E2D2D"/>
<g filter="url(#filter1_d)">
<path d="M25 89.2684C25 86.911 26.911 85 29.2684 85H60.6545C63.0545 85 65 86.9455 65 89.3455C65 90.3694 64.6467 91.3683 63.9504 92.119C53.3002 103.6 37.6829 103.604 26.1516 92.13C25.3937 91.3759 25 90.3376 25 89.2684Z" fill="#2E2D2D"/>
</g>
<rect x="20" y="42" width="12" height="3" rx="1.5" fill="#4F4F4F"/>
<rect x="58" y="42" width="12" height="3" rx="1.5" fill="#4F4F4F"/>
<g filter="url(#filter2_f)">
<path d="M27 88.9018C27 88.1276 27.6276 87.5 28.4018 87.5H61.5727C62.361 87.5 63 88.139 63 88.9273C63 89.2949 62.8557 89.6525 62.5978 89.9144C51.8183 100.862 39.1697 100.862 27.4382 89.9145C27.1589 89.6537 27 89.2839 27 88.9018Z" fill="white"/>
</g>
<defs>
<filter id="filter0_di" x="0" y="0.793945" width="90" height="128.447" filterUnits="userSpaceOnUse" color-interpolation-filters="sRGB">
<feFlood flood-opacity="0" result="BackgroundImageFix"/>
<feColorMatrix in="SourceAlpha" type="matrix" values="0 0 0 0 0 0 0 0 0 0 0 0 0 0 0 0 0 0 127 0"/>
<feOffset/>
<feGaussianBlur stdDeviation="5"/>
<feColorMatrix type="matrix" values="0 0 0 0 0 0 0 0 0 0 0 0 0 0 0 0 0 0 0.5 0"/>
<feBlend mode="normal" in2="BackgroundImageFix" result="effect1_dropShadow"/>
<feBlend mode="normal" in="SourceGraphic" in2="effect1_dropShadow" result="shape"/>
<feColorMatrix in="SourceAlpha" type="matrix" values="0 0 0 0 0 0 0 0 0 0 0 0 0 0 0 0 0 0 127 0" result="hardAlpha"/>
<feOffset dy="20"/>
<feGaussianBlur stdDeviation="7.5"/>
<feComposite in2="hardAlpha" operator="arithmetic" k2="-1" k3="1"/>
<feColorMatrix type="matrix" values="0 0 0 0 0 0 0 0 0 0 0 0 0 0 0 0 0 0 0.25 0"/>
<feBlend mode="normal" in2="shape" result="effect2_innerShadow"/>
</filter>
<filter id="filter1_d" x="24" y="84" width="42" height="17.7327" filterUnits="userSpaceOnUse" color-interpolation-filters="sRGB">
<feFlood flood-opacity="0" result="BackgroundImageFix"/>
<feColorMatrix in="SourceAlpha" type="matrix" values="0 0 0 0 0 0 0 0 0 0 0 0 0 0 0 0 0 0 127 0"/>
<feOffset/>
<feGaussianBlur stdDeviation="0.5"/>
<feColorMatrix type="matrix" values="0 0 0 0 0 0 0 0 0 0 0 0 0 0 0 0 0 0 0.25 0"/>
<feBlend mode="normal" in2="BackgroundImageFix" result="effect1_dropShadow"/>
<feBlend mode="normal" in="SourceGraphic" in2="effect1_dropShadow" result="shape"/>
</filter>
<filter id="filter2_f" x="25" y="85.5" width="40" height="14.625" filterUnits="userSpaceOnUse" color-interpolation-filters="sRGB">
<feFlood flood-opacity="0" result="BackgroundImageFix"/>
<feBlend mode="normal" in="SourceGraphic" in2="BackgroundImageFix" result="shape"/>
<feGaussianBlur stdDeviation="1" result="effect1_foregroundBlur"/>
</filter>
<radialGradient id="paint0_angular" cx="0" cy="0" r="1" gradientUnits="userSpaceOnUse" gradientTransform="translate(45 70.0001) rotate(-90) scale(44 40.093)">
<stop stop-color="#9A9898"/>
<stop offset="1" stop-color="#EAE8E8" stop-opacity="0.99"/>
</radialGradient>
</defs>
</svg>
