<svg width="83" height="49" viewBox="0 0 83 49" fill="none" xmlns="http://www.w3.org/2000/svg">
<path d="M24 3.61818L59 0L83 12L48 16.1182L24 3.61818Z" fill="url(#paint0_linear)"/>
<path d="M48 16L83 12L73 42L23.999 48.9999C37 45.5 48 30 48 16Z" fill="url(#paint1_linear)"/>
<path d="M-0.00082239 16L23.9992 3.5L47.9992 16C47.984 32.3155 35 46 23.9992 49C13 46 -0.0428276 30.486 -0.00082239 16Z" fill="#C4C4C4"/>
<path d="M24 45C38 39.5 43 23.5 43 19L24 9V45Z" fill="#828282"/>
<defs>
<linearGradient id="paint0_linear" x1="50" y1="17.5" x2="75.5" y2="-33" gradientUnits="userSpaceOnUse">
<stop stop-color="#4F4F4F"/>
<stop offset="0.307188" stop-color="white" stop-opacity="0"/>
<stop offset="0.330058" stop-color="white" stop-opacity="0"/>
</linearGradient>
<linearGradient id="paint1_linear" x1="28" y1="49" x2="154.627" y2="92.2596" gradientUnits="userSpaceOnUse">
<stop offset="0.0371444" stop-color="#4F4F4F"/>
<stop offset="0.306918" stop-color="white" stop-opacity="0"/>
</linearGradient>
</defs>
</svg>
