<svg width="90" height="125" viewBox="0 0 90 125" fill="none" xmlns="http://www.w3.org/2000/svg">
<g filter="url(#filter0_di)">
<path d="M10 35.9777C10 29.6899 12.8994 23.6555 18.186 20.2513C37.9691 7.51229 51.8781 7.77222 71.6236 20.2487C77.0139 23.6546 80 29.7588 80 36.135V89.835C80 96.2176 77.0178 102.343 71.5812 105.687C53.018 117.105 39.1794 117.092 19.0996 105.648C13.2898 102.337 10 95.9741 10 89.287V35.9777Z" fill="url(#paint0_angular)"/>
</g>
<g filter="url(#filter1_i)">
<path d="M10.5497 21.0489C10.2006 13.8869 16.7759 7.93588 23.9402 8.23561C29.4066 8.46431 35.2793 7.93769 39.5 5.5C40.8761 4.70522 42.5252 3.44818 43.746 2.46446C44.6884 1.70509 46.0994 1.8941 46.8233 2.86397C47.5951 3.89807 48.5926 5.14419 49.5 6C53.5472 9.81698 60.1716 10.1816 66.2145 9.43579C73.0914 8.58705 80.1975 13.3073 80.3847 20.2338L80.9842 42.417C80.9945 42.7978 80.9063 43.1839 80.6496 43.4653C76.7265 47.7664 56.3118 48.488 46.6659 50.1737C45.5553 50.3678 44.4166 50.4304 43.297 50.2969C18.7796 47.3744 12.5913 46.6712 9 43C10.4002 34.7692 10.9132 28.5065 10.5497 21.0489Z" fill="url(#paint1_linear)"/>
<path d="M10.5497 21.0489C10.2006 13.8869 16.7759 7.93588 23.9402 8.23561C29.4066 8.46431 35.2793 7.93769 39.5 5.5C40.8761 4.70522 42.5252 3.44818 43.746 2.46446C44.6884 1.70509 46.0994 1.8941 46.8233 2.86397C47.5951 3.89807 48.5926 5.14419 49.5 6C53.5472 9.81698 60.1716 10.1816 66.2145 9.43579C73.0914 8.58705 80.1975 13.3073 80.3847 20.2338L80.9842 42.417C80.9945 42.7978 80.9063 43.1839 80.6496 43.4653C76.7265 47.7664 56.3118 48.488 46.6659 50.1737C45.5553 50.3678 44.4166 50.4304 43.297 50.2969C18.7796 47.3744 12.5913 46.6712 9 43C10.4002 34.7692 10.9132 28.5065 10.5497 21.0489Z" fill="url(#paint2_linear)"/>
</g>
<rect x="20" y="56" width="12" height="3" rx="1.5" fill="#4F4F4F"/>
<rect x="60" y="56" width="12" height="3" rx="1.5" fill="#4F4F4F"/>
<circle cx="25" cy="67" r="3" fill="url(#paint3_radial)"/>
<circle cx="65" cy="67" r="3" fill="url(#paint4_radial)"/>
<g filter="url(#filter2_d)">
<path d="M60 94.1441C60 95.2708 59.3285 96.2966 58.2835 96.7177C48.274 100.752 41.7829 100.605 31.7291 96.6947C30.6803 96.2868 30 95.2664 30 94.141V94.141C30 92.1648 32.0064 90.8247 33.8761 91.4648C42.0807 94.2736 47.9138 94.1746 56.1067 91.427C57.9938 90.7941 60 92.1536 60 94.1441V94.1441Z" fill="#4F4F4F"/>
</g>
<g filter="url(#filter3_f)">
<path d="M58.0068 94.1681C58.0068 94.3658 57.8812 94.5444 57.6962 94.6142C47.5036 98.4555 42.0215 98.4569 32.3117 94.6177C32.1294 94.5456 32.0068 94.368 32.0068 94.172V94.172C32.0068 93.8418 32.3357 93.6115 32.6482 93.718C42.0567 96.9227 47.9598 96.9223 57.3692 93.7167C57.6799 93.6109 58.0068 93.8398 58.0068 94.1681V94.1681Z" fill="black"/>
</g>
<defs>
<filter id="filter0_di" x="0" y="0.793945" width="90" height="128.447" filterUnits="userSpaceOnUse" color-interpolation-filters="sRGB">
<feFlood flood-opacity="0" result="BackgroundImageFix"/>
<feColorMatrix in="SourceAlpha" type="matrix" values="0 0 0 0 0 0 0 0 0 0 0 0 0 0 0 0 0 0 127 0"/>
<feOffset/>
<feGaussianBlur stdDeviation="5"/>
<feColorMatrix type="matrix" values="0 0 0 0 0 0 0 0 0 0 0 0 0 0 0 0 0 0 0.5 0"/>
<feBlend mode="normal" in2="BackgroundImageFix" result="effect1_dropShadow"/>
<feBlend mode="normal" in="SourceGraphic" in2="effect1_dropShadow" result="shape"/>
<feColorMatrix in="SourceAlpha" type="matrix" values="0 0 0 0 0 0 0 0 0 0 0 0 0 0 0 0 0 0 127 0" result="hardAlpha"/>
<feOffset dy="20"/>
<feGaussianBlur stdDeviation="7.5"/>
<feComposite in2="hardAlpha" operator="arithmetic" k2="-1" k3="1"/>
<feColorMatrix type="matrix" values="0 0 0 0 0 0 0 0 0 0 0 0 0 0 0 0 0 0 0.25 0"/>
<feBlend mode="normal" in2="shape" result="effect2_innerShadow"/>
</filter>
<filter id="filter1_i" x="4" y="1.99707" width="76.985" height="53.3708" filterUnits="userSpaceOnUse" color-interpolation-filters="sRGB">
<feFlood flood-opacity="0" result="BackgroundImageFix"/>
<feBlend mode="normal" in="SourceGraphic" in2="BackgroundImageFix" result="shape"/>
<feColorMatrix in="SourceAlpha" type="matrix" values="0 0 0 0 0 0 0 0 0 0 0 0 0 0 0 0 0 0 127 0" result="hardAlpha"/>
<feOffset dx="-5" dy="5"/>
<feGaussianBlur stdDeviation="2.5"/>
<feComposite in2="hardAlpha" operator="arithmetic" k2="-1" k3="1"/>
<feColorMatrix type="matrix" values="0 0 0 0 0 0 0 0 0 0 0 0 0 0 0 0 0 0 0.25 0"/>
<feBlend mode="normal" in2="shape" result="effect1_innerShadow"/>
</filter>
<filter id="filter2_d" x="29" y="90.2702" width="32" height="10.4153" filterUnits="userSpaceOnUse" color-interpolation-filters="sRGB">
<feFlood flood-opacity="0" result="BackgroundImageFix"/>
<feColorMatrix in="SourceAlpha" type="matrix" values="0 0 0 0 0 0 0 0 0 0 0 0 0 0 0 0 0 0 127 0"/>
<feOffset/>
<feGaussianBlur stdDeviation="0.5"/>
<feColorMatrix type="matrix" values="0 0 0 0 0 0 0 0 0 0 0 0 0 0 0 0 0 0 0.25 0"/>
<feBlend mode="normal" in2="BackgroundImageFix" result="effect1_dropShadow"/>
<feBlend mode="normal" in="SourceGraphic" in2="effect1_dropShadow" result="shape"/>
</filter>
<filter id="filter3_f" x="31.0068" y="92.6906" width="28" height="5.80551" filterUnits="userSpaceOnUse" color-interpolation-filters="sRGB">
<feFlood flood-opacity="0" result="BackgroundImageFix"/>
<feBlend mode="normal" in="SourceGraphic" in2="BackgroundImageFix" result="shape"/>
<feGaussianBlur stdDeviation="0.5" result="effect1_foregroundBlur"/>
</filter>
<radialGradient id="paint0_angular" cx="0" cy="0" r="1" gradientUnits="userSpaceOnUse" gradientTransform="translate(45 70.0001) rotate(-90) scale(44 40.093)">
<stop stop-color="#9A9898"/>
<stop offset="1" stop-color="#EAE8E8" stop-opacity="0.99"/>
</radialGradient>
<linearGradient id="paint1_linear" x1="79.5" y1="20" x2="45" y2="20" gradientUnits="userSpaceOnUse">
<stop stop-color="#A19F9F"/>
<stop offset="0.0552486" stop-color="#484444"/>
<stop offset="0.990691" stop-color="#5B5757" stop-opacity="0.63"/>
</linearGradient>
<linearGradient id="paint2_linear" x1="9" y1="26" x2="50" y2="26" gradientUnits="userSpaceOnUse">
<stop stop-color="#999595"/>
<stop offset="1" stop-color="#E7E5E5" stop-opacity="0"/>
</linearGradient>
<radialGradient id="paint3_radial" cx="0" cy="0" r="1" gradientUnits="userSpaceOnUse" gradientTransform="translate(25 67) rotate(90) scale(3)">
<stop stop-color="#EBE3E3"/>
<stop offset="1" stop-color="#4F4D4D"/>
</radialGradient>
<radialGradient id="paint4_radial" cx="0" cy="0" r="1" gradientUnits="userSpaceOnUse" gradientTransform="translate(65 67) rotate(90) scale(3)">
<stop stop-color="#EBE3E3"/>
<stop offset="1" stop-color="#4F4D4D"/>
</radialGradient>
</defs>
</svg>
