<svg width="82" height="44" viewBox="0 0 82 44" fill="none" xmlns="http://www.w3.org/2000/svg">
<path d="M0 19L35 12L65 12L30 19H0Z" fill="url(#paint0_linear)"/>
<path d="M30 19L65 12V36.8818L30 44V19Z" fill="url(#paint1_linear)"/>
<path d="M0 19H30V44H0V19Z" fill="#C4C4C4"/>
<path d="M17 7.00003L52 3.05176e-05L82 0L47 7.00003H17Z" fill="url(#paint2_linear)"/>
<path d="M47 7.00003L82 0V24.8818L47 32V7.00003Z" fill="url(#paint3_linear)"/>
<g filter="url(#filter0_d)">
<path d="M17 7H47V32H17V7Z" fill="#C4C4C4"/>
</g>
<defs>
<filter id="filter0_d" x="12" y="2" width="40" height="35" filterUnits="userSpaceOnUse" color-interpolation-filters="sRGB">
<feFlood flood-opacity="0" result="BackgroundImageFix"/>
<feColorMatrix in="SourceAlpha" type="matrix" values="0 0 0 0 0 0 0 0 0 0 0 0 0 0 0 0 0 0 127 0"/>
<feOffset/>
<feGaussianBlur stdDeviation="2.5"/>
<feColorMatrix type="matrix" values="0 0 0 0 0 0 0 0 0 0 0 0 0 0 0 0 0 0 0.25 0"/>
<feBlend mode="normal" in2="BackgroundImageFix" result="effect1_dropShadow"/>
<feBlend mode="normal" in="SourceGraphic" in2="effect1_dropShadow" result="shape"/>
</filter>
<linearGradient id="paint0_linear" x1="23" y1="18.6182" x2="23" y2="0.654587" gradientUnits="userSpaceOnUse">
<stop stop-color="#4F4F4F"/>
<stop offset="0.38832" stop-color="white" stop-opacity="0"/>
</linearGradient>
<linearGradient id="paint1_linear" x1="28.5" y1="42.2545" x2="64.9992" y2="42.4206" gradientUnits="userSpaceOnUse">
<stop offset="0.0297365" stop-color="#4F4F4F"/>
<stop offset="1" stop-color="white" stop-opacity="0"/>
</linearGradient>
<linearGradient id="paint2_linear" x1="40" y1="6.61821" x2="40" y2="-11.3454" gradientUnits="userSpaceOnUse">
<stop stop-color="#4F4F4F"/>
<stop offset="0.38832" stop-color="white" stop-opacity="0"/>
</linearGradient>
<linearGradient id="paint3_linear" x1="45.5" y1="30.2545" x2="81.9992" y2="30.4206" gradientUnits="userSpaceOnUse">
<stop offset="0.0297365" stop-color="#4F4F4F"/>
<stop offset="1" stop-color="white" stop-opacity="0"/>
</linearGradient>
</defs>
</svg>
