<svg width="37" height="111" viewBox="0 0 37 111" fill="none" xmlns="http://www.w3.org/2000/svg">
<path d="M34.5 26.5H36C36.2761 26.5 36.5 26.7239 36.5 27V30C36.5 30.2761 36.2761 30.5 36 30.5H34.5V26.5Z" fill="url(#paint0_linear)"/>
<path d="M2.5 30.5H1C0.723858 30.5 0.5 30.2761 0.5 30L0.5 27C0.5 26.7239 0.723858 26.5 1 26.5H2.5L2.5 30.5Z" fill="url(#paint1_linear)"/>
<path d="M31 26H34C34.5523 26 35 26.4477 35 27V30C35 30.5523 34.5523 31 34 31H31V26Z" fill="url(#paint2_linear)"/>
<path d="M6 31H3C2.44772 31 2 30.5523 2 30L2 27C2 26.4477 2.44772 26 3 26H6L6 31Z" fill="url(#paint3_linear)"/>
<ellipse cx="18.5" cy="103" rx="15.5" ry="4" fill="url(#paint4_linear)"/>
<path d="M5.81062 13.363C5.92262 6.64324 10.4676 0.366186 17.1837 0.117537C18.053 0.085354 18.9169 0.0858299 19.7874 0.118952C26.5162 0.37499 31.0776 6.65783 31.1898 13.3906L31.5 32.0001H5.5L5.81062 13.363Z" fill="url(#paint5_linear)"/>
<path d="M14.5 71.5C16 71 21 71 22.5 71.5V74.4018C22.5 74.7412 22.3267 75.0589 22.0008 75.154C20.4196 75.6154 16.5804 75.6154 14.9992 75.154C14.6733 75.0589 14.5 74.7412 14.5 74.4018V71.5Z" fill="#4F4F4F"/>
<path d="M15 62H22V101.197C22 101.395 21.9477 101.594 21.8046 101.73C20.5483 102.923 16.4517 102.923 15.1954 101.73C15.0523 101.594 15 101.395 15 101.197V62Z" fill="url(#paint6_linear)"/>
<g filter="url(#filter0_d)">
<path d="M4 46C6.5 65 30.5 65 33 46V48C29 67 8.5 67 4 48V46Z" fill="url(#paint7_linear)"/>
</g>
<path d="M14 74.5C16 74 21 74 23 74.5V79.3201C23 79.5796 22.9015 79.8349 22.6668 79.9455C21.0985 80.6848 15.9015 80.6848 14.3332 79.9455C14.0985 79.8349 14 79.5796 14 79.3201V74.5Z" fill="#4F4F4F"/>
<path d="M14.5 71.5C16 72.5 21 72.5 22.5 71.5V74.4017C22.5 74.7411 22.3267 75.0588 22.0008 75.1539C20.4196 75.6154 16.5804 75.6154 14.9992 75.1539C14.6733 75.0588 14.5 74.7412 14.5 74.4017V71.5Z" fill="#4F4F4F"/>
<path d="M14.5002 72C16.0002 73 21.0002 73 22.5002 72L22.7478 74.8463C22.7799 75.2153 22.6019 75.5692 22.2439 75.6644C20.5612 76.1119 16.4391 76.1119 14.7563 75.6644C14.3983 75.5692 14.2203 75.2153 14.2524 74.8463L14.5002 72Z" fill="url(#paint8_linear)"/>
<circle cx="13" cy="4" r="1" fill="#2E2D2D"/>
<circle cx="13" cy="7" r="1" fill="#2E2D2D"/>
<circle cx="13" cy="10" r="1" fill="#2E2D2D"/>
<circle cx="13" cy="13" r="1" fill="#2E2D2D"/>
<circle cx="13" cy="16" r="1" fill="#2E2D2D"/>
<circle cx="13" cy="19" r="1" fill="#2E2D2D"/>
<circle cx="13" cy="22" r="1" fill="#2E2D2D"/>
<circle cx="13" cy="25" r="1" fill="#2E2D2D"/>
<circle cx="16" cy="3" r="1" fill="#2E2D2D"/>
<circle cx="16" cy="6" r="1" fill="#2E2D2D"/>
<circle cx="16" cy="9" r="1" fill="#2E2D2D"/>
<circle cx="16" cy="12" r="1" fill="#2E2D2D"/>
<circle cx="16" cy="15" r="1" fill="#2E2D2D"/>
<circle cx="16" cy="18" r="1" fill="#2E2D2D"/>
<circle cx="16" cy="21" r="1" fill="#2E2D2D"/>
<circle cx="16" cy="24" r="1" fill="#2E2D2D"/>
<circle cx="19" cy="2" r="1" fill="#2E2D2D"/>
<circle cx="19" cy="5" r="1" fill="#2E2D2D"/>
<circle cx="19" cy="8" r="1" fill="#2E2D2D"/>
<circle cx="19" cy="11" r="1" fill="#2E2D2D"/>
<circle cx="19" cy="14" r="1" fill="#2E2D2D"/>
<circle cx="19" cy="17" r="1" fill="#2E2D2D"/>
<circle cx="19" cy="20" r="1" fill="#2E2D2D"/>
<circle cx="19" cy="23" r="1" fill="#2E2D2D"/>
<circle cx="22" cy="3" r="1" fill="#2E2D2D"/>
<circle cx="22" cy="6" r="1" fill="#2E2D2D"/>
<circle cx="22" cy="9" r="1" fill="#2E2D2D"/>
<circle cx="22" cy="12" r="1" fill="#2E2D2D"/>
<circle cx="22" cy="15" r="1" fill="#2E2D2D"/>
<circle cx="22" cy="18" r="1" fill="#2E2D2D"/>
<circle cx="22" cy="21" r="1" fill="#2E2D2D"/>
<circle cx="22" cy="24" r="1" fill="#2E2D2D"/>
<circle cx="25" cy="4" r="1" fill="#2E2D2D"/>
<circle cx="25" cy="7" r="1" fill="#2E2D2D"/>
<circle cx="25" cy="10" r="1" fill="#2E2D2D"/>
<circle cx="25" cy="13" r="1" fill="#2E2D2D"/>
<circle cx="25" cy="16" r="1" fill="#2E2D2D"/>
<circle cx="25" cy="19" r="1" fill="#2E2D2D"/>
<circle cx="25" cy="22" r="1" fill="#2E2D2D"/>
<circle cx="25" cy="25" r="1" fill="#2E2D2D"/>
<ellipse cx="27.75" cy="6" rx="0.75" ry="1" fill="#2E2D2D"/>
<ellipse cx="27.75" cy="9" rx="0.75" ry="1" fill="#2E2D2D"/>
<ellipse cx="27.75" cy="12" rx="0.75" ry="1" fill="#2E2D2D"/>
<ellipse cx="27.75" cy="15" rx="0.75" ry="1" fill="#2E2D2D"/>
<ellipse cx="27.75" cy="18" rx="0.75" ry="1" fill="#2E2D2D"/>
<ellipse cx="27.75" cy="21" rx="0.75" ry="1" fill="#2E2D2D"/>
<ellipse cx="27.75" cy="24" rx="0.75" ry="1" fill="#2E2D2D"/>
<ellipse cx="27.75" cy="27" rx="0.75" ry="1" fill="#2E2D2D"/>
<ellipse cx="10.25" cy="6" rx="0.75" ry="1" fill="#2E2D2D"/>
<ellipse cx="10.25" cy="9" rx="0.75" ry="1" fill="#2E2D2D"/>
<ellipse cx="10.25" cy="12" rx="0.75" ry="1" fill="#2E2D2D"/>
<ellipse cx="10.25" cy="15" rx="0.75" ry="1" fill="#2E2D2D"/>
<ellipse cx="10.25" cy="18" rx="0.75" ry="1" fill="#2E2D2D"/>
<ellipse cx="10.25" cy="21" rx="0.75" ry="1" fill="#2E2D2D"/>
<ellipse cx="10.25" cy="24" rx="0.75" ry="1" fill="#2E2D2D"/>
<ellipse cx="10.25" cy="27" rx="0.75" ry="1" fill="#2E2D2D"/>
<ellipse cx="30.0499" cy="10" rx="0.65" ry="1" fill="#2E2D2D"/>
<ellipse cx="30.0499" cy="13" rx="0.65" ry="1" fill="#2E2D2D"/>
<ellipse cx="30.0499" cy="16" rx="0.65" ry="1" fill="#2E2D2D"/>
<ellipse cx="30.0499" cy="19" rx="0.65" ry="1" fill="#2E2D2D"/>
<ellipse cx="30.0499" cy="22" rx="0.65" ry="1" fill="#2E2D2D"/>
<ellipse cx="30.0499" cy="25" rx="0.65" ry="1" fill="#2E2D2D"/>
<ellipse cx="30.0499" cy="28" rx="0.65" ry="1" fill="#2E2D2D"/>
<ellipse cx="7.9498" cy="10" rx="0.65" ry="1" fill="#2E2D2D"/>
<ellipse cx="7.9498" cy="13" rx="0.65" ry="1" fill="#2E2D2D"/>
<ellipse cx="7.9498" cy="16" rx="0.65" ry="1" fill="#2E2D2D"/>
<ellipse cx="7.9498" cy="19" rx="0.65" ry="1" fill="#2E2D2D"/>
<ellipse cx="7.9498" cy="22" rx="0.65" ry="1" fill="#2E2D2D"/>
<ellipse cx="7.9498" cy="25" rx="0.65" ry="1" fill="#2E2D2D"/>
<ellipse cx="7.9498" cy="28" rx="0.65" ry="1" fill="#2E2D2D"/>
<ellipse cx="6.4" cy="12" rx="0.4" ry="1" fill="#2E2D2D"/>
<ellipse cx="6.4" cy="15" rx="0.4" ry="1" fill="#2E2D2D"/>
<ellipse cx="6.4" cy="18" rx="0.4" ry="1" fill="#2E2D2D"/>
<ellipse cx="6.4" cy="21" rx="0.4" ry="1" fill="#2E2D2D"/>
<ellipse cx="6.4" cy="24" rx="0.4" ry="1" fill="#2E2D2D"/>
<ellipse cx="6.4" cy="27" rx="0.4" ry="1" fill="#2E2D2D"/>
<path d="M5.02855 30.7129C5.01004 29.6026 5.32977 28.4788 6.19289 27.7803C11.597 23.4066 25.403 23.4066 30.8071 27.7802C31.6702 28.4788 31.99 29.6026 31.9715 30.7128L31.7166 46.0018C31.5964 53.2153 25.7145 59 18.5 59C11.2855 59 5.40359 53.2153 5.28336 46.0018L5.02855 30.7129Z" fill="url(#paint9_linear)"/>
<path d="M14 74.5C16 75.5 21 75.5 23 74.5V79.3201C23 79.5796 22.9015 79.8349 22.6668 79.9455C21.0985 80.6848 15.9015 80.6848 14.3332 79.9455C14.0985 79.8349 14 79.5796 14 79.3201V74.5Z" fill="#4F4F4F"/>
<path d="M14 75C16 76 21 76 23 75V79.8201C23 80.0796 22.9015 80.3349 22.6668 80.4455C21.0985 81.1848 15.9015 81.1848 14.3332 80.4455C14.0985 80.3349 14 80.0796 14 79.8201V75Z" fill="url(#paint10_linear)"/>
<path d="M5.03444 35.7221C5.01212 34.6062 5.33176 33.4756 6.20009 32.7744C11.6069 28.4085 25.3931 28.4085 30.7999 32.7744C31.6682 33.4756 31.9879 34.6062 31.9656 35.7221L31.7599 46.0026C31.6155 53.2225 25.7214 59 18.5 59C11.2786 59 5.38445 53.2225 5.24005 46.0026L5.03444 35.7221Z" fill="url(#paint11_linear)"/>
<path d="M5.04125 39.7326C5.01453 38.6103 5.33404 37.4719 6.20834 36.7678C11.6181 32.4107 25.3819 32.4107 30.7917 36.7678C31.666 37.4719 31.9855 38.6103 31.9587 39.7326L31.8094 46.0037C31.6374 53.2309 25.7292 59 18.5 59C11.2708 59 5.36264 53.2309 5.19056 46.0037L5.04125 39.7326Z" fill="url(#paint12_linear)"/>
<path d="M5.04125 39.7326C5.01453 38.6103 5.33404 37.4719 6.20834 36.7678C11.6181 32.4107 25.3819 32.4107 30.7917 36.7678C31.666 37.4719 31.9855 38.6103 31.9587 39.7326L31.8094 46.0037C31.6374 53.2309 25.7292 59 18.5 59C11.2708 59 5.36264 53.2309 5.19056 46.0037L5.04125 39.7326Z" fill="url(#paint13_linear)"/>
<path d="M3.00088 31H4.2V47C6.2 65.5 30.3 66.5 32.8 47V31H34.0009C34.2621 37.5415 34.4311 42.5573 34.438 47.6544C34.4497 56.2614 27.2543 63 18.6472 63C9.922 63 2.69045 56.0828 2.67347 47.3576C2.66371 42.3444 2.76913 37.3889 3.00088 31Z" fill="url(#paint14_linear)"/>
<path d="M3 103C6 109 33 107.5 34 103V105.397C34 107.028 33.2017 108.583 31.6517 109.093C25.4313 111.137 12.4418 111.136 5.64596 109.088C3.94323 108.575 3 106.906 3 105.128V103Z" fill="url(#paint15_linear)"/>
<defs>
<filter id="filter0_d" x="2" y="45" width="33" height="20.25" filterUnits="userSpaceOnUse" color-interpolation-filters="sRGB">
<feFlood flood-opacity="0" result="BackgroundImageFix"/>
<feColorMatrix in="SourceAlpha" type="matrix" values="0 0 0 0 0 0 0 0 0 0 0 0 0 0 0 0 0 0 127 0"/>
<feOffset dy="1"/>
<feGaussianBlur stdDeviation="1"/>
<feColorMatrix type="matrix" values="0 0 0 0 0 0 0 0 0 0 0 0 0 0 0 0 0 0 0.5 0"/>
<feBlend mode="normal" in2="BackgroundImageFix" result="effect1_dropShadow"/>
<feBlend mode="normal" in="SourceGraphic" in2="effect1_dropShadow" result="shape"/>
</filter>
<linearGradient id="paint0_linear" x1="35.5" y1="26.5" x2="35.5" y2="30.5" gradientUnits="userSpaceOnUse">
<stop stop-color="#4F4F4F"/>
<stop offset="0.215692" stop-color="#A09E9E" stop-opacity="0.87271"/>
<stop offset="0.409074" stop-color="#6F6E6E"/>
<stop offset="0.619031" stop-color="#A09E9E" stop-opacity="0.380969"/>
<stop offset="0.817937" stop-color="#6F6E6E"/>
<stop offset="1" stop-color="#A09E9E"/>
</linearGradient>
<linearGradient id="paint1_linear" x1="1.5" y1="30.5" x2="1.5" y2="26.5" gradientUnits="userSpaceOnUse">
<stop stop-color="#4F4F4F"/>
<stop offset="0.215692" stop-color="#A09E9E" stop-opacity="0.87271"/>
<stop offset="0.409074" stop-color="#6F6E6E"/>
<stop offset="0.619031" stop-color="#A09E9E" stop-opacity="0.380969"/>
<stop offset="0.817937" stop-color="#6F6E6E"/>
<stop offset="1" stop-color="#A09E9E"/>
</linearGradient>
<linearGradient id="paint2_linear" x1="33" y1="26" x2="33" y2="31" gradientUnits="userSpaceOnUse">
<stop stop-color="#4F4F4F"/>
<stop offset="0.254369" stop-color="#A09E9E"/>
<stop offset="0.536153" stop-color="#E9E9E9"/>
<stop offset="0.784786" stop-color="#A09E9E"/>
<stop offset="1" stop-color="#4F4F4F"/>
</linearGradient>
<linearGradient id="paint3_linear" x1="4" y1="31" x2="4" y2="26" gradientUnits="userSpaceOnUse">
<stop stop-color="#4F4F4F"/>
<stop offset="0.254369" stop-color="#A09E9E"/>
<stop offset="0.536153" stop-color="#E9E9E9"/>
<stop offset="0.784786" stop-color="#A09E9E"/>
<stop offset="1" stop-color="#4F4F4F"/>
</linearGradient>
<linearGradient id="paint4_linear" x1="18.5" y1="99" x2="18.5" y2="107" gradientUnits="userSpaceOnUse">
<stop stop-color="#C4C4C4"/>
<stop offset="1" stop-color="#C4C4C4" stop-opacity="0"/>
</linearGradient>
<linearGradient id="paint5_linear" x1="5" y1="16" x2="31" y2="16" gradientUnits="userSpaceOnUse">
<stop stop-color="#C4C4C4"/>
<stop offset="0.221218" stop-color="#C4C4C4"/>
<stop offset="0.580354" stop-color="white"/>
<stop offset="0.823462" stop-color="#C4C4C4"/>
<stop offset="0.994743" stop-color="#C4C4C4"/>
</linearGradient>
<linearGradient id="paint6_linear" x1="15" y1="82" x2="22" y2="82" gradientUnits="userSpaceOnUse">
<stop stop-color="#4F4F4F"/>
<stop offset="0.14939" stop-color="#E9E9E9"/>
<stop offset="0.342772" stop-color="#C6C2C2"/>
<stop offset="0.503002" stop-color="#4F4F4F"/>
<stop offset="0.685333" stop-color="#C4C4C4"/>
<stop offset="0.856613" stop-color="#E9E9E9"/>
<stop offset="1" stop-color="#4F4F4F"/>
</linearGradient>
<linearGradient id="paint7_linear" x1="18.5" y1="46" x2="18.5" y2="62.25" gradientUnits="userSpaceOnUse">
<stop stop-color="#4F4F4F"/>
<stop offset="1" stop-color="#A09E9E"/>
</linearGradient>
<linearGradient id="paint8_linear" x1="14.5" y1="81.8462" x2="22.5" y2="81.8462" gradientUnits="userSpaceOnUse">
<stop stop-color="#828282"/>
<stop offset="0.464326" stop-color="#C4C4C4"/>
<stop offset="0.679808" stop-color="#E9E9E9"/>
<stop offset="1" stop-color="#828282"/>
</linearGradient>
<linearGradient id="paint9_linear" x1="5" y1="33" x2="32" y2="33" gradientUnits="userSpaceOnUse">
<stop stop-color="#6F6E6E"/>
<stop offset="0.226743" stop-color="white"/>
<stop offset="0.514052" stop-color="white" stop-opacity="0.99"/>
<stop offset="0.580354" stop-color="white" stop-opacity="0.99"/>
<stop offset="0.823462" stop-color="white"/>
<stop offset="1" stop-color="#6F6E6E"/>
</linearGradient>
<linearGradient id="paint10_linear" x1="14.3138" y1="89.7692" x2="22.686" y2="89.7692" gradientUnits="userSpaceOnUse">
<stop stop-color="#A09E9E"/>
<stop offset="0.370397" stop-color="#C4C4C4"/>
<stop offset="0.668757" stop-color="white"/>
<stop offset="1" stop-color="#A09E9E"/>
</linearGradient>
<linearGradient id="paint11_linear" x1="5" y1="36.7681" x2="32" y2="36.7681" gradientUnits="userSpaceOnUse">
<stop stop-color="#4F4F4F"/>
<stop offset="0.226743" stop-color="#6F6E6E"/>
<stop offset="0.486426" stop-color="#C6C2C2"/>
<stop offset="0.558254" stop-color="#C6C2C2"/>
<stop offset="0.823462" stop-color="#6F6E6E"/>
<stop offset="1" stop-color="#4F4F4F"/>
</linearGradient>
<linearGradient id="paint12_linear" x1="5" y1="39.7826" x2="32" y2="39.7826" gradientUnits="userSpaceOnUse">
<stop offset="0.098845" stop-color="#4F4F4F"/>
<stop offset="0.226743" stop-color="#EAE8E8" stop-opacity="0.99"/>
<stop offset="0.823462" stop-color="#EAE8E8" stop-opacity="0.99"/>
<stop offset="0.934344" stop-color="#4F4F4F"/>
</linearGradient>
<linearGradient id="paint13_linear" x1="18" y1="64.5" x2="18" y2="33" gradientUnits="userSpaceOnUse">
<stop stop-color="#828282"/>
<stop offset="0.270944" stop-color="#C4C4C4"/>
<stop offset="0.657707" stop-color="white" stop-opacity="0.517181"/>
<stop offset="0.9999" stop-color="white" stop-opacity="0.09"/>
<stop offset="1" stop-color="white" stop-opacity="0.51"/>
</linearGradient>
<linearGradient id="paint14_linear" x1="18.5555" y1="31" x2="18.5555" y2="63" gradientUnits="userSpaceOnUse">
<stop stop-color="#6F6E6E"/>
<stop offset="1" stop-color="#F6F6F6"/>
</linearGradient>
<linearGradient id="paint15_linear" x1="3" y1="106.754" x2="34" y2="106.754" gradientUnits="userSpaceOnUse">
<stop stop-color="#4F4F4F"/>
<stop offset="0.14939" stop-color="#E9E9E9"/>
<stop offset="0.342772" stop-color="#C6C2C2"/>
<stop offset="0.503002" stop-color="#4F4F4F"/>
<stop offset="0.685333" stop-color="#C4C4C4"/>
<stop offset="0.856613" stop-color="#E9E9E9"/>
<stop offset="1" stop-color="#4F4F4F"/>
</linearGradient>
</defs>
</svg>
