<svg width="90" height="125" viewBox="0 0 90 125" fill="none" xmlns="http://www.w3.org/2000/svg">
<g filter="url(#filter0_di)">
<path d="M10 35.9777C10 29.6899 12.8994 23.6555 18.186 20.2513C37.9691 7.51229 51.8781 7.77222 71.6236 20.2487C77.0139 23.6546 80 29.7588 80 36.135V89.835C80 96.2176 77.0178 102.343 71.5812 105.687C53.018 117.105 39.1794 117.092 19.0996 105.648C13.2898 102.337 10 95.9741 10 89.287V35.9777Z" fill="url(#paint0_angular)"/>
</g>
<rect x="19.7812" y="39.3447" width="12" height="3" rx="1.5" transform="rotate(-15 19.7812 39.3447)" fill="#4F4F4F"/>
<rect x="60.5586" y="36.7578" width="12" height="3" rx="1.5" transform="rotate(15 60.5586 36.7578)" fill="#4F4F4F"/>
<g filter="url(#filter1_d)">
<circle cx="25" cy="53" r="5" fill="white"/>
</g>
<g filter="url(#filter2_d)">
<circle cx="65" cy="53" r="5" fill="white"/>
</g>
<circle cx="27" cy="53" r="3" fill="url(#paint1_radial)"/>
<circle cx="67" cy="53" r="3" fill="url(#paint2_radial)"/>
<g filter="url(#filter3_d)">
<path d="M68.1844 82.9666C68.6771 83.9798 68.5217 85.1959 67.766 86.0316C60.528 94.0362 54.6259 96.7423 43.8745 97.6219C42.7529 97.7136 41.6949 97.0933 41.2029 96.0813V96.0813C40.3388 94.304 41.5573 92.2214 43.5186 91.9796C52.1255 90.9182 57.3281 88.2787 63.4949 82.2253C64.9154 80.8309 67.3141 81.1765 68.1844 82.9666V82.9666Z" fill="#4F4F4F"/>
</g>
<g filter="url(#filter4_f)">
<path d="M66.2616 83.5861C66.3481 83.7639 66.3132 83.9795 66.1773 84.1231C58.6903 92.0345 53.7606 94.4327 43.3495 95.2257C43.1541 95.2405 42.9662 95.1343 42.8805 94.9581V94.9581C42.7361 94.6612 42.9312 94.3103 43.2587 94.2693C53.1215 93.0376 58.4301 90.4561 65.4908 83.459C65.7239 83.2279 66.1181 83.2909 66.2616 83.5861V83.5861Z" fill="black"/>
</g>
<defs>
<filter id="filter0_di" x="0" y="0.793945" width="90" height="128.447" filterUnits="userSpaceOnUse" color-interpolation-filters="sRGB">
<feFlood flood-opacity="0" result="BackgroundImageFix"/>
<feColorMatrix in="SourceAlpha" type="matrix" values="0 0 0 0 0 0 0 0 0 0 0 0 0 0 0 0 0 0 127 0"/>
<feOffset/>
<feGaussianBlur stdDeviation="5"/>
<feColorMatrix type="matrix" values="0 0 0 0 0 0 0 0 0 0 0 0 0 0 0 0 0 0 0.5 0"/>
<feBlend mode="normal" in2="BackgroundImageFix" result="effect1_dropShadow"/>
<feBlend mode="normal" in="SourceGraphic" in2="effect1_dropShadow" result="shape"/>
<feColorMatrix in="SourceAlpha" type="matrix" values="0 0 0 0 0 0 0 0 0 0 0 0 0 0 0 0 0 0 127 0" result="hardAlpha"/>
<feOffset dy="20"/>
<feGaussianBlur stdDeviation="7.5"/>
<feComposite in2="hardAlpha" operator="arithmetic" k2="-1" k3="1"/>
<feColorMatrix type="matrix" values="0 0 0 0 0 0 0 0 0 0 0 0 0 0 0 0 0 0 0.25 0"/>
<feBlend mode="normal" in2="shape" result="effect2_innerShadow"/>
</filter>
<filter id="filter1_d" x="17" y="45" width="16" height="16" filterUnits="userSpaceOnUse" color-interpolation-filters="sRGB">
<feFlood flood-opacity="0" result="BackgroundImageFix"/>
<feColorMatrix in="SourceAlpha" type="matrix" values="0 0 0 0 0 0 0 0 0 0 0 0 0 0 0 0 0 0 127 0"/>
<feOffset/>
<feGaussianBlur stdDeviation="1.5"/>
<feColorMatrix type="matrix" values="0 0 0 0 0 0 0 0 0 0 0 0 0 0 0 0 0 0 0.25 0"/>
<feBlend mode="normal" in2="BackgroundImageFix" result="effect1_dropShadow"/>
<feBlend mode="normal" in="SourceGraphic" in2="effect1_dropShadow" result="shape"/>
</filter>
<filter id="filter2_d" x="57" y="45" width="16" height="16" filterUnits="userSpaceOnUse" color-interpolation-filters="sRGB">
<feFlood flood-opacity="0" result="BackgroundImageFix"/>
<feColorMatrix in="SourceAlpha" type="matrix" values="0 0 0 0 0 0 0 0 0 0 0 0 0 0 0 0 0 0 127 0"/>
<feOffset/>
<feGaussianBlur stdDeviation="1.5"/>
<feColorMatrix type="matrix" values="0 0 0 0 0 0 0 0 0 0 0 0 0 0 0 0 0 0 0.25 0"/>
<feBlend mode="normal" in2="BackgroundImageFix" result="effect1_dropShadow"/>
<feBlend mode="normal" in="SourceGraphic" in2="effect1_dropShadow" result="shape"/>
</filter>
<filter id="filter3_d" x="39.9207" y="80.3672" width="29.5474" height="18.2637" filterUnits="userSpaceOnUse" color-interpolation-filters="sRGB">
<feFlood flood-opacity="0" result="BackgroundImageFix"/>
<feColorMatrix in="SourceAlpha" type="matrix" values="0 0 0 0 0 0 0 0 0 0 0 0 0 0 0 0 0 0 127 0"/>
<feOffset/>
<feGaussianBlur stdDeviation="0.5"/>
<feColorMatrix type="matrix" values="0 0 0 0 0 0 0 0 0 0 0 0 0 0 0 0 0 0 0.25 0"/>
<feBlend mode="normal" in2="BackgroundImageFix" result="effect1_dropShadow"/>
<feBlend mode="normal" in="SourceGraphic" in2="effect1_dropShadow" result="shape"/>
</filter>
<filter id="filter4_f" x="41.8322" y="82.3188" width="25.4766" height="13.9082" filterUnits="userSpaceOnUse" color-interpolation-filters="sRGB">
<feFlood flood-opacity="0" result="BackgroundImageFix"/>
<feBlend mode="normal" in="SourceGraphic" in2="BackgroundImageFix" result="shape"/>
<feGaussianBlur stdDeviation="0.5" result="effect1_foregroundBlur"/>
</filter>
<radialGradient id="paint0_angular" cx="0" cy="0" r="1" gradientUnits="userSpaceOnUse" gradientTransform="translate(45 70.0001) rotate(-90) scale(44 40.093)">
<stop stop-color="#9A9898"/>
<stop offset="1" stop-color="#EAE8E8" stop-opacity="0.99"/>
</radialGradient>
<radialGradient id="paint1_radial" cx="0" cy="0" r="1" gradientUnits="userSpaceOnUse" gradientTransform="translate(27 53) rotate(90) scale(3)">
<stop stop-color="#EBE3E3"/>
<stop offset="1" stop-color="#4F4D4D"/>
</radialGradient>
<radialGradient id="paint2_radial" cx="0" cy="0" r="1" gradientUnits="userSpaceOnUse" gradientTransform="translate(67 53) rotate(90) scale(3)">
<stop stop-color="#EBE3E3"/>
<stop offset="1" stop-color="#4F4D4D"/>
</radialGradient>
</defs>
</svg>
