<svg width="129" height="114" viewBox="0 0 129 114" fill="none" xmlns="http://www.w3.org/2000/svg">
<path d="M27 54.566C27 49.7242 30.7514 45.636 35.2705 43.8981C46.7334 39.4897 61.1423 29.106 72.5 20L84.5 76.5C67.597 70.8657 51.9897 65.5553 37.4175 64.7406C31.8659 64.4302 27 60.1262 27 54.566Z" fill="url(#paint0_linear)"/>
<g filter="url(#filter0_i)">
<ellipse cx="94.27" cy="46.4287" rx="24.0611" ry="41.6193" transform="rotate(-15 94.27 46.4287)" fill="url(#paint1_linear)"/>
</g>
<g filter="url(#filter1_f)">
<path fill-rule="evenodd" clip-rule="evenodd" d="M92.2518 6.88626C90.1581 6.43628 88.0805 6.45204 86.0731 6.98992C74.3311 10.1362 69.4395 29.9554 75.1474 51.2574C80.8552 72.5594 95.0011 87.2775 106.743 84.1313C110.987 82.9942 114.336 79.6794 116.613 74.9038C114.185 80.3724 110.466 84.1976 105.69 85.4774C93.3479 88.7844 78.6209 73.8433 72.7962 52.1054C66.9716 30.3675 72.255 10.0645 84.597 6.75747C87.0826 6.09146 89.6649 6.16557 92.2518 6.88626Z" fill="white"/>
</g>
<ellipse cx="96.396" cy="45.892" rx="19.7244" ry="38.6747" transform="rotate(-15 96.396 45.892)" fill="url(#paint2_radial)"/>
<path d="M4.65133 54.0598C5.0182 53.4904 5.6064 53.1067 6.26162 52.9349L26.9995 47.5001C17.0011 54.0001 19.9982 63.9001 31.9982 65.4001L10.4434 71.7234C9.83052 71.9032 9.16896 71.8951 8.59235 71.6203C2.65238 68.7894 0.426536 60.6169 4.65133 54.0598Z" fill="url(#paint3_linear)"/>
<path d="M7.66052 51.0633C8.01823 50.4881 8.60705 50.1066 9.26226 49.9349L30.0001 44.5001C20.0017 51.0001 22.9989 64.9001 34.9989 66.4001L13.3224 72.5365C12.7172 72.7079 12.0645 72.7013 11.5072 72.4096C5.55438 69.2936 3.41048 57.897 7.66052 51.0633Z" fill="#C4C4C4"/>
<path d="M9.67827 50.9348C10.0114 50.1556 10.713 49.6081 11.5325 49.3921L31.9952 43.9999C21.9967 50.4999 24.9939 64.4999 36.9939 65.9999L15.7696 71.8076C14.895 72.047 13.9451 71.8898 13.2612 71.2943C6.9909 65.8345 7.11308 56.9351 9.67827 50.9348Z" fill="url(#paint4_linear)"/>
<path d="M23 69.5L40.5 65H42L41.1132 67.2171C41.0394 67.4015 41.0222 67.6037 41.0639 67.798L43.823 80.6742C43.9362 81.2022 43.831 81.7534 43.5315 82.2027L42.6893 83.466C42.2672 84.0992 42.241 84.9171 42.6217 85.576L53.8063 104.934C54.5051 106.143 54.2768 107.675 53.2557 108.628L48.0763 113.462C47.706 113.808 47.2183 114 46.7117 114H40.5L33 85.5L29 82.5L23 69.5Z" fill="url(#paint5_linear)"/>
<path d="M17.5 71.3L33.5 67L38.635 80.5377C38.864 81.1416 38.7874 81.819 38.4291 82.3564L37.6635 83.5048C37.2549 84.1176 37.2162 84.9055 37.5629 85.5554L47.8445 104.833C48.5166 106.094 48.2071 107.653 47.1045 108.561L40.5 114L28 85.5L24 82.5L17.5 71.3Z" fill="url(#paint6_linear)"/>
<path d="M75.2998 38.0001L90.9998 36.1001L93.9998 53.6001L79.4996 58.0001C78.1996 55.0001 75.5 44.5001 75.2998 38.0001Z" fill="url(#paint7_linear)"/>
<path d="M94.3275 53.6572C95.7251 53.2828 96.6916 51.9309 97.1482 50.1016C97.6061 48.2677 97.5613 45.9244 96.9127 43.5036C96.264 41.0829 95.1312 39.0311 93.8177 37.6718C92.5076 36.316 90.9946 35.6284 89.5971 36.0029C88.1996 36.3774 87.2331 37.7293 86.7764 39.5585C86.3185 41.3924 86.3633 43.7357 87.0119 46.1565C87.6606 48.5773 88.7934 50.629 90.107 51.9883C91.4171 53.3442 92.93 54.0317 94.3275 53.6572Z" fill="url(#paint8_linear)" stroke="url(#paint9_linear)" stroke-width="0.25"/>
<ellipse cx="92.6224" cy="44.6695" rx="3.64442" ry="6.96357" transform="rotate(-15 92.6224 44.6695)" fill="white"/>
<g filter="url(#filter2_i)">
<ellipse cx="92.8674" cy="44.5946" rx="2.9" ry="6.0514" transform="rotate(-15 92.8674 44.5946)" fill="#7F7C7C"/>
</g>
<path d="M32.9999 45C48.0093 38.3748 55.5 33 70.5 21.5C70.5 21.5 69.4807 25.4396 69 28C68.4905 30.714 68 35 68 35L66.9839 45.4397C66.7809 47.5258 65.2983 49.2639 63.2703 49.7933L28.0005 59C25.9995 54.5 26.9999 48.5 32.9999 45Z" fill="url(#paint10_linear)"/>
<path d="M37 71L40.5 70L42.5 74.85L39.5 75.8L37 71Z" fill="#C4C4C4"/>
<path d="M37 71L39.5 75.8L39 77.5L37 71Z" fill="#BCB5B5"/>
<path d="M39.5 75.8001L42.5 74.8L42 76.5001L39 77.5001L39.5 75.8001Z" fill="#7F7C7C"/>
<g filter="url(#filter3_f)">
<path d="M17.5 71.3L33.5 66.5L34.5 69.5L22 79L17.5 71.3Z" fill="#4F4F4F"/>
</g>
<path d="M30.6114 44.8516C31.4839 44.1118 32.6607 43.8527 33.8123 43.9871L34.6164 44.081C28.3426 47.8393 26.6341 53.044 28.2594 57.3566C29.8191 61.4951 34.4308 64.7572 40.8845 65.0959L36.994 65.8739C26.1971 64.9214 22.0895 52.0777 30.6114 44.8516Z" fill="#6F6E6E" stroke="url(#paint11_linear)" stroke-width="0.25"/>
<g filter="url(#filter4_f)">
<path d="M34 66.5L42 65L41 67.5L34.8 69L34 66.5Z" fill="#4F4F4F"/>
</g>
<path d="M5.49945 59.0001L26 53.0001C25.7 55.0001 26.13 57.4134 27.0086 59.2518L9.56984 63.9245C7.8198 64.3934 6.05662 63.2159 5.81924 61.4198L5.49945 59.0001Z" fill="url(#paint12_linear)"/>
<defs>
<filter id="filter0_i" x="60.2568" y="0" width="68.0263" height="102.857" filterUnits="userSpaceOnUse" color-interpolation-filters="sRGB">
<feFlood flood-opacity="0" result="BackgroundImageFix"/>
<feBlend mode="normal" in="SourceGraphic" in2="BackgroundImageFix" result="shape"/>
<feColorMatrix in="SourceAlpha" type="matrix" values="0 0 0 0 0 0 0 0 0 0 0 0 0 0 0 0 0 0 127 0" result="hardAlpha"/>
<feOffset dy="10"/>
<feGaussianBlur stdDeviation="5"/>
<feComposite in2="hardAlpha" operator="arithmetic" k2="-1" k3="1"/>
<feColorMatrix type="matrix" values="0 0 0 0 0 0 0 0 0 0 0 0 0 0 0 0 0 0 0.7 0"/>
<feBlend mode="normal" in2="shape" result="effect1_innerShadow"/>
</filter>
<filter id="filter1_f" x="67.4268" y="3.29907" width="52.186" height="85.6367" filterUnits="userSpaceOnUse" color-interpolation-filters="sRGB">
<feFlood flood-opacity="0" result="BackgroundImageFix"/>
<feBlend mode="normal" in="SourceGraphic" in2="BackgroundImageFix" result="shape"/>
<feGaussianBlur stdDeviation="1.5" result="effect1_foregroundBlur"/>
</filter>
<filter id="filter2_i" x="88.3" y="37.9988" width="8.9348" height="13.3915" filterUnits="userSpaceOnUse" color-interpolation-filters="sRGB">
<feFlood flood-opacity="0" result="BackgroundImageFix"/>
<feBlend mode="normal" in="SourceGraphic" in2="BackgroundImageFix" result="shape"/>
<feColorMatrix in="SourceAlpha" type="matrix" values="0 0 0 0 0 0 0 0 0 0 0 0 0 0 0 0 0 0 127 0" result="hardAlpha"/>
<feOffset dx="-0.2" dy="0.2"/>
<feGaussianBlur stdDeviation="0.25"/>
<feComposite in2="hardAlpha" operator="arithmetic" k2="-1" k3="1"/>
<feColorMatrix type="matrix" values="0 0 0 0 0 0 0 0 0 0 0 0 0 0 0 0 0 0 0.7 0"/>
<feBlend mode="normal" in2="shape" result="effect1_innerShadow"/>
</filter>
<filter id="filter3_f" x="16.5" y="65.5" width="19" height="14.5" filterUnits="userSpaceOnUse" color-interpolation-filters="sRGB">
<feFlood flood-opacity="0" result="BackgroundImageFix"/>
<feBlend mode="normal" in="SourceGraphic" in2="BackgroundImageFix" result="shape"/>
<feGaussianBlur stdDeviation="0.5" result="effect1_foregroundBlur"/>
</filter>
<filter id="filter4_f" x="33" y="64" width="10" height="6" filterUnits="userSpaceOnUse" color-interpolation-filters="sRGB">
<feFlood flood-opacity="0" result="BackgroundImageFix"/>
<feBlend mode="normal" in="SourceGraphic" in2="BackgroundImageFix" result="shape"/>
<feGaussianBlur stdDeviation="0.5" result="effect1_foregroundBlur"/>
</filter>
<linearGradient id="paint0_linear" x1="46.5" y1="38" x2="67.5" y2="106" gradientUnits="userSpaceOnUse">
<stop offset="0.260349" stop-color="#C4C4C4"/>
<stop offset="0.714157" stop-color="#6F6E6E"/>
</linearGradient>
<linearGradient id="paint1_linear" x1="119.916" y1="48.1981" x2="69.3918" y2="66.7537" gradientUnits="userSpaceOnUse">
<stop stop-color="#1F1F1F"/>
<stop offset="1" stop-color="#1E1D1D"/>
</linearGradient>
<radialGradient id="paint2_radial" cx="0" cy="0" r="1" gradientUnits="userSpaceOnUse" gradientTransform="translate(84.8774 42.9174) rotate(84.969) scale(51.0906 26.0566)">
<stop stop-color="#A09E9E"/>
<stop offset="1" stop-color="#F6F6F6"/>
</radialGradient>
<linearGradient id="paint3_linear" x1="13.6832" y1="50.9404" x2="18.6679" y2="69.5436" gradientUnits="userSpaceOnUse">
<stop stop-color="#828282"/>
<stop offset="1" stop-color="#2E2D2D"/>
</linearGradient>
<linearGradient id="paint4_linear" x1="17.5" y1="43.9999" x2="26.5" y2="72.9999" gradientUnits="userSpaceOnUse">
<stop stop-color="#828282"/>
<stop offset="0.46856" stop-color="#C4C4C4"/>
<stop offset="0.803777" stop-color="#444343"/>
<stop offset="1" stop-color="#C4C4C4"/>
</linearGradient>
<linearGradient id="paint5_linear" x1="39" y1="65" x2="39" y2="114" gradientUnits="userSpaceOnUse">
<stop stop-color="#4F4F4F"/>
<stop offset="1" stop-color="#2E2D2D"/>
</linearGradient>
<linearGradient id="paint6_linear" x1="33.25" y1="66.5" x2="33.25" y2="114" gradientUnits="userSpaceOnUse">
<stop stop-color="#4F4F4F"/>
<stop offset="1" stop-color="#C4C4C4"/>
</linearGradient>
<linearGradient id="paint7_linear" x1="82.5" y1="27.0001" x2="89.5" y2="67.5001" gradientUnits="userSpaceOnUse">
<stop stop-color="#4F4F4F"/>
<stop offset="0.375463" stop-color="#C6C2C2"/>
<stop offset="0.707823" stop-color="#4F4F4F"/>
</linearGradient>
<linearGradient id="paint8_linear" x1="85.0919" y1="30.8628" x2="104.459" y2="56.0933" gradientUnits="userSpaceOnUse">
<stop offset="0.0704709" stop-color="#828282"/>
<stop offset="0.30603" stop-color="#C6C2C2"/>
<stop offset="0.68323" stop-color="#7F7C7C"/>
</linearGradient>
<linearGradient id="paint9_linear" x1="85" y1="37.0001" x2="94.2952" y2="53.5365" gradientUnits="userSpaceOnUse">
<stop stop-color="#EBE3E3"/>
<stop offset="1" stop-color="#828282"/>
</linearGradient>
<linearGradient id="paint10_linear" x1="45" y1="22" x2="52.5167" y2="52.698" gradientUnits="userSpaceOnUse">
<stop stop-color="#4F4F4F"/>
<stop offset="0.765885" stop-color="#F6F6F6"/>
</linearGradient>
<linearGradient id="paint11_linear" x1="32" y1="42" x2="37" y2="69.5" gradientUnits="userSpaceOnUse">
<stop offset="0.161853" stop-color="#C4C4C4"/>
<stop offset="0.871921" stop-color="#7F7C7C"/>
</linearGradient>
<linearGradient id="paint12_linear" x1="14" y1="51.0001" x2="17.2286" y2="61.8642" gradientUnits="userSpaceOnUse">
<stop stop-color="#828282" stop-opacity="0"/>
<stop offset="1" stop-color="white" stop-opacity="0.33"/>
</linearGradient>
</defs>
</svg>
