<svg width="111" height="118" viewBox="0 0 111 118" fill="none" xmlns="http://www.w3.org/2000/svg">
<circle cx="100" cy="11" r="11" fill="url(#paint0_radial)"/>
<circle cx="100" cy="11" r="10" fill="#C4C4C4"/>
<circle cx="100" cy="11" r="7.5" fill="url(#paint1_linear)" stroke="url(#paint2_radial)"/>
<circle cx="100" cy="11" r="6" fill="#C4C4C4"/>
<g filter="url(#filter0_f)">
<path d="M106 11C106 10.2121 105.845 9.43185 105.543 8.7039C105.242 7.97595 104.8 7.31451 104.243 6.75736C103.685 6.20021 103.024 5.75825 102.296 5.45672C101.568 5.15519 100.788 5 100 5L100 11H106Z" fill="url(#paint3_linear)"/>
</g>
<g filter="url(#filter1_f)">
<path d="M94 11C94 11.7879 94.1552 12.5681 94.4567 13.2961C94.7583 14.0241 95.2002 14.6855 95.7574 15.2426C96.3145 15.7998 96.9759 16.2417 97.7039 16.5433C98.4319 16.8448 99.2121 17 100 17L100 11L94 11Z" fill="url(#paint4_linear)"/>
</g>
<g filter="url(#filter2_f)">
<path d="M100 17C101.332 17 102.627 16.5565 103.679 15.7393L100 11V17Z" fill="url(#paint5_linear)"/>
</g>
<g filter="url(#filter3_f)">
<path d="M103.682 15.7371C104.399 15.1799 104.98 14.4673 105.382 13.6531C105.783 12.8388 105.994 11.9441 106 11.0362L100 11L103.682 15.7371Z" fill="url(#paint6_linear)"/>
</g>
<g filter="url(#filter4_f)">
<path d="M100 5C99.2121 5 98.4319 5.15519 97.7039 5.45672C96.9759 5.75825 96.3145 6.20021 95.7574 6.75736C95.2002 7.31451 94.7583 7.97595 94.4567 8.7039C94.1552 9.43185 94 10.2121 94 11L100 11V5Z" fill="url(#paint7_linear)"/>
</g>
<ellipse rx="0.6" ry="1.6" transform="matrix(-0.978255 0.207405 0.130442 0.991456 16.3219 8.01058)" fill="url(#paint8_linear)"/>
<path d="M16.9959 7V9C16.9959 9 16.9426 7.86281 10.4968 10.5001C-11.5 19.5 20.4658 58 20.4658 58H16.9657C16.9657 58 -10.6183 21.2559 5.49997 11C11.0004 7.50015 16.9959 7 16.9959 7Z" fill="url(#paint9_linear)"/>
<g filter="url(#filter5_f)">
<path d="M17 7.5L17.0007 8C17.0007 8 15.9465 7.36273 9.50071 10C-12.4961 18.9999 19.5007 58 19.5007 58H18.5006C18.5006 58 -10.1183 21.2559 6 11C11.5004 7.50015 17 7.5 17 7.5Z" fill="url(#paint10_linear)"/>
</g>
<ellipse cx="33.0548" cy="7.67698" rx="0.6" ry="1.6" transform="rotate(9.48172 33.0548 7.67698)" fill="url(#paint11_linear)"/>
<path d="M32.9 7V9C32.9 9 32.3021 7.87902 38.4365 10.5001C59.5 19.5 29 58 29 58H32.2816C32.2816 58 58.5265 21.2559 43.1907 11C37.9573 7.50015 32.9 7 32.9 7Z" fill="url(#paint12_linear)"/>
<g filter="url(#filter6_f)">
<path d="M32.9 7L33 8C33 8 33.3656 7.37894 39.5 10C60.5635 18.9999 30.5 58 30.5 58H32.2816C32.2816 58 58.5265 21.2559 43.1907 11C37.9573 7.50015 32.9 7 32.9 7Z" fill="url(#paint13_linear)"/>
</g>
<path d="M19.5 62.5C15.7618 57.9311 10.5 49 10.5 49L15 48C15 48 17.9362 53.7734 21.0048 56C22.1554 56.8348 23.138 57 24.5048 57C25.4811 57 26.1123 56.556 27.0048 56C30.307 53.9428 35.001 46.5 35.001 46.5L39 48.5C39 48.5 33.5 55.5 29.5 62.5C21.9675 75.6819 19 93.2 27 104.2C36.3055 116.995 53.4165 114.263 61.8 105.1C83.3 81.6 48.8804 43.6383 76.0024 24.5C78.7933 22.5307 88.5024 16 88.5024 16L90.5024 19C90.5024 19 81.4312 24.5778 78.5024 27.25C53.7048 49.8752 89.2725 75.8332 65.5037 108.5C57.5 119.5 35 121 24.1 108C12.0458 93.6234 24 68 19.5 62.5Z" fill="url(#paint14_linear)"/>
<path d="M27.3895 4.54662C29.0414 3.74095 30.7538 5.64923 30.7538 5.64923C32.1358 5.51293 31.9779 5.51614 33.2164 6.06046C32.5504 7.03066 32.3747 8.08275 32.6893 9.21672C31.2568 9.3873 31.5274 9.43878 30.2267 8.80549C30.2267 8.80549 27.9872 10.0536 26.6867 8.75497C25.3861 7.45639 25.7376 5.3523 27.3895 4.54662Z" fill="url(#paint15_linear)"/>
<path d="M21.9145 4.59643C20.311 3.84919 18.5597 5.8512 18.5597 5.8512C17.2009 5.77028 17.3565 5.76702 16.1171 6.36903C16.7425 7.32346 16.8817 8.38101 16.5345 9.54166C17.9421 9.65519 17.6735 9.71845 18.9772 9.02384C18.9772 9.02384 21.1458 10.1946 22.471 8.82661C23.7962 7.45867 23.5179 5.34366 21.9145 4.59643Z" fill="url(#paint16_linear)"/>
<path d="M93.2986 12.9989C93.4988 13.9989 94.4988 15.4989 95.1988 16.0845L90.4988 18.9989L88.4999 15.9999L93.2986 12.9989Z" fill="url(#paint17_linear)"/>
<g filter="url(#filter7_f)">
<path d="M41 115.5C46 117 57.5 116.5 66 106.5V107C58.5 117 46 117 41 116V115.5Z" fill="white"/>
</g>
<g filter="url(#filter8_f)">
<path d="M22.0001 63C22 68 17 93.5 22.0015 102.5L21.5015 102.5C16 93.5 22 68 21.0015 62.9998L22.0001 63Z" fill="white"/>
</g>
<g filter="url(#filter9_f)">
<path d="M70.9996 30H71.9996C71.9996 30 67.6584 34.5557 66.5 41.5C64.2126 55.2126 69.9996 69.5 70.4997 84C70.7743 91.9628 65.9999 102 65.9999 102H65.4997C65.4997 102 69.9995 92.0272 69.9997 84C70 69 63.6319 56.125 66 42C67.1641 35.0566 70.9996 30 70.9996 30Z" fill="white"/>
</g>
<defs>
<filter id="filter0_f" x="99.5" y="4.5" width="7" height="7" filterUnits="userSpaceOnUse" color-interpolation-filters="sRGB">
<feFlood flood-opacity="0" result="BackgroundImageFix"/>
<feBlend mode="normal" in="SourceGraphic" in2="BackgroundImageFix" result="shape"/>
<feGaussianBlur stdDeviation="0.25" result="effect1_foregroundBlur"/>
</filter>
<filter id="filter1_f" x="93.5" y="10.5" width="7" height="7" filterUnits="userSpaceOnUse" color-interpolation-filters="sRGB">
<feFlood flood-opacity="0" result="BackgroundImageFix"/>
<feBlend mode="normal" in="SourceGraphic" in2="BackgroundImageFix" result="shape"/>
<feGaussianBlur stdDeviation="0.25" result="effect1_foregroundBlur"/>
</filter>
<filter id="filter2_f" x="99.5" y="10.5" width="4.67948" height="7" filterUnits="userSpaceOnUse" color-interpolation-filters="sRGB">
<feFlood flood-opacity="0" result="BackgroundImageFix"/>
<feBlend mode="normal" in="SourceGraphic" in2="BackgroundImageFix" result="shape"/>
<feGaussianBlur stdDeviation="0.25" result="effect1_foregroundBlur"/>
</filter>
<filter id="filter3_f" x="99.5" y="10.5" width="6.99989" height="5.73708" filterUnits="userSpaceOnUse" color-interpolation-filters="sRGB">
<feFlood flood-opacity="0" result="BackgroundImageFix"/>
<feBlend mode="normal" in="SourceGraphic" in2="BackgroundImageFix" result="shape"/>
<feGaussianBlur stdDeviation="0.25" result="effect1_foregroundBlur"/>
</filter>
<filter id="filter4_f" x="93.5" y="4.5" width="7" height="7" filterUnits="userSpaceOnUse" color-interpolation-filters="sRGB">
<feFlood flood-opacity="0" result="BackgroundImageFix"/>
<feBlend mode="normal" in="SourceGraphic" in2="BackgroundImageFix" result="shape"/>
<feGaussianBlur stdDeviation="0.25" result="effect1_foregroundBlur"/>
</filter>
<filter id="filter5_f" x="0.0766602" y="6.5" width="20.4241" height="52.5" filterUnits="userSpaceOnUse" color-interpolation-filters="sRGB">
<feFlood flood-opacity="0" result="BackgroundImageFix"/>
<feBlend mode="normal" in="SourceGraphic" in2="BackgroundImageFix" result="shape"/>
<feGaussianBlur stdDeviation="0.5" result="effect1_foregroundBlur"/>
</filter>
<filter id="filter6_f" x="29.5" y="6" width="19.5" height="53" filterUnits="userSpaceOnUse" color-interpolation-filters="sRGB">
<feFlood flood-opacity="0" result="BackgroundImageFix"/>
<feBlend mode="normal" in="SourceGraphic" in2="BackgroundImageFix" result="shape"/>
<feGaussianBlur stdDeviation="0.5" result="effect1_foregroundBlur"/>
</filter>
<filter id="filter7_f" x="40" y="105.5" width="27" height="11.9228" filterUnits="userSpaceOnUse" color-interpolation-filters="sRGB">
<feFlood flood-opacity="0" result="BackgroundImageFix"/>
<feBlend mode="normal" in="SourceGraphic" in2="BackgroundImageFix" result="shape"/>
<feGaussianBlur stdDeviation="0.5" result="effect1_foregroundBlur"/>
</filter>
<filter id="filter8_f" x="16.1201" y="61.9294" width="9.66208" height="41.7186" filterUnits="userSpaceOnUse" color-interpolation-filters="sRGB">
<feFlood flood-opacity="0" result="BackgroundImageFix"/>
<feBlend mode="normal" in="SourceGraphic" in2="BackgroundImageFix" result="shape"/>
<feGaussianBlur stdDeviation="0.5" result="effect1_foregroundBlur"/>
</filter>
<filter id="filter9_f" x="64.4722" y="29" width="8.52746" height="74" filterUnits="userSpaceOnUse" color-interpolation-filters="sRGB">
<feFlood flood-opacity="0" result="BackgroundImageFix"/>
<feBlend mode="normal" in="SourceGraphic" in2="BackgroundImageFix" result="shape"/>
<feGaussianBlur stdDeviation="0.5" result="effect1_foregroundBlur"/>
</filter>
<radialGradient id="paint0_radial" cx="0" cy="0" r="1" gradientUnits="userSpaceOnUse" gradientTransform="translate(100 11) rotate(43.1524) scale(10.9659)">
<stop offset="0.62369"/>
<stop offset="1" stop-color="#4F4F4F"/>
</radialGradient>
<linearGradient id="paint1_linear" x1="100" y1="4" x2="100" y2="18" gradientUnits="userSpaceOnUse">
<stop offset="0.681482"/>
<stop offset="1" stop-color="#C4C4C4"/>
</linearGradient>
<radialGradient id="paint2_radial" cx="0" cy="0" r="1" gradientUnits="userSpaceOnUse" gradientTransform="translate(100 11) rotate(144.462) scale(8.60233)">
<stop offset="0.336085"/>
<stop offset="1" stop-color="#C4C4C4"/>
</radialGradient>
<linearGradient id="paint3_linear" x1="105" y1="5" x2="100" y2="17" gradientUnits="userSpaceOnUse">
<stop stop-color="#2E2D2D"/>
<stop offset="1" stop-color="#A09E9E" stop-opacity="0"/>
</linearGradient>
<linearGradient id="paint4_linear" x1="100" y1="17" x2="100" y2="5" gradientUnits="userSpaceOnUse">
<stop stop-color="#2E2D2D"/>
<stop offset="1" stop-color="#A09E9E" stop-opacity="0"/>
</linearGradient>
<linearGradient id="paint5_linear" x1="106" y1="11" x2="94" y2="11" gradientUnits="userSpaceOnUse">
<stop offset="0.244241" stop-color="#2E2D2D"/>
<stop offset="0.586471" stop-color="white"/>
</linearGradient>
<linearGradient id="paint6_linear" x1="106" y1="11" x2="94" y2="11" gradientUnits="userSpaceOnUse">
<stop/>
<stop offset="1" stop-color="#A2C2EF" stop-opacity="0"/>
</linearGradient>
<linearGradient id="paint7_linear" x1="94" y1="11" x2="103.5" y2="12.5" gradientUnits="userSpaceOnUse">
<stop stop-color="white"/>
<stop offset="0.617976" stop-color="#2E2D2D"/>
</linearGradient>
<linearGradient id="paint8_linear" x1="2.65421" y1="2.09134" x2="-0.171428" y2="1.50588" gradientUnits="userSpaceOnUse">
<stop offset="0.183751" stop-color="white"/>
<stop offset="0.457926" stop-color="#2E2D2D"/>
</linearGradient>
<linearGradient id="paint9_linear" x1="10.4556" y1="7" x2="10.4556" y2="58" gradientUnits="userSpaceOnUse">
<stop stop-color="#2E2D2D"/>
<stop offset="0.848642" stop-color="#181B2A"/>
</linearGradient>
<linearGradient id="paint10_linear" x1="10.0255" y1="31.2647" x2="-1.55535" y2="31.2647" gradientUnits="userSpaceOnUse">
<stop offset="0.685333" stop-color="white"/>
<stop offset="1" stop-color="#2E2D2D"/>
</linearGradient>
<linearGradient id="paint11_linear" x1="35.109" y1="8.16832" x2="32.2834" y2="7.58286" gradientUnits="userSpaceOnUse">
<stop offset="0.183751" stop-color="white"/>
<stop offset="0.457926" stop-color="#2E2D2D"/>
</linearGradient>
<linearGradient id="paint12_linear" x1="38.5" y1="7" x2="38.5" y2="58" gradientUnits="userSpaceOnUse">
<stop stop-color="#2E2D2D"/>
<stop offset="0.848642" stop-color="#181B2A"/>
</linearGradient>
<linearGradient id="paint13_linear" x1="39.5" y1="31" x2="50.5" y2="31" gradientUnits="userSpaceOnUse">
<stop offset="0.183751" stop-color="white"/>
<stop offset="1" stop-color="#2E2D2D"/>
</linearGradient>
<linearGradient id="paint14_linear" x1="116" y1="72.5" x2="-0.92892" y2="63.6489" gradientUnits="userSpaceOnUse">
<stop offset="0.319711"/>
<stop offset="1" stop-color="#2E2D2D"/>
</linearGradient>
<linearGradient id="paint15_linear" x1="29.8537" y1="4.58638" x2="29.0301" y2="9.51807" gradientUnits="userSpaceOnUse">
<stop stop-color="#4F4F4F"/>
<stop offset="0.591251" stop-color="#2E2D2D"/>
</linearGradient>
<linearGradient id="paint16_linear" x1="19.4823" y1="4.73836" x2="20.5161" y2="9.61472" gradientUnits="userSpaceOnUse">
<stop stop-color="#4F4F4F"/>
<stop offset="0.591251" stop-color="#2E2D2D"/>
</linearGradient>
<linearGradient id="paint17_linear" x1="90.914" y1="14.4419" x2="92.9223" y2="17.5537" gradientUnits="userSpaceOnUse">
<stop stop-color="#4F4F4F"/>
<stop offset="0.14939" stop-color="#E9E9E9"/>
<stop offset="0.342772" stop-color="#C6C2C2"/>
<stop offset="0.503002" stop-color="#4F4F4F"/>
<stop offset="0.685333" stop-color="#C4C4C4"/>
<stop offset="0.856613" stop-color="#E9E9E9"/>
<stop offset="1" stop-color="#4F4F4F"/>
</linearGradient>
</defs>
</svg>
