<svg width="92" height="51" viewBox="0 0 92 51" fill="none" xmlns="http://www.w3.org/2000/svg">
<path d="M24 6.11818L78 0V15.5L24 22.1182C36 20 33 6 24 6.11818Z" fill="url(#paint0_radial)"/>
<path d="M24 24L92 16L83 45L48 50.9999C48 35 38 24 24 24Z" fill="url(#paint1_radial)"/>
<path fill-rule="evenodd" clip-rule="evenodd" d="M24 24C10.7452 24 0 34.7452 0 48V51H48V48C48 34.7452 37.2548 24 24 24ZM25.2 37.8V33H22.8V37.8H18V40.2H22.8V45H25.2V40.2H30V37.8H25.2Z" fill="#C4C4C4"/>
<circle cx="24" cy="14" r="8" fill="#C4C4C4"/>
<defs>
<radialGradient id="paint0_radial" cx="0" cy="0" r="1" gradientUnits="userSpaceOnUse" gradientTransform="translate(18 22) rotate(-16.5571) scale(115.802 131.471)">
<stop offset="0.101692" stop-color="#4F4F4F"/>
<stop offset="0.555804" stop-color="white" stop-opacity="0"/>
</radialGradient>
<radialGradient id="paint1_radial" cx="0" cy="0" r="1" gradientUnits="userSpaceOnUse" gradientTransform="translate(36 52.5) rotate(-46.3748) scale(88.4138 105.491)">
<stop offset="0.170928" stop-color="#4F4F4F"/>
<stop offset="0.622777" stop-color="white" stop-opacity="0"/>
</radialGradient>
</defs>
</svg>
