<svg width="111" height="142" viewBox="0 0 111 142" fill="none" xmlns="http://www.w3.org/2000/svg">
<rect x="1" y="21.443" width="0.948276" height="99.1141" fill="#2E2D2D"/>
<rect x="54.3405" y="42.8859" width="1.42241" height="56.2282" fill="#2E2D2D"/>
<path d="M55.0351 99.1141L111 120.557L55.0351 142L1 120.557L55.0351 99.1141Z" fill="url(#paint0_linear)"/>
<g filter="url(#filter0_d)">
<rect x="40.8276" y="55.7517" width="30.3448" height="30.4966" fill="url(#paint1_linear)"/>
</g>
<rect x="110.052" y="21.443" width="0.948276" height="99.1141" fill="#2E2D2D"/>
<path d="M111 120.513L54.815 142L0.999998 120.513V4.28859H111V120.513Z" fill="url(#paint2_linear)"/>
<path d="M55.0351 0L111 21.443L55.0351 42.8859L1 21.443L55.0351 0Z" fill="url(#paint3_linear)"/>
<defs>
<filter id="filter0_d" x="0.827591" y="50.7517" width="70.3448" height="50.4966" filterUnits="userSpaceOnUse" color-interpolation-filters="sRGB">
<feFlood flood-opacity="0" result="BackgroundImageFix"/>
<feColorMatrix in="SourceAlpha" type="matrix" values="0 0 0 0 0 0 0 0 0 0 0 0 0 0 0 0 0 0 127 0"/>
<feOffset dx="-30" dy="5"/>
<feGaussianBlur stdDeviation="5"/>
<feColorMatrix type="matrix" values="0 0 0 0 0 0 0 0 0 0 0 0 0 0 0 0 0 0 0.5 0"/>
<feBlend mode="normal" in2="BackgroundImageFix" result="effect1_dropShadow"/>
<feBlend mode="normal" in="SourceGraphic" in2="effect1_dropShadow" result="shape"/>
</filter>
<linearGradient id="paint0_linear" x1="56" y1="89.8546" x2="56" y2="159.057" gradientUnits="userSpaceOnUse">
<stop offset="0.252032" stop-color="#828282"/>
<stop offset="0.626016" stop-color="#C4C4C4"/>
</linearGradient>
<linearGradient id="paint1_linear" x1="56" y1="56.725" x2="56" y2="90.5741" gradientUnits="userSpaceOnUse">
<stop stop-color="#F1EDEC"/>
<stop offset="0.743247" stop-color="#2E2D2D"/>
</linearGradient>
<linearGradient id="paint2_linear" x1="56" y1="137.605" x2="56" y2="-15.2449" gradientUnits="userSpaceOnUse">
<stop stop-color="#2E2D2D"/>
<stop offset="0.91636" stop-color="white" stop-opacity="0"/>
</linearGradient>
<linearGradient id="paint3_linear" x1="56" y1="-9.25946" x2="56" y2="59.9428" gradientUnits="userSpaceOnUse">
<stop offset="0.252032" stop-color="#828282"/>
<stop offset="0.626016" stop-color="#C4C4C4"/>
</linearGradient>
</defs>
</svg>
