<svg width="110" height="142" viewBox="0 0 110 142" fill="none" xmlns="http://www.w3.org/2000/svg">
<path d="M54.0351 99.1141L110 120.557L54.0351 142L0 120.557L54.0351 99.1141Z" fill="url(#paint0_linear)"/>
<rect x="53.5776" y="42.8859" width="0.948276" height="56.2282" fill="#2E2D2D"/>
<rect x="109.052" y="21.443" width="0.948276" height="99.1141" fill="#2E2D2D"/>
<rect y="21.443" width="0.948276" height="99.1141" fill="#2E2D2D"/>
<path d="M82.0259 60.5168L54.5259 71L27.9742 60.5168V3.81208H82.0259V60.5168Z" fill="url(#paint1_linear)"/>
<path d="M27.9741 81.4832L54.5258 71L82.0258 81.4832V138.188H27.9741L27.9741 81.4832Z" fill="url(#paint2_linear)"/>
<path d="M54.0351 0L110 21.443L54.0351 42.8859L0 21.443L54.0351 0Z" fill="url(#paint3_linear)"/>
<defs>
<linearGradient id="paint0_linear" x1="55" y1="89.8546" x2="55" y2="159.057" gradientUnits="userSpaceOnUse">
<stop offset="0.252032" stop-color="#828282"/>
<stop offset="0.626016" stop-color="#C4C4C4"/>
</linearGradient>
<linearGradient id="paint1_linear" x1="55" y1="68.8557" x2="55" y2="-5.71812" gradientUnits="userSpaceOnUse">
<stop stop-color="#2E2D2D"/>
<stop offset="0.91636" stop-color="white" stop-opacity="0"/>
</linearGradient>
<linearGradient id="paint2_linear" x1="55" y1="73.1443" x2="55" y2="147.718" gradientUnits="userSpaceOnUse">
<stop stop-color="#2E2D2D"/>
<stop offset="0.91636" stop-color="white" stop-opacity="0"/>
</linearGradient>
<linearGradient id="paint3_linear" x1="55" y1="-9.25946" x2="55" y2="59.9428" gradientUnits="userSpaceOnUse">
<stop offset="0.252032" stop-color="#828282"/>
<stop offset="0.626016" stop-color="#C4C4C4"/>
</linearGradient>
</defs>
</svg>
