<svg width="110" height="142" viewBox="0 0 110 142" fill="none" xmlns="http://www.w3.org/2000/svg">
<path d="M54.0351 96.5508L110 117.439L54.0351 138.328L0 117.439L54.0351 96.5508Z" fill="url(#paint0_linear)"/>
<path d="M54.0351 0L110 20.8884L54.0351 41.7768L0 20.8884L54.0351 0Z" fill="url(#paint1_linear)"/>
<path d="M35.0862 58.7365L54.5258 66.7824V88.9086L35.0862 81.5332V58.7365Z" fill="url(#paint2_linear)"/>
<path d="M55 88.9086L74.9138 81.5332V58.7364L55 66.7823V88.9086Z" fill="url(#paint3_linear)"/>
<path d="M35.3181 58.2349L55 66.2082L74.6819 58.2349L55 50.2616L35.3181 58.2349Z" fill="url(#paint4_linear)"/>
<g filter="url(#filter0_f)">
<path d="M33.6638 115.33L53.3457 123.303L73.0276 115.33L53.3457 107.357L33.6638 115.33Z" fill="#2E2D2D"/>
</g>
<defs>
<filter id="filter0_f" x="18.6638" y="92.3565" width="69.3638" height="45.9466" filterUnits="userSpaceOnUse" color-interpolation-filters="sRGB">
<feFlood flood-opacity="0" result="BackgroundImageFix"/>
<feBlend mode="normal" in="SourceGraphic" in2="BackgroundImageFix" result="shape"/>
<feGaussianBlur stdDeviation="7.5" result="effect1_foregroundBlur"/>
</filter>
<linearGradient id="paint0_linear" x1="55" y1="87.5308" x2="55" y2="154.943" gradientUnits="userSpaceOnUse">
<stop offset="0.252032" stop-color="#828282"/>
<stop offset="0.626016" stop-color="#C4C4C4"/>
</linearGradient>
<linearGradient id="paint1_linear" x1="55" y1="-9.01999" x2="55" y2="58.3926" gradientUnits="userSpaceOnUse">
<stop offset="0.252032" stop-color="#828282"/>
<stop offset="0.626016" stop-color="#C4C4C4"/>
</linearGradient>
<linearGradient id="paint2_linear" x1="44.806" y1="59.6994" x2="44.806" y2="93.1883" gradientUnits="userSpaceOnUse">
<stop stop-color="white" stop-opacity="0"/>
<stop offset="0.898729" stop-color="#2E2D2D"/>
</linearGradient>
<linearGradient id="paint3_linear" x1="70.1724" y1="87.035" x2="65.1685" y2="54.4242" gradientUnits="userSpaceOnUse">
<stop stop-color="#2E2D2D"/>
<stop offset="1" stop-color="white" stop-opacity="0"/>
</linearGradient>
<linearGradient id="paint4_linear" x1="55" y1="70.0922" x2="65.6041" y2="44.8366" gradientUnits="userSpaceOnUse">
<stop stop-color="white" stop-opacity="0"/>
<stop offset="1" stop-color="#2E2D2D"/>
</linearGradient>
</defs>
</svg>
