<svg width="83" height="51" viewBox="0 0 83 51" fill="none" xmlns="http://www.w3.org/2000/svg">
<path d="M0 6L35 0H55L20 6H0Z" fill="url(#paint0_linear)"/>
<path d="M20 6L55 0V19L20 26V6Z" fill="url(#paint1_linear)"/>
<path d="M0 6H20V26H0V6Z" fill="#C4C4C4"/>
<path d="M0 31L35 25H55L20 31H0Z" fill="url(#paint2_linear)"/>
<path d="M20 31L55 25V44L20 51V31Z" fill="url(#paint3_linear)"/>
<path d="M0 31H20V51H0V31Z" fill="#C4C4C4"/>
<path d="M28 6L62 0H83L48 6H28Z" fill="url(#paint4_linear)"/>
<path d="M48 6L83 0V19L48 26V6Z" fill="url(#paint5_linear)"/>
<path d="M28 6H48V26H28V6Z" fill="#C4C4C4"/>
<path d="M28 31L61 25H83L48 31H28Z" fill="url(#paint6_linear)"/>
<path d="M48 31L83 25V44L48 51V31Z" fill="url(#paint7_linear)"/>
<path d="M28 31H48V51H28V31Z" fill="#C4C4C4"/>
<defs>
<linearGradient id="paint0_linear" x1="41" y1="5.61818" x2="41" y2="-12.3454" gradientUnits="userSpaceOnUse">
<stop stop-color="#4F4F4F"/>
<stop offset="0.38832" stop-color="white" stop-opacity="0"/>
</linearGradient>
<linearGradient id="paint1_linear" x1="18.5" y1="29.2545" x2="54.9992" y2="29.4206" gradientUnits="userSpaceOnUse">
<stop offset="0.0297365" stop-color="#4F4F4F"/>
<stop offset="1" stop-color="white" stop-opacity="0"/>
</linearGradient>
<linearGradient id="paint2_linear" x1="41" y1="30.6182" x2="41" y2="12.6546" gradientUnits="userSpaceOnUse">
<stop stop-color="#4F4F4F"/>
<stop offset="0.38832" stop-color="white" stop-opacity="0"/>
</linearGradient>
<linearGradient id="paint3_linear" x1="18.5" y1="54.2545" x2="54.9992" y2="54.4206" gradientUnits="userSpaceOnUse">
<stop offset="0.0297365" stop-color="#4F4F4F"/>
<stop offset="1" stop-color="white" stop-opacity="0"/>
</linearGradient>
<linearGradient id="paint4_linear" x1="69" y1="5.61818" x2="69" y2="-12.3454" gradientUnits="userSpaceOnUse">
<stop stop-color="#4F4F4F"/>
<stop offset="0.38832" stop-color="white" stop-opacity="0"/>
</linearGradient>
<linearGradient id="paint5_linear" x1="46.5" y1="29.2545" x2="82.9992" y2="29.4206" gradientUnits="userSpaceOnUse">
<stop offset="0.0297365" stop-color="#4F4F4F"/>
<stop offset="1" stop-color="white" stop-opacity="0"/>
</linearGradient>
<linearGradient id="paint6_linear" x1="69" y1="30.6182" x2="69" y2="12.6546" gradientUnits="userSpaceOnUse">
<stop stop-color="#4F4F4F"/>
<stop offset="0.38832" stop-color="white" stop-opacity="0"/>
</linearGradient>
<linearGradient id="paint7_linear" x1="46.5" y1="54.2545" x2="82.9992" y2="54.4206" gradientUnits="userSpaceOnUse">
<stop offset="0.0297365" stop-color="#4F4F4F"/>
<stop offset="1" stop-color="white" stop-opacity="0"/>
</linearGradient>
</defs>
</svg>
