<svg width="116" height="116" viewBox="0 0 116 116" fill="none" xmlns="http://www.w3.org/2000/svg">
<g filter="url(#filter0_i)">
<circle cx="58" cy="58" r="58" fill="url(#paint0_linear)"/>
<circle cx="58" cy="58" r="58" fill="url(#paint1_linear)"/>
</g>
<g filter="url(#filter1_i)">
<path d="M2 73C6.12312 70.3689 12.6759 68.3265 26.5 65.5M26.5 65.5C29.2762 50.2688 32.3378 42.545 40 30M26.5 65.5C35.8538 75.7087 43.163 81.6128 59.5 92.5M40 30C34.6135 20.8852 30.913 17.016 23.5 12M40 30C52.9825 27.9454 62.3043 28.2465 81.5 31.5M81.5 31.5C88.1439 21.66 91.3491 17.8606 96 15M81.5 31.5L91 68.5M91 68.5C100.434 76.2896 104.692 79.6863 110 83.5M91 68.5C74.7805 83.3651 68.6656 88.4692 59.5 92.5M59.5 92.5C57.6213 100.044 57.3172 104.896 58 114.5M58 114.5C53.509 115.446 50.9745 115.477 46.5 114.5M58 114.5C61.1546 115.095 63.7011 115.075 69.5 114.5" stroke="#2E2D2D" stroke-dasharray="1 1"/>
</g>
<path d="M54.5651 39.9111C54.5651 39.9111 51.6477 53.8074 57.8988 57.2815C68.0688 62.9336 81.3942 52.5635 99 42C101.5 40.5 108 35 108 35C108 35 107.294 36.6265 106.5 38C105.835 39.1514 102 43 102 43C102 43 57.7819 87.1357 48.7299 64.2296C45.3958 55.7926 54.5651 39.9111 54.5651 39.9111Z" fill="url(#paint2_linear)"/>
<defs>
<filter id="filter0_i" x="0" y="0" width="116" height="117" filterUnits="userSpaceOnUse" color-interpolation-filters="sRGB">
<feFlood flood-opacity="0" result="BackgroundImageFix"/>
<feBlend mode="normal" in="SourceGraphic" in2="BackgroundImageFix" result="shape"/>
<feColorMatrix in="SourceAlpha" type="matrix" values="0 0 0 0 0 0 0 0 0 0 0 0 0 0 0 0 0 0 127 0" result="hardAlpha"/>
<feOffset dy="1"/>
<feGaussianBlur stdDeviation="6.5"/>
<feComposite in2="hardAlpha" operator="arithmetic" k2="-1" k3="1"/>
<feColorMatrix type="matrix" values="0 0 0 0 0 0 0 0 0 0 0 0 0 0 0 0 0 0 0.25 0"/>
<feBlend mode="normal" in2="shape" result="effect1_innerShadow"/>
</filter>
<filter id="filter1_i" x="1.73096" y="11.5859" width="108.561" height="105.135" filterUnits="userSpaceOnUse" color-interpolation-filters="sRGB">
<feFlood flood-opacity="0" result="BackgroundImageFix"/>
<feBlend mode="normal" in="SourceGraphic" in2="BackgroundImageFix" result="shape"/>
<feColorMatrix in="SourceAlpha" type="matrix" values="0 0 0 0 0 0 0 0 0 0 0 0 0 0 0 0 0 0 127 0" result="hardAlpha"/>
<feOffset dy="4"/>
<feGaussianBlur stdDeviation="0.5"/>
<feComposite in2="hardAlpha" operator="arithmetic" k2="-1" k3="1"/>
<feColorMatrix type="matrix" values="0 0 0 0 0 0 0 0 0 0 0 0 0 0 0 0 0 0 0.25 0"/>
<feBlend mode="normal" in2="shape" result="effect1_innerShadow"/>
</filter>
<linearGradient id="paint0_linear" x1="58" y1="0" x2="58" y2="116" gradientUnits="userSpaceOnUse">
<stop stop-color="#C4C4C4"/>
<stop offset="0.59116" stop-color="#4F4F4F"/>
<stop offset="1" stop-color="#2E2D2D"/>
</linearGradient>
<linearGradient id="paint1_linear" x1="144.5" y1="38.5" x2="27.5" y2="110" gradientUnits="userSpaceOnUse">
<stop offset="0.116752" stop-color="#2E2D2D"/>
<stop offset="0.272584" stop-color="#D4D4D4" stop-opacity="0.28"/>
<stop offset="1"/>
</linearGradient>
<linearGradient id="paint2_linear" x1="76.5" y1="28" x2="76.5" y2="70" gradientUnits="userSpaceOnUse">
<stop offset="0.333771" stop-color="#2E2D2D"/>
<stop offset="1"/>
</linearGradient>
</defs>
</svg>
