<svg width="70" height="118" viewBox="0 0 70 118" fill="none" xmlns="http://www.w3.org/2000/svg">
<path d="M0 9H70V105.11C70 107.612 69.116 110.103 67.0072 111.45C53.3271 120.183 16.6729 120.183 2.99279 111.45C0.884 110.103 0 107.612 0 105.11V9Z" fill="url(#paint0_linear)"/>
<path d="M0 38C7 47 63 47 70 38V105.11C70 107.612 69.116 110.103 67.0072 111.45C53.3271 120.183 16.6729 120.183 2.99279 111.45C0.884 110.103 0 107.612 0 105.11V38Z" fill="#828282"/>
<path d="M0 46C7 56 63 56 70 46V105.11C70 107.612 69.116 110.103 67.0072 111.45C53.3271 120.183 16.6729 120.183 2.99279 111.45C0.884 110.103 0 107.612 0 105.11V46Z" fill="url(#paint1_linear)"/>
<ellipse cx="35" cy="9" rx="35" ry="6" fill="url(#paint2_linear)"/>
<ellipse cx="35" cy="8.5" rx="35" ry="5.5" fill="#828282"/>
<g filter="url(#filter0_d)">
<ellipse cx="34.5" cy="9" rx="27.5" ry="4" fill="url(#paint3_linear)"/>
</g>
<g filter="url(#filter1_d)">
<path fill-rule="evenodd" clip-rule="evenodd" d="M57.7888 11.1282C59.8994 10.4302 61.0996 9.68696 61.0996 9C61.0996 6.81273 49.03 5.0355 34.0498 5.00053C34.1996 5.00018 34.3497 5 34.5 5C49.6878 5 62 6.79086 62 9C62 9.78214 60.4567 10.5119 57.7888 11.1282Z" fill="#3F3E3E"/>
</g>
<g filter="url(#filter2_d)">
<path fill-rule="evenodd" clip-rule="evenodd" d="M11.2112 11.13C9.10058 10.4317 7.90039 9.68832 7.90039 9.00116C7.90039 6.81326 19.97 5.03551 34.9502 5.00053C34.8004 5.00018 34.6503 5 34.5 5C19.3122 5 7 6.79138 7 9.00116C7 9.78353 8.54334 10.5135 11.2112 11.13Z" fill="#3F3E3E"/>
</g>
<g filter="url(#filter3_f)">
<ellipse cx="34.5" cy="9" rx="23.5" ry="4" fill="url(#paint4_linear)"/>
</g>
<ellipse cx="34.5" cy="8" rx="22.5" ry="3" fill="url(#paint5_linear)"/>
<g filter="url(#filter4_d)">
<path d="M25 5C25 2.79086 26.7909 1 29 1H41C43.2091 1 45 2.79086 45 5V9C43 11 27 11 25 9V5Z" fill="url(#paint6_linear)"/>
</g>
<path d="M44 2.5C44 3.05228 43 4 35 4C27 4 26 3.05228 26 2.5C26.5 1.00008 30.0294 0.5 35 0.5C39.9706 0.5 44 1.00002 44 2.5Z" fill="#C4C4C4"/>
<rect x="34" y="23" width="2" height="10" fill="#C4C4C4"/>
<rect x="30" y="29" width="2" height="10" transform="rotate(-90 30 29)" fill="#C4C4C4"/>
<defs>
<filter id="filter0_d" x="3" y="1.5" width="63" height="16" filterUnits="userSpaceOnUse" color-interpolation-filters="sRGB">
<feFlood flood-opacity="0" result="BackgroundImageFix"/>
<feColorMatrix in="SourceAlpha" type="matrix" values="0 0 0 0 0 0 0 0 0 0 0 0 0 0 0 0 0 0 127 0"/>
<feOffset dy="0.5"/>
<feGaussianBlur stdDeviation="2"/>
<feColorMatrix type="matrix" values="0 0 0 0 0 0 0 0 0 0 0 0 0 0 0 0 0 0 0.25 0"/>
<feBlend mode="normal" in2="BackgroundImageFix" result="effect1_dropShadow"/>
<feBlend mode="normal" in="SourceGraphic" in2="effect1_dropShadow" result="shape"/>
</filter>
<filter id="filter1_d" x="30.0498" y="1.5" width="35.9502" height="14.1282" filterUnits="userSpaceOnUse" color-interpolation-filters="sRGB">
<feFlood flood-opacity="0" result="BackgroundImageFix"/>
<feColorMatrix in="SourceAlpha" type="matrix" values="0 0 0 0 0 0 0 0 0 0 0 0 0 0 0 0 0 0 127 0"/>
<feOffset dy="0.5"/>
<feGaussianBlur stdDeviation="2"/>
<feColorMatrix type="matrix" values="0 0 0 0 0 0 0 0 0 0 0 0 0 0 0 0 0 0 0.25 0"/>
<feBlend mode="normal" in2="BackgroundImageFix" result="effect1_dropShadow"/>
<feBlend mode="normal" in="SourceGraphic" in2="effect1_dropShadow" result="shape"/>
</filter>
<filter id="filter2_d" x="3" y="1.5" width="35.9502" height="14.13" filterUnits="userSpaceOnUse" color-interpolation-filters="sRGB">
<feFlood flood-opacity="0" result="BackgroundImageFix"/>
<feColorMatrix in="SourceAlpha" type="matrix" values="0 0 0 0 0 0 0 0 0 0 0 0 0 0 0 0 0 0 127 0"/>
<feOffset dy="0.5"/>
<feGaussianBlur stdDeviation="2"/>
<feColorMatrix type="matrix" values="0 0 0 0 0 0 0 0 0 0 0 0 0 0 0 0 0 0 0.25 0"/>
<feBlend mode="normal" in2="BackgroundImageFix" result="effect1_dropShadow"/>
<feBlend mode="normal" in="SourceGraphic" in2="effect1_dropShadow" result="shape"/>
</filter>
<filter id="filter3_f" x="10" y="4" width="49" height="10" filterUnits="userSpaceOnUse" color-interpolation-filters="sRGB">
<feFlood flood-opacity="0" result="BackgroundImageFix"/>
<feBlend mode="normal" in="SourceGraphic" in2="BackgroundImageFix" result="shape"/>
<feGaussianBlur stdDeviation="0.5" result="effect1_foregroundBlur"/>
</filter>
<filter id="filter4_d" x="24" y="1" width="22" height="12.5" filterUnits="userSpaceOnUse" color-interpolation-filters="sRGB">
<feFlood flood-opacity="0" result="BackgroundImageFix"/>
<feColorMatrix in="SourceAlpha" type="matrix" values="0 0 0 0 0 0 0 0 0 0 0 0 0 0 0 0 0 0 127 0"/>
<feOffset dy="2"/>
<feGaussianBlur stdDeviation="0.5"/>
<feColorMatrix type="matrix" values="0 0 0 0 0 0 0 0 0 0 0 0 0 0 0 0 0 0 0.25 0"/>
<feBlend mode="normal" in2="BackgroundImageFix" result="effect1_dropShadow"/>
<feBlend mode="normal" in="SourceGraphic" in2="effect1_dropShadow" result="shape"/>
</filter>
<linearGradient id="paint0_linear" x1="-6" y1="56.5" x2="70" y2="57" gradientUnits="userSpaceOnUse">
<stop offset="0.0350762" stop-color="#DFDBDB"/>
<stop offset="0.0915327" stop-color="#808080" stop-opacity="0.997121"/>
<stop offset="0.18232" stop-color="#F6EDED" stop-opacity="0.99"/>
<stop offset="0.453039" stop-color="#818181" stop-opacity="0.98"/>
<stop offset="0.546961" stop-color="#7D7A7A"/>
<stop offset="0.801105" stop-color="#F9F5F5" stop-opacity="0.99"/>
<stop offset="0.965194" stop-color="#666464"/>
<stop offset="1" stop-color="#A5A1A1"/>
</linearGradient>
<linearGradient id="paint1_linear" x1="-7.5" y1="78" x2="78" y2="78" gradientUnits="userSpaceOnUse">
<stop stop-color="#B9B5B5"/>
<stop offset="0.113403" stop-color="#4F4F4F" stop-opacity="0.839779"/>
<stop offset="0.220994" stop-color="#696666"/>
<stop offset="0.381215" stop-color="#B6B1B1" stop-opacity="0.548803"/>
<stop offset="0.618785" stop-color="#4F4F4F" stop-opacity="0.46"/>
<stop offset="0.861878" stop-color="#4F4F4F" stop-opacity="0.97"/>
<stop offset="1" stop-color="#DBD7D7" stop-opacity="0.97"/>
</linearGradient>
<linearGradient id="paint2_linear" x1="2.5" y1="11" x2="67" y2="11" gradientUnits="userSpaceOnUse">
<stop stop-color="#828282"/>
<stop offset="0.353591" stop-color="#FBF5F5"/>
<stop offset="0.729282" stop-color="#F8F3F3"/>
<stop offset="1" stop-color="#828282"/>
</linearGradient>
<linearGradient id="paint3_linear" x1="34.5" y1="5" x2="34.5" y2="13" gradientUnits="userSpaceOnUse">
<stop stop-color="#C4C4C4"/>
<stop offset="1" stop-color="#C4C4C4" stop-opacity="0"/>
</linearGradient>
<linearGradient id="paint4_linear" x1="14" y1="10" x2="57" y2="10" gradientUnits="userSpaceOnUse">
<stop stop-color="#595656"/>
<stop offset="0.237569" stop-color="#747070"/>
<stop offset="0.674033" stop-color="#A9A6A6"/>
<stop offset="0.972376" stop-color="#5E5B5B"/>
</linearGradient>
<linearGradient id="paint5_linear" x1="34.5" y1="5" x2="34.5" y2="11" gradientUnits="userSpaceOnUse">
<stop stop-color="#C6C3C3"/>
<stop offset="1" stop-color="#7C7A7A"/>
</linearGradient>
<linearGradient id="paint6_linear" x1="25" y1="6" x2="45" y2="6" gradientUnits="userSpaceOnUse">
<stop stop-color="#757373"/>
<stop offset="0.0773481" stop-color="#B3ADAD"/>
<stop offset="0.287293" stop-color="#F1EDED"/>
<stop offset="0.530387" stop-color="#A5A2A2"/>
<stop offset="0.585635" stop-color="#999595"/>
<stop offset="0.845304" stop-color="#EFE7E7"/>
<stop offset="1" stop-color="#999595"/>
</linearGradient>
</defs>
</svg>
