<svg width="73" height="52" viewBox="0 0 73 52" fill="none" xmlns="http://www.w3.org/2000/svg">
<path d="M2 6.61818L37 0L73 1.52588e-05L38 6.61819L2 6.61818Z" fill="url(#paint0_linear)"/>
<path d="M38 6.61819L73 7.62939e-06V45.3818L40 52L38 6.61819Z" fill="url(#paint1_linear)"/>
<path d="M0 14.6182L35 8.00001V45.3818L0 52V14.6182Z" fill="url(#paint2_linear)"/>
<path d="M0 8.61822C0 7.51365 0.895431 6.61823 2 6.61823H38C39.1046 6.61823 40 7.51366 40 8.61822V52L20 39L0 52V8.61822Z" fill="#C4C4C4"/>
<defs>
<linearGradient id="paint0_linear" x1="31" y1="6.61818" x2="31" y2="-11.3454" gradientUnits="userSpaceOnUse">
<stop stop-color="#4F4F4F"/>
<stop offset="0.38832" stop-color="white" stop-opacity="0"/>
</linearGradient>
<linearGradient id="paint1_linear" x1="36.5" y1="30.2545" x2="72.9992" y2="30.4206" gradientUnits="userSpaceOnUse">
<stop offset="0.0297365" stop-color="#4F4F4F"/>
<stop offset="1" stop-color="white" stop-opacity="0"/>
</linearGradient>
<linearGradient id="paint2_linear" x1="-1.5" y1="30.2545" x2="34.9992" y2="30.4206" gradientUnits="userSpaceOnUse">
<stop offset="0.0297365" stop-color="#4F4F4F"/>
<stop offset="1" stop-color="white" stop-opacity="0"/>
</linearGradient>
</defs>
</svg>
