<svg width="83" height="47" viewBox="0 0 83 47" fill="none" xmlns="http://www.w3.org/2000/svg">
<path d="M18 6L56.5 0H69L30 6H18Z" fill="url(#paint0_linear)"/>
<path d="M30 6L69 0V8L33 14L30 6Z" fill="url(#paint1_linear)"/>
<path d="M33 14.0001L69 8.00006H83L46 14.0001H33Z" fill="url(#paint2_linear)"/>
<path d="M46 14.0002L83 8.00006V40.0001L46 47.0001V14.0002Z" fill="url(#paint3_linear)"/>
<path d="M0 16.0001C0 14.8955 0.895431 14.0001 2 14.0001H15V9.00006C15 7.34321 16.3431 6.00006 18 6.00006H30C31.6569 6.00006 33 7.34321 33 9.00006V14.0001H46C47.1046 14.0001 48 14.8955 48 16.0001V45.0001C48 46.1046 47.1046 47.0001 46 47.0001H2C0.895431 47.0001 0 46.1046 0 45.0001V16.0001Z" fill="#C4C4C4"/>
<circle cx="24" cy="31.0001" r="9" fill="#828282"/>
<defs>
<linearGradient id="paint0_linear" x1="58" y1="5.61818" x2="58" y2="-12.3454" gradientUnits="userSpaceOnUse">
<stop stop-color="#4F4F4F"/>
<stop offset="0.38832" stop-color="white" stop-opacity="0"/>
</linearGradient>
<linearGradient id="paint1_linear" x1="30.527" y1="6.24628" x2="68.9933" y2="6.75581" gradientUnits="userSpaceOnUse">
<stop offset="0.0297365" stop-color="#4F4F4F"/>
<stop offset="1" stop-color="white" stop-opacity="0"/>
</linearGradient>
<linearGradient id="paint2_linear" x1="74" y1="13.6182" x2="74" y2="-4.34538" gradientUnits="userSpaceOnUse">
<stop stop-color="#4F4F4F"/>
<stop offset="0.38832" stop-color="white" stop-opacity="0"/>
</linearGradient>
<linearGradient id="paint3_linear" x1="46.5" y1="25.2546" x2="82.9992" y2="25.4206" gradientUnits="userSpaceOnUse">
<stop offset="0.0297365" stop-color="#4F4F4F"/>
<stop offset="1" stop-color="white" stop-opacity="0"/>
</linearGradient>
</defs>
</svg>
