<svg width="75" height="53" viewBox="0 0 75 53" fill="none" xmlns="http://www.w3.org/2000/svg">
<path d="M0 21.5L35 14.8818L45 14.8818L10 21.5L0 21.5Z" fill="url(#paint0_linear)"/>
<path d="M10 21.5L45 14.8818V46.3818L10 53V21.5Z" fill="url(#paint1_linear)"/>
<path d="M0 21.5H10V53H0V21.5Z" fill="#C4C4C4"/>
<path d="M15 7.5L50 0.881818L60 0.881845L25 7.50002L15 7.5Z" fill="url(#paint2_linear)"/>
<path d="M25 7.50002L60 0.881836V46.3818L25 53V7.50002Z" fill="url(#paint3_linear)"/>
<path d="M15 7.50002H25V53H15V7.50002Z" fill="#C4C4C4"/>
<path d="M30 32.6182L65 26L75 26.0001L40 32.6182L30 32.6182Z" fill="url(#paint4_linear)"/>
<path d="M40 32.6182L75 26V46.3818L40 53V32.6182Z" fill="url(#paint5_linear)"/>
<path d="M30 32.5H40V53H30V32.5Z" fill="#C4C4C4"/>
<defs>
<linearGradient id="paint0_linear" x1="31" y1="21.6182" x2="31" y2="3.65455" gradientUnits="userSpaceOnUse">
<stop stop-color="#4F4F4F"/>
<stop offset="0.38832" stop-color="white" stop-opacity="0"/>
</linearGradient>
<linearGradient id="paint1_linear" x1="8.5" y1="31.2545" x2="44.9992" y2="31.4206" gradientUnits="userSpaceOnUse">
<stop offset="0.0297365" stop-color="#4F4F4F"/>
<stop offset="1" stop-color="white" stop-opacity="0"/>
</linearGradient>
<linearGradient id="paint2_linear" x1="46" y1="7.61818" x2="46" y2="-10.3454" gradientUnits="userSpaceOnUse">
<stop stop-color="#4F4F4F"/>
<stop offset="0.38832" stop-color="white" stop-opacity="0"/>
</linearGradient>
<linearGradient id="paint3_linear" x1="23.5" y1="31.2546" x2="59.9992" y2="31.4206" gradientUnits="userSpaceOnUse">
<stop offset="0.0297365" stop-color="#4F4F4F"/>
<stop offset="1" stop-color="white" stop-opacity="0"/>
</linearGradient>
<linearGradient id="paint4_linear" x1="61" y1="32.6182" x2="61" y2="14.6545" gradientUnits="userSpaceOnUse">
<stop stop-color="#4F4F4F"/>
<stop offset="0.38832" stop-color="white" stop-opacity="0"/>
</linearGradient>
<linearGradient id="paint5_linear" x1="38.5" y1="31.2546" x2="74.9992" y2="31.4206" gradientUnits="userSpaceOnUse">
<stop offset="0.0297365" stop-color="#4F4F4F"/>
<stop offset="1" stop-color="white" stop-opacity="0"/>
</linearGradient>
</defs>
</svg>
