<svg width="83" height="120" viewBox="0 0 83 120" fill="none" xmlns="http://www.w3.org/2000/svg">
<path d="M7 26.8L61 10V100H7V26.8Z" fill="url(#paint0_linear)"/>
<path d="M49.7002 28H58.1004V46H49.7004L49.7002 28Z" fill="url(#paint1_linear)"/>
<path d="M42.3496 30H50.7498V48H42.3498L42.3496 30Z" fill="url(#paint2_linear)"/>
<path d="M34.9004 33H43.3006V51H34.9006L34.9004 33Z" fill="url(#paint3_linear)"/>
<path d="M27.2002 35H35.6004V53H27.2004L27.2002 35Z" fill="url(#paint4_linear)"/>
<path d="M20.2002 38H28.6004V56H20.2004L20.2002 38Z" fill="url(#paint5_linear)"/>
<path d="M43.7998 35H52.4006V53H43.8L43.7998 35Z" fill="url(#paint6_linear)"/>
<path d="M35.7998 38H44.2V56H35.8L35.7998 38Z" fill="url(#paint7_linear)"/>
<path d="M28.2998 41H36.7V59H28.3L28.2998 41Z" fill="url(#paint8_linear)"/>
<path d="M12.7998 41H21.2V59H12.8L12.7998 41Z" fill="url(#paint9_linear)"/>
<path d="M20.7998 43H29.2V61H20.8L20.7998 43Z" fill="url(#paint10_linear)"/>
<ellipse cx="17.0032" cy="40.7564" rx="4" ry="2.25" transform="rotate(0.0914568 17.0032 40.7564)" fill="#F6F6F6"/>
<path d="M61 0L77 5L66.6875 28H61V0Z" fill="url(#paint11_linear)"/>
<path d="M61 20L80 29V96L61 97V20Z" fill="url(#paint12_linear)"/>
<g filter="url(#filter0_d)">
<path d="M67.75 32H76.25V53.5H67.75V32Z" fill="url(#paint13_linear)"/>
</g>
<ellipse cx="72.0032" cy="32.2564" rx="4" ry="2.25" transform="rotate(0.0914568 72.0032 32.2564)" fill="white"/>
<ellipse cx="24.4105" cy="38.2564" rx="4" ry="2.25" transform="rotate(0.0914568 24.4105 38.2564)" fill="#F6F6F6"/>
<ellipse cx="31.4105" cy="35.2564" rx="4" ry="2.25" transform="rotate(0.0914568 31.4105 35.2564)" fill="#F6F6F6"/>
<path d="M57.25 25H65.6502V43H57.2502L57.25 25Z" fill="url(#paint14_linear)"/>
<ellipse cx="39.1038" cy="32.7564" rx="4" ry="2.25" transform="rotate(0.0914568 39.1038 32.7564)" fill="#F6F6F6"/>
<path d="M59 30H67.6008V48H59.0002L59 30Z" fill="url(#paint15_linear)"/>
<g filter="url(#filter1_d)">
<path d="M60.2002 35H68.7002V56.5H60.2002V35Z" fill="url(#paint16_linear)"/>
</g>
<ellipse cx="46.5032" cy="30.2564" rx="4" ry="2.25" transform="rotate(0.0914568 46.5032 30.2564)" fill="#F6F6F6"/>
<ellipse cx="53.9036" cy="27.7564" rx="4" ry="2.25" transform="rotate(0.0914568 53.9036 27.7564)" fill="#F6F6F6"/>
<ellipse cx="61.4036" cy="25.2564" rx="4" ry="2.25" transform="rotate(0.0914568 61.4036 25.2564)" fill="#F6F6F6"/>
<ellipse cx="64.4964" cy="35.2564" rx="4" ry="2.25" transform="rotate(0.0914568 64.4964 35.2564)" fill="white"/>
<path d="M0 17L61 0L77 5L16 24L0 17Z" fill="url(#paint17_linear)"/>
<ellipse cx="25.0032" cy="43.356" rx="4" ry="2.25" transform="rotate(0.0914568 25.0032 43.356)" fill="#F6F6F6"/>
<ellipse cx="32.5032" cy="40.5562" rx="4" ry="2.25" transform="rotate(0.0914568 32.5032 40.5562)" fill="#F6F6F6"/>
<ellipse cx="40.0032" cy="37.7564" rx="4" ry="2.25" transform="rotate(0.0914568 40.0032 37.7564)" fill="#F6F6F6"/>
<ellipse cx="48.0032" cy="35.2564" rx="4" ry="2.25" transform="rotate(0.0914568 48.0032 35.2564)" fill="#F6F6F6"/>
<ellipse cx="55.5032" cy="32.7564" rx="4" ry="2.25" transform="rotate(0.0914568 55.5032 32.7564)" fill="#F6F6F6"/>
<ellipse cx="63.5032" cy="30.2564" rx="4" ry="2.25" transform="rotate(0.0914568 63.5032 30.2564)" fill="#F6F6F6"/>
<g filter="url(#filter2_d)">
<path d="M52.25 18.5H60.75V57H52.25V18.5Z" fill="url(#paint18_linear)"/>
</g>
<path d="M52.2998 41C53.7998 43 59.8 43 60.8 41V59H52.2998V41Z" fill="#7F7C7C"/>
<path d="M52.2998 43C53.7998 45 59.8 45 60.8 43V61H52.2998V43Z" fill="url(#paint19_linear)"/>
<g filter="url(#filter3_d)">
<path d="M44.7998 40H53.2V58H44.8L44.7998 40Z" fill="url(#paint20_linear)"/>
</g>
<g filter="url(#filter4_d)">
<path d="M37.2998 43H45.7V61H37.3L37.2998 43Z" fill="url(#paint21_linear)"/>
</g>
<g filter="url(#filter5_d)">
<path d="M30.2998 46H38.7V64H30.3L30.2998 46Z" fill="url(#paint22_linear)"/>
</g>
<g filter="url(#filter6_d)">
<path d="M22.7998 48H31.2V66H22.8L22.7998 48Z" fill="url(#paint23_linear)"/>
</g>
<ellipse cx="34.5032" cy="45.7564" rx="4" ry="2.25" transform="rotate(0.0914568 34.5032 45.7564)" fill="white"/>
<ellipse cx="41.5032" cy="42.7564" rx="4" ry="2.25" transform="rotate(0.0914568 41.5032 42.7564)" fill="white"/>
<ellipse cx="27.0032" cy="48.2564" rx="4" ry="2.25" transform="rotate(0.0914568 27.0032 48.2564)" fill="white"/>
<path d="M53.1282 40.263C53.1285 40.1092 53.1037 39.959 53.0565 39.8139L52.9376 39.8526C52.8568 39.6043 52.7035 39.3702 52.4907 39.1574L52.579 39.069C52.3875 38.8776 52.1522 38.7046 51.8827 38.5538L51.8216 38.6628C51.5928 38.5348 51.3368 38.4222 51.0587 38.328L51.0988 38.2096C50.8406 38.1222 50.5645 38.0505 50.2746 37.9966L50.2518 38.1195C49.9869 38.0703 49.7098 38.0363 49.4238 38.0191L49.4312 37.8944C49.2918 37.886 49.1503 37.8816 49.007 37.8814C48.8638 37.8812 48.7223 37.8851 48.5828 37.893L48.5898 38.0178C48.3037 38.034 48.0266 38.0672 47.7616 38.1155L47.7391 37.9926C47.449 38.0455 47.1727 38.1163 46.9142 38.203L46.9539 38.3215C46.6756 38.4148 46.4191 38.5265 46.19 38.6538L46.1293 38.5446C45.8592 38.6946 45.6234 38.8668 45.4313 39.0576L45.5194 39.1463C45.3058 39.3584 45.1518 39.592 45.0702 39.84L44.9514 39.801C44.9037 39.9459 44.8785 40.096 44.8782 40.2498C44.878 40.4036 44.9028 40.5538 44.95 40.6989L45.0689 40.6602C45.1497 40.9084 45.3029 41.1426 45.5158 41.3554L45.4275 41.4438C45.6189 41.6352 45.8542 41.8081 46.1238 41.959L46.1849 41.8499C46.4136 41.978 46.6697 42.0906 46.9477 42.1847L46.9076 42.3031C47.1658 42.3906 47.442 42.4623 47.7319 42.5161L47.7547 42.3933C48.0196 42.4424 48.2967 42.4765 48.5827 42.4936L48.5752 42.6184C48.7147 42.6268 48.8562 42.6312 48.9994 42.6314C49.1427 42.6316 49.2842 42.6277 49.4237 42.6198L49.4166 42.495C49.7027 42.4788 49.9799 42.4456 50.2449 42.3972L50.2674 42.5202C50.5575 42.4673 50.8338 42.3964 51.0923 42.3098L51.0526 42.1913C51.3309 42.098 51.5873 41.9862 51.8165 41.8589L51.8772 41.9682C52.1473 41.8182 52.3831 41.646 52.5752 41.4552L52.4871 41.3665C52.7007 41.1544 52.8547 40.9207 52.9363 40.6727L53.055 40.7118C53.1027 40.5669 53.128 40.4167 53.1282 40.263Z" fill="#8D8989" stroke="#BCB5B5" stroke-width="0.25" stroke-dasharray="1 1"/>
<ellipse cx="56.5032" cy="18.7564" rx="4" ry="2.25" transform="rotate(0.0914568 56.5032 18.7564)" fill="white"/>
<g filter="url(#filter7_d)">
<path d="M7 38L26 49V118L7 108V38Z" fill="url(#paint24_linear)"/>
</g>
<g filter="url(#filter8_d)">
<path d="M29 62L79 43V94L29 114V62Z" fill="#4F4F4F"/>
</g>
<path d="M26 49H26.0756C27.9766 49 29.615 50.338 29.9949 52.2007L31.3143 58.67C31.5624 59.8866 32.8475 60.5854 34.0036 60.1324L74.041 44.4445C74.7377 44.1715 75.2238 43.5324 75.3007 42.788L76.3474 32.6637C76.5141 31.0519 77.6367 29.6998 79.1905 29.2397L80 29V96L26 118V49Z" fill="#C4C4C4"/>
<path d="M26 71L80 50V96L26 118V71Z" fill="url(#paint25_linear)"/>
<g filter="url(#filter9_d)">
<path d="M7 47L26 71L45 63.5L26 82L7 72V47Z" fill="#4F4F4F"/>
</g>
<g filter="url(#filter10_d)">
<path d="M80 49.2998L80.1 49.8998L61 57.2998L80 60.7998L80.5 49.7998L80 49.2998Z" fill="#4F4F4F"/>
</g>
<path d="M7 101L26 111V113L7 103V101Z" fill="#4F4F4F"/>
<path d="M26 113L80 91V89L26 111V113Z" fill="#4F4F4F"/>
<path d="M15.8398 24.0664L6.92949 46.8372L3.79078 45.5817C2.7683 45.1727 2.06929 44.2156 1.99083 43.1171L0.139421 17.1974L15.8398 24.0664Z" fill="#4F4F4F" stroke="url(#paint26_linear)" stroke-width="0.25"/>
<g filter="url(#filter11_f)">
<path d="M26 49H27V117.582L26 118V49Z" fill="#C4C4C4"/>
</g>
<defs>
<filter id="filter0_d" x="65.75" y="29" width="16.5" height="29.5" filterUnits="userSpaceOnUse" color-interpolation-filters="sRGB">
<feFlood flood-opacity="0" result="BackgroundImageFix"/>
<feColorMatrix in="SourceAlpha" type="matrix" values="0 0 0 0 0 0 0 0 0 0 0 0 0 0 0 0 0 0 127 0"/>
<feOffset dx="2" dy="1"/>
<feGaussianBlur stdDeviation="2"/>
<feColorMatrix type="matrix" values="0 0 0 0 0 0 0 0 0 0 0 0 0 0 0 0 0 0 0.25 0"/>
<feBlend mode="normal" in2="BackgroundImageFix" result="effect1_dropShadow"/>
<feBlend mode="normal" in="SourceGraphic" in2="effect1_dropShadow" result="shape"/>
</filter>
<filter id="filter1_d" x="58.2002" y="32" width="16.5" height="29.5" filterUnits="userSpaceOnUse" color-interpolation-filters="sRGB">
<feFlood flood-opacity="0" result="BackgroundImageFix"/>
<feColorMatrix in="SourceAlpha" type="matrix" values="0 0 0 0 0 0 0 0 0 0 0 0 0 0 0 0 0 0 127 0"/>
<feOffset dx="2" dy="1"/>
<feGaussianBlur stdDeviation="2"/>
<feColorMatrix type="matrix" values="0 0 0 0 0 0 0 0 0 0 0 0 0 0 0 0 0 0 0.25 0"/>
<feBlend mode="normal" in2="BackgroundImageFix" result="effect1_dropShadow"/>
<feBlend mode="normal" in="SourceGraphic" in2="effect1_dropShadow" result="shape"/>
</filter>
<filter id="filter2_d" x="50.25" y="15.5" width="16.5" height="46.5" filterUnits="userSpaceOnUse" color-interpolation-filters="sRGB">
<feFlood flood-opacity="0" result="BackgroundImageFix"/>
<feColorMatrix in="SourceAlpha" type="matrix" values="0 0 0 0 0 0 0 0 0 0 0 0 0 0 0 0 0 0 127 0"/>
<feOffset dx="2" dy="1"/>
<feGaussianBlur stdDeviation="2"/>
<feColorMatrix type="matrix" values="0 0 0 0 0 0 0 0 0 0 0 0 0 0 0 0 0 0 0.25 0"/>
<feBlend mode="normal" in2="BackgroundImageFix" result="effect1_dropShadow"/>
<feBlend mode="normal" in="SourceGraphic" in2="effect1_dropShadow" result="shape"/>
</filter>
<filter id="filter3_d" x="42.7998" y="37" width="16.4002" height="26" filterUnits="userSpaceOnUse" color-interpolation-filters="sRGB">
<feFlood flood-opacity="0" result="BackgroundImageFix"/>
<feColorMatrix in="SourceAlpha" type="matrix" values="0 0 0 0 0 0 0 0 0 0 0 0 0 0 0 0 0 0 127 0"/>
<feOffset dx="2" dy="1"/>
<feGaussianBlur stdDeviation="2"/>
<feColorMatrix type="matrix" values="0 0 0 0 0 0 0 0 0 0 0 0 0 0 0 0 0 0 0.25 0"/>
<feBlend mode="normal" in2="BackgroundImageFix" result="effect1_dropShadow"/>
<feBlend mode="normal" in="SourceGraphic" in2="effect1_dropShadow" result="shape"/>
</filter>
<filter id="filter4_d" x="35.2998" y="40" width="16.4002" height="26" filterUnits="userSpaceOnUse" color-interpolation-filters="sRGB">
<feFlood flood-opacity="0" result="BackgroundImageFix"/>
<feColorMatrix in="SourceAlpha" type="matrix" values="0 0 0 0 0 0 0 0 0 0 0 0 0 0 0 0 0 0 127 0"/>
<feOffset dx="2" dy="1"/>
<feGaussianBlur stdDeviation="2"/>
<feColorMatrix type="matrix" values="0 0 0 0 0 0 0 0 0 0 0 0 0 0 0 0 0 0 0.25 0"/>
<feBlend mode="normal" in2="BackgroundImageFix" result="effect1_dropShadow"/>
<feBlend mode="normal" in="SourceGraphic" in2="effect1_dropShadow" result="shape"/>
</filter>
<filter id="filter5_d" x="28.2998" y="43" width="16.4002" height="26" filterUnits="userSpaceOnUse" color-interpolation-filters="sRGB">
<feFlood flood-opacity="0" result="BackgroundImageFix"/>
<feColorMatrix in="SourceAlpha" type="matrix" values="0 0 0 0 0 0 0 0 0 0 0 0 0 0 0 0 0 0 127 0"/>
<feOffset dx="2" dy="1"/>
<feGaussianBlur stdDeviation="2"/>
<feColorMatrix type="matrix" values="0 0 0 0 0 0 0 0 0 0 0 0 0 0 0 0 0 0 0.25 0"/>
<feBlend mode="normal" in2="BackgroundImageFix" result="effect1_dropShadow"/>
<feBlend mode="normal" in="SourceGraphic" in2="effect1_dropShadow" result="shape"/>
</filter>
<filter id="filter6_d" x="20.7998" y="45" width="16.4002" height="26" filterUnits="userSpaceOnUse" color-interpolation-filters="sRGB">
<feFlood flood-opacity="0" result="BackgroundImageFix"/>
<feColorMatrix in="SourceAlpha" type="matrix" values="0 0 0 0 0 0 0 0 0 0 0 0 0 0 0 0 0 0 127 0"/>
<feOffset dx="2" dy="1"/>
<feGaussianBlur stdDeviation="2"/>
<feColorMatrix type="matrix" values="0 0 0 0 0 0 0 0 0 0 0 0 0 0 0 0 0 0 0.25 0"/>
<feBlend mode="normal" in2="BackgroundImageFix" result="effect1_dropShadow"/>
<feBlend mode="normal" in="SourceGraphic" in2="effect1_dropShadow" result="shape"/>
</filter>
<filter id="filter7_d" x="6" y="37" width="21" height="82" filterUnits="userSpaceOnUse" color-interpolation-filters="sRGB">
<feFlood flood-opacity="0" result="BackgroundImageFix"/>
<feColorMatrix in="SourceAlpha" type="matrix" values="0 0 0 0 0 0 0 0 0 0 0 0 0 0 0 0 0 0 127 0"/>
<feOffset/>
<feGaussianBlur stdDeviation="0.5"/>
<feColorMatrix type="matrix" values="0 0 0 0 0 0 0 0 0 0 0 0 0 0 0 0 0 0 0.25 0"/>
<feBlend mode="normal" in2="BackgroundImageFix" result="effect1_dropShadow"/>
<feBlend mode="normal" in="SourceGraphic" in2="effect1_dropShadow" result="shape"/>
</filter>
<filter id="filter8_d" x="26" y="39" width="56" height="77" filterUnits="userSpaceOnUse" color-interpolation-filters="sRGB">
<feFlood flood-opacity="0" result="BackgroundImageFix"/>
<feColorMatrix in="SourceAlpha" type="matrix" values="0 0 0 0 0 0 0 0 0 0 0 0 0 0 0 0 0 0 127 0"/>
<feOffset dy="-1"/>
<feGaussianBlur stdDeviation="1.5"/>
<feColorMatrix type="matrix" values="0 0 0 0 0 0 0 0 0 0 0 0 0 0 0 0 0 0 0.5 0"/>
<feBlend mode="normal" in2="BackgroundImageFix" result="effect1_dropShadow"/>
<feBlend mode="normal" in="SourceGraphic" in2="effect1_dropShadow" result="shape"/>
</filter>
<filter id="filter9_d" x="6" y="45.5" width="40" height="37" filterUnits="userSpaceOnUse" color-interpolation-filters="sRGB">
<feFlood flood-opacity="0" result="BackgroundImageFix"/>
<feColorMatrix in="SourceAlpha" type="matrix" values="0 0 0 0 0 0 0 0 0 0 0 0 0 0 0 0 0 0 127 0"/>
<feOffset dy="-0.5"/>
<feGaussianBlur stdDeviation="0.5"/>
<feColorMatrix type="matrix" values="0 0 0 0 0 0 0 0 0 0 0 0 0 0 0 0 0 0 0.25 0"/>
<feBlend mode="normal" in2="BackgroundImageFix" result="effect1_dropShadow"/>
<feBlend mode="normal" in="SourceGraphic" in2="effect1_dropShadow" result="shape"/>
</filter>
<filter id="filter10_d" x="59" y="48.2998" width="21.5" height="13.5" filterUnits="userSpaceOnUse" color-interpolation-filters="sRGB">
<feFlood flood-opacity="0" result="BackgroundImageFix"/>
<feColorMatrix in="SourceAlpha" type="matrix" values="0 0 0 0 0 0 0 0 0 0 0 0 0 0 0 0 0 0 127 0"/>
<feOffset dx="-1"/>
<feGaussianBlur stdDeviation="0.5"/>
<feColorMatrix type="matrix" values="0 0 0 0 0 0 0 0 0 0 0 0 0 0 0 0 0 0 0.25 0"/>
<feBlend mode="normal" in2="BackgroundImageFix" result="effect1_dropShadow"/>
<feBlend mode="normal" in="SourceGraphic" in2="effect1_dropShadow" result="shape"/>
</filter>
<filter id="filter11_f" x="24" y="47" width="5" height="73" filterUnits="userSpaceOnUse" color-interpolation-filters="sRGB">
<feFlood flood-opacity="0" result="BackgroundImageFix"/>
<feBlend mode="normal" in="SourceGraphic" in2="BackgroundImageFix" result="shape"/>
<feGaussianBlur stdDeviation="1" result="effect1_foregroundBlur"/>
</filter>
<linearGradient id="paint0_linear" x1="34" y1="7" x2="34" y2="100" gradientUnits="userSpaceOnUse">
<stop offset="0.124189" stop-color="#AAA7A7"/>
<stop offset="0.363407" stop-color="#878484"/>
</linearGradient>
<linearGradient id="paint1_linear" x1="49.8653" y1="31.5455" x2="58.3359" y2="31.5455" gradientUnits="userSpaceOnUse">
<stop stop-color="#7F7C7C"/>
<stop offset="0.475376" stop-color="#BCB5B5"/>
<stop offset="1" stop-color="#474545"/>
<stop offset="1" stop-color="#847F7F"/>
</linearGradient>
<linearGradient id="paint2_linear" x1="42.5147" y1="33.5455" x2="50.9853" y2="33.5455" gradientUnits="userSpaceOnUse">
<stop stop-color="#7F7C7C"/>
<stop offset="0.475376" stop-color="#BCB5B5"/>
<stop offset="1" stop-color="#474545"/>
<stop offset="1" stop-color="#847F7F"/>
</linearGradient>
<linearGradient id="paint3_linear" x1="35.0655" y1="36.5455" x2="43.5361" y2="36.5455" gradientUnits="userSpaceOnUse">
<stop stop-color="#7F7C7C"/>
<stop offset="0.475376" stop-color="#BCB5B5"/>
<stop offset="1" stop-color="#474545"/>
<stop offset="1" stop-color="#847F7F"/>
</linearGradient>
<linearGradient id="paint4_linear" x1="27.3653" y1="38.5455" x2="35.8359" y2="38.5455" gradientUnits="userSpaceOnUse">
<stop stop-color="#7F7C7C"/>
<stop offset="0.475376" stop-color="#BCB5B5"/>
<stop offset="1" stop-color="#474545"/>
<stop offset="1" stop-color="#847F7F"/>
</linearGradient>
<linearGradient id="paint5_linear" x1="20.3653" y1="41.5455" x2="28.8359" y2="41.5455" gradientUnits="userSpaceOnUse">
<stop stop-color="#7F7C7C"/>
<stop offset="0.475376" stop-color="#BCB5B5"/>
<stop offset="1" stop-color="#474545"/>
<stop offset="1" stop-color="#847F7F"/>
</linearGradient>
<linearGradient id="paint6_linear" x1="44.1651" y1="38.5455" x2="52.6357" y2="38.5455" gradientUnits="userSpaceOnUse">
<stop stop-color="#7F7C7C"/>
<stop offset="0.475376" stop-color="#BCB5B5"/>
<stop offset="1" stop-color="#474545"/>
<stop offset="1" stop-color="#847F7F"/>
</linearGradient>
<linearGradient id="paint7_linear" x1="35.9649" y1="41.5455" x2="44.4355" y2="41.5455" gradientUnits="userSpaceOnUse">
<stop stop-color="#7F7C7C"/>
<stop offset="0.475376" stop-color="#BCB5B5"/>
<stop offset="1" stop-color="#474545"/>
<stop offset="1" stop-color="#847F7F"/>
</linearGradient>
<linearGradient id="paint8_linear" x1="28.4649" y1="44.5455" x2="36.9355" y2="44.5455" gradientUnits="userSpaceOnUse">
<stop stop-color="#7F7C7C"/>
<stop offset="0.475376" stop-color="#BCB5B5"/>
<stop offset="1" stop-color="#474545"/>
<stop offset="1" stop-color="#847F7F"/>
</linearGradient>
<linearGradient id="paint9_linear" x1="12.9649" y1="44.5455" x2="21.4355" y2="44.5455" gradientUnits="userSpaceOnUse">
<stop stop-color="#7F7C7C"/>
<stop offset="0.475376" stop-color="#BCB5B5"/>
<stop offset="1" stop-color="#474545"/>
<stop offset="1" stop-color="#847F7F"/>
</linearGradient>
<linearGradient id="paint10_linear" x1="20.9649" y1="46.5455" x2="29.4355" y2="46.5455" gradientUnits="userSpaceOnUse">
<stop stop-color="#7F7C7C"/>
<stop offset="0.475376" stop-color="#BCB5B5"/>
<stop offset="1" stop-color="#474545"/>
<stop offset="1" stop-color="#847F7F"/>
</linearGradient>
<linearGradient id="paint11_linear" x1="69" y1="0" x2="69" y2="28" gradientUnits="userSpaceOnUse">
<stop stop-color="#5E5C5C"/>
<stop offset="1" stop-color="#858282"/>
</linearGradient>
<linearGradient id="paint12_linear" x1="70" y1="26.5" x2="70.5" y2="97" gradientUnits="userSpaceOnUse">
<stop stop-color="#767575"/>
<stop offset="1" stop-color="#C4C4C4" stop-opacity="0"/>
</linearGradient>
<linearGradient id="paint13_linear" x1="67.9171" y1="36.2348" x2="76.4883" y2="36.2348" gradientUnits="userSpaceOnUse">
<stop stop-color="#7F7C7C"/>
<stop offset="0.475376" stop-color="#BCB5B5"/>
<stop offset="1" stop-color="#8C8888"/>
</linearGradient>
<linearGradient id="paint14_linear" x1="57.4151" y1="28.5455" x2="65.8857" y2="28.5455" gradientUnits="userSpaceOnUse">
<stop stop-color="#7F7C7C"/>
<stop offset="0.475376" stop-color="#BCB5B5"/>
<stop offset="1" stop-color="#474545"/>
<stop offset="1" stop-color="#847F7F"/>
</linearGradient>
<linearGradient id="paint15_linear" x1="59.3653" y1="33.5455" x2="67.8359" y2="33.5455" gradientUnits="userSpaceOnUse">
<stop stop-color="#7F7C7C"/>
<stop offset="0.475376" stop-color="#BCB5B5"/>
<stop offset="1" stop-color="#474545"/>
<stop offset="1" stop-color="#847F7F"/>
</linearGradient>
<linearGradient id="paint16_linear" x1="60.3673" y1="39.2348" x2="68.9385" y2="39.2348" gradientUnits="userSpaceOnUse">
<stop stop-color="#7F7C7C"/>
<stop offset="0.475376" stop-color="#BCB5B5"/>
<stop offset="1" stop-color="#8C8888"/>
</linearGradient>
<linearGradient id="paint17_linear" x1="38.5" y1="0" x2="38.5" y2="24" gradientUnits="userSpaceOnUse">
<stop offset="0.529032" stop-color="#4F4F4F"/>
<stop offset="1" stop-color="#4B4848" stop-opacity="0.79"/>
</linearGradient>
<linearGradient id="paint18_linear" x1="52.4171" y1="26.0833" x2="60.9883" y2="26.0833" gradientUnits="userSpaceOnUse">
<stop stop-color="#7F7C7C"/>
<stop offset="0.475376" stop-color="#BCB5B5"/>
<stop offset="1" stop-color="#8C8888"/>
</linearGradient>
<linearGradient id="paint19_linear" x1="52.4669" y1="46.5455" x2="61.0383" y2="46.5455" gradientUnits="userSpaceOnUse">
<stop stop-color="#CBC9C9"/>
<stop offset="0.475376" stop-color="#F8F1F1"/>
<stop offset="1" stop-color="#CAC7C7"/>
</linearGradient>
<linearGradient id="paint20_linear" x1="44.9649" y1="43.5455" x2="53.4355" y2="43.5455" gradientUnits="userSpaceOnUse">
<stop stop-color="#CBC9C9"/>
<stop offset="0.475376" stop-color="#F8F1F1"/>
<stop offset="1" stop-color="#CAC7C7"/>
</linearGradient>
<linearGradient id="paint21_linear" x1="37.4649" y1="46.5455" x2="45.9355" y2="46.5455" gradientUnits="userSpaceOnUse">
<stop stop-color="#7F7C7C"/>
<stop offset="0.475376" stop-color="#BCB5B5"/>
<stop offset="1" stop-color="#8C8888"/>
</linearGradient>
<linearGradient id="paint22_linear" x1="30.4649" y1="49.5455" x2="38.9355" y2="49.5455" gradientUnits="userSpaceOnUse">
<stop stop-color="#7F7C7C"/>
<stop offset="0.475376" stop-color="#BCB5B5"/>
<stop offset="1" stop-color="#8C8888"/>
</linearGradient>
<linearGradient id="paint23_linear" x1="22.9649" y1="51.5455" x2="31.4355" y2="51.5455" gradientUnits="userSpaceOnUse">
<stop stop-color="#7F7C7C"/>
<stop offset="0.475376" stop-color="#BCB5B5"/>
<stop offset="1" stop-color="#8C8888"/>
</linearGradient>
<linearGradient id="paint24_linear" x1="16.5" y1="38" x2="16.5" y2="118" gradientUnits="userSpaceOnUse">
<stop stop-color="#B2B0B0"/>
<stop offset="1" stop-color="#716F6F" stop-opacity="0.98"/>
</linearGradient>
<linearGradient id="paint25_linear" x1="53" y1="50" x2="53" y2="118" gradientUnits="userSpaceOnUse">
<stop stop-color="#C0BDBD"/>
<stop offset="1" stop-color="#8B8989"/>
</linearGradient>
<linearGradient id="paint26_linear" x1="-3" y1="36.5" x2="8" y2="47" gradientUnits="userSpaceOnUse">
<stop stop-color="#C4C4C4"/>
<stop offset="1" stop-color="#C4C4C4" stop-opacity="0"/>
</linearGradient>
</defs>
</svg>
