<svg width="116" height="136" viewBox="0 0 116 136" fill="none" xmlns="http://www.w3.org/2000/svg">
<path d="M0 89.1392L28 101.139V135.139L0 123.698V89.1392Z" fill="url(#paint0_linear)"/>
<path d="M29 135.139L57 123.139V89.1392L29 101.139L29 135.139Z" fill="url(#paint1_linear)"/>
<path d="M0 88.2325L28.5 100.139L57.1472 88.2325L29 77.1392L0 88.2325Z" fill="url(#paint2_linear)"/>
<path d="M29 41.1392L57 53.1392V86.1392L29 75.1392V41.1392Z" fill="url(#paint3_linear)"/>
<path d="M58 86.1392L87 75.1392V41.1392L58 53.1392V86.1392Z" fill="url(#paint4_linear)"/>
<path d="M29 40.1392L58 52.1392L87 40.1392L58 28.1392L29 40.1392Z" fill="url(#paint5_linear)"/>
<path d="M59 89.1392L87 101.139V135.139L59 123.139V89.1392Z" fill="url(#paint6_linear)"/>
<path d="M88 135.139L116 123.205L116 89.1392L88 101.139V135.139Z" fill="url(#paint7_linear)"/>
<path d="M59 88.1392L87.5 100.139L116 88.1392L87 77.1392L59 88.1392Z" fill="url(#paint8_linear)"/>
<defs>
<linearGradient id="paint0_linear" x1="14" y1="89.1392" x2="14" y2="135.139" gradientUnits="userSpaceOnUse">
<stop stop-color="#A09E9E"/>
<stop offset="1" stop-color="#2E2D2D"/>
</linearGradient>
<linearGradient id="paint1_linear" x1="48" y1="135" x2="43" y2="89.1392" gradientUnits="userSpaceOnUse">
<stop stop-color="#2E2D2D"/>
<stop offset="0.717076" stop-color="#828282"/>
</linearGradient>
<linearGradient id="paint2_linear" x1="45.5" y1="107.5" x2="50.6951" y2="83.728" gradientUnits="userSpaceOnUse">
<stop offset="0.322098" stop-color="#C4C4C4"/>
<stop offset="1" stop-color="#4F4F4F"/>
</linearGradient>
<linearGradient id="paint3_linear" x1="43" y1="41.1392" x2="43" y2="86.1392" gradientUnits="userSpaceOnUse">
<stop stop-color="#A09E9E"/>
<stop offset="1" stop-color="#2E2D2D"/>
</linearGradient>
<linearGradient id="paint4_linear" x1="72.5" y1="86.1392" x2="72.5" y2="41.1392" gradientUnits="userSpaceOnUse">
<stop stop-color="#2E2D2D"/>
<stop offset="1" stop-color="#828282"/>
</linearGradient>
<linearGradient id="paint5_linear" x1="58" y1="59" x2="77.9687" y2="28.6336" gradientUnits="userSpaceOnUse">
<stop stop-color="#4F4F4F"/>
<stop offset="1" stop-color="#C4C4C4" stop-opacity="0"/>
</linearGradient>
<linearGradient id="paint6_linear" x1="73" y1="89.1392" x2="73" y2="135.139" gradientUnits="userSpaceOnUse">
<stop stop-color="#A09E9E"/>
<stop offset="1" stop-color="#2E2D2D"/>
</linearGradient>
<linearGradient id="paint7_linear" x1="107.5" y1="135" x2="102" y2="89.1392" gradientUnits="userSpaceOnUse">
<stop stop-color="#2E2D2D"/>
<stop offset="0.658825" stop-color="#828282"/>
</linearGradient>
<linearGradient id="paint8_linear" x1="113" y1="110.5" x2="92.1331" y2="70.5508" gradientUnits="userSpaceOnUse">
<stop offset="0.322098" stop-color="#C4C4C4"/>
<stop offset="1" stop-color="#4F4F4F"/>
</linearGradient>
</defs>
</svg>
