<svg width="112" height="90" viewBox="0 0 112 90" fill="none" xmlns="http://www.w3.org/2000/svg">
<path d="M0 6H79V60C79 76.5685 65.5685 90 49 90H30C13.4315 90 0 76.5685 0 60V6Z" fill="url(#paint0_linear)"/>
<ellipse cx="39.5" cy="6" rx="39.5" ry="6" fill="url(#paint1_linear)"/>
<path d="M79 6C80.0566 8.64152 85.4919 9.57876 92.3473 9.89088C103.216 10.3857 112 18.7739 112 29.6535C112 48.0242 98.764 62.2831 81.8222 69.3865C79.0301 70.5572 76.9613 71.7641 76 73L79 6Z" fill="#C4C4C4"/>
<path d="M78.016 20.9035C78.0684 18.7326 79.8433 17 82.0148 17H88.9015C97.2402 17 104 23.7599 104 32.0986C104 44.8914 95.9389 56.2961 83.8793 60.5649L77 63L78.016 20.9035Z" fill="white"/>
<defs>
<linearGradient id="paint0_linear" x1="0" y1="48" x2="77.5" y2="48" gradientUnits="userSpaceOnUse">
<stop stop-color="#BEBCBC"/>
<stop offset="0.165746" stop-color="#EDE8E8" stop-opacity="0.89"/>
<stop offset="0.331492" stop-color="#ECE6E6" stop-opacity="0.89"/>
<stop offset="0.541436" stop-color="#ABABAB"/>
<stop offset="0.850829" stop-color="#9D9898"/>
<stop offset="1" stop-color="#D0CCCC"/>
</linearGradient>
<linearGradient id="paint1_linear" x1="39" y1="6" x2="77.5" y2="6" gradientUnits="userSpaceOnUse">
<stop stop-color="#828282"/>
<stop offset="0.491613" stop-color="#D1CCCC" stop-opacity="0.89"/>
<stop offset="0.674033" stop-color="#ECE6E6" stop-opacity="0.89"/>
<stop offset="1" stop-color="#828282"/>
</linearGradient>
</defs>
</svg>
