<svg width="81" height="50" viewBox="0 0 81 50" fill="none" xmlns="http://www.w3.org/2000/svg">
<path d="M36 27.9073L0 49V7.04245L36 27.9073Z" fill="#C4C4C4"/>
<path d="M0 7.02703L35 0L71 20.8803L36 27.9073L0 7.02703Z" fill="url(#paint0_linear)"/>
<path d="M36 27.9073L71 20.8803L35 41.9614L0 48.9884L36 27.9073Z" fill="url(#paint1_linear)"/>
<path d="M36 6.23723L71 -2.69634e-06L81 2.33683e-05L46 6.23725L36 6.23723Z" fill="url(#paint2_linear)"/>
<path d="M46 6.23726L81 3.05176e-05V42.8809L46 49.1182V6.23726Z" fill="url(#paint3_linear)"/>
<path d="M36 6.23724H46V49.1182H36V6.23724Z" fill="#C4C4C4"/>
<defs>
<linearGradient id="paint0_linear" x1="33" y1="27.9073" x2="47.5883" y2="-0.154858" gradientUnits="userSpaceOnUse">
<stop stop-color="#4F4F4F"/>
<stop offset="0.801131" stop-color="white" stop-opacity="0"/>
</linearGradient>
<linearGradient id="paint1_linear" x1="14.5" y1="36.9421" x2="44.4531" y2="87.6648" gradientUnits="userSpaceOnUse">
<stop offset="0.0297365" stop-color="#4F4F4F"/>
<stop offset="0.254644" stop-color="white" stop-opacity="0"/>
</linearGradient>
<linearGradient id="paint2_linear" x1="67" y1="6.3486" x2="67" y2="-10.581" gradientUnits="userSpaceOnUse">
<stop stop-color="#4F4F4F"/>
<stop offset="0.38832" stop-color="white" stop-opacity="0"/>
</linearGradient>
<linearGradient id="paint3_linear" x1="44.5" y1="28.6244" x2="80.9991" y2="28.8006" gradientUnits="userSpaceOnUse">
<stop offset="0.0297365" stop-color="#4F4F4F"/>
<stop offset="1" stop-color="white" stop-opacity="0"/>
</linearGradient>
</defs>
</svg>
