<svg width="75" height="52" viewBox="0 0 75 52" fill="none" xmlns="http://www.w3.org/2000/svg">
<path d="M0 6.61818L35 0H65L30 6.61818L0 6.61818Z" fill="url(#paint0_linear)"/>
<path d="M30 6.61818L65 0L75 9L40 16L30 6.61818Z" fill="url(#paint1_linear)"/>
<path d="M40 16L75 8.99999V45L40 51.9999V16Z" fill="url(#paint2_linear)"/>
<path fill-rule="evenodd" clip-rule="evenodd" d="M30 6.5L0 6.61821V52H40V16L30 6.5ZM8 24H32V26H8V24ZM8 32H32V34H8V32ZM32 40H8V42H32V40Z" fill="#C4C4C4"/>
<path d="M30 6.5L40 16H30V6.5Z" fill="#828282"/>
<defs>
<linearGradient id="paint0_linear" x1="33" y1="6.61818" x2="33" y2="-11.3454" gradientUnits="userSpaceOnUse">
<stop stop-color="#4F4F4F"/>
<stop offset="0.38832" stop-color="white" stop-opacity="0"/>
</linearGradient>
<linearGradient id="paint1_linear" x1="40.5" y1="16" x2="66" y2="-12.5" gradientUnits="userSpaceOnUse">
<stop stop-color="#4F4F4F"/>
<stop offset="0.639033" stop-color="white" stop-opacity="0"/>
</linearGradient>
<linearGradient id="paint2_linear" x1="38.5" y1="30.2545" x2="74.9992" y2="30.4205" gradientUnits="userSpaceOnUse">
<stop offset="0.0297365" stop-color="#4F4F4F"/>
<stop offset="1" stop-color="white" stop-opacity="0"/>
</linearGradient>
</defs>
</svg>
