<svg width="119" height="117" viewBox="0 0 119 117" fill="none" xmlns="http://www.w3.org/2000/svg">
<path d="M2.72864 2.59616C2.88321 2.22976 3.25688 2.01028 3.65423 2.02617L26.4573 2.93829C27.4797 2.97919 28.4898 3.17677 29.4523 3.52413L54.6 12.6L49.1 22.5L28.5769 10.2406C27.212 9.4253 25.6724 8.94717 24.0857 8.8459L3.58942 7.53762C3.22582 7.51441 2.89987 7.29615 2.75885 6.96021C2.0658 5.3093 2.05328 4.19716 2.72864 2.59616Z" fill="url(#paint0_linear)"/>
<g filter="url(#filter0_f)">
<path d="M2.69139 3.57974C2.89461 3.23792 3.25688 3.01028 3.65423 3.02617L26.4573 3.93829C27.4797 3.97919 28.4898 4.17677 29.4523 4.52413L54.6 13.6L50 21L28.573 8.23497C27.2106 7.42331 25.6746 6.94731 24.0919 6.84629L3.58942 5.53762C3.22582 5.51441 2.90908 5.29127 2.73143 4.97317C2.07824 3.80354 2.06267 4.63729 2.69139 3.57974Z" fill="url(#paint1_linear)"/>
</g>
<g filter="url(#filter1_i)">
<path d="M54.4342 12.9032C55.0073 11.8799 56.3339 11.5671 57.3038 12.2266L67.2364 18.9808C67.734 19.3191 68.3217 19.5 68.9234 19.5H73.8809C74.6027 19.5 75.3003 19.7602 75.8457 20.2329L103.205 43.9446C104.257 44.856 104.544 46.371 103.898 47.6037L99.5 56L110.861 88.1902C111.218 89.2016 110.714 90.3145 109.718 90.7128L103.17 93.3319C102.221 93.7118 101.137 93.3138 100.659 92.4095L83.5014 59.9487C83.1883 59.3562 82.5991 58.9599 81.9323 58.8932L49.2888 55.6289C48.5046 55.5505 47.8396 55.0189 47.5904 54.2713L44.7262 45.6786C44.5799 45.2398 44.5903 44.7639 44.7555 44.3319L50.6671 28.8707C50.8781 28.3187 50.8343 27.7017 50.5473 27.1851L49.0418 24.4752C48.705 23.869 48.7063 23.1317 49.0451 22.5267L54.4342 12.9032Z" fill="url(#paint2_linear)"/>
</g>
<g filter="url(#filter2_di)">
<path d="M57.8417 23.5352C57.9471 23.5118 58.0504 23.4799 58.1506 23.4398L67.4636 19.7146C67.8179 19.5728 68.1961 19.5 68.5777 19.5H73.8809C74.6027 19.5 75.3003 19.7602 75.8457 20.2329L103.205 43.9446C104.257 44.856 104.544 46.371 103.898 47.6037L99.9531 55.135C99.6672 55.6809 99.1455 56.0644 98.5392 56.1747L83.2768 58.9497C83.0932 58.9831 82.9058 58.9906 82.72 58.972L49.2888 55.6289C48.5046 55.5505 47.8396 55.0189 47.5904 54.2713L44.7262 45.6786C44.5799 45.2398 44.5903 44.7639 44.7555 44.3319L50.9084 28.2395C50.9692 28.0805 51.0501 27.9299 51.1491 27.7913L51.2727 27.6182C52.7067 25.6106 54.8323 24.2039 57.2407 23.6687L57.8417 23.5352Z" fill="url(#paint3_linear)"/>
</g>
<g filter="url(#filter3_f)">
<path d="M57.8417 23.5352C57.9471 23.5118 58.0504 23.4799 58.1506 23.4398L67.4636 19.7146C67.8179 19.5728 68.1961 19.5 68.5777 19.5H73.9211C74.6185 19.5 75.2941 19.743 75.8318 20.1871L84.3592 27.2315C85.5674 28.2296 85.8038 29.9893 84.902 31.2709L77.6841 41.5279C77.2624 42.1271 76.547 42.4477 75.8192 42.3638L64.9006 41.1039C64.3282 41.0379 63.7552 41.2219 63.3283 41.6088L50.2712 53.4418C49.2011 54.4115 47.4874 53.9622 47.0307 52.5922L44.7262 45.6786C44.5799 45.2398 44.5903 44.7639 44.7555 44.3319L50.9084 28.2395C50.9692 28.0805 51.0501 27.9299 51.1491 27.7913L51.2727 27.6182C52.7067 25.6106 54.8323 24.2039 57.2407 23.6687L57.8417 23.5352Z" fill="url(#paint4_linear)" fill-opacity="0.5"/>
</g>
<path d="M52 56L70 57.5L66.8105 59.5731C63.2239 61.9044 62.4745 66.9476 64.8863 70.4806C66.1302 72.3027 67.5334 74.4858 69 77C70.2853 79.2034 71.2335 81.2719 71.9188 83.0075C72.9672 85.6628 75.8176 87.4206 78.5872 86.7282L93.9436 82.8891C94.853 82.6618 95.7983 83.0965 96.2175 83.935L98.765 89.0301C99.3738 90.2476 98.6148 91.7044 97.2681 91.9031L73.0386 95.4779C70.9224 95.7901 68.842 94.7216 67.8631 92.8197L52.9055 63.7593C52.3238 62.6291 52.1944 61.3197 52.5436 60.0975L53 58.5L52 56Z" fill="#1F1F1F"/>
<path d="M51 55.5L69.5 57.5L63.2049 61.9066C61.1013 63.3791 60.4551 66.2055 61.7096 68.4458L71.6524 86.2007C72.7454 88.1525 75.002 89.1408 77.1778 88.6205L94.9973 84.3594C95.8824 84.1477 96.7988 84.5603 97.2271 85.3633L99.1542 88.9766C99.8079 90.2023 99.0436 91.7048 97.668 91.8983L72.0167 95.5055C69.9108 95.8016 67.848 94.7333 66.8748 92.8424L51.9055 63.7593C51.3238 62.6291 51.1944 61.3197 51.5436 60.0975L52 58.5L51 55.5Z" fill="url(#paint5_linear)"/>
<path d="M103 93.5L110.5 90.5L112 96L105 99L103 93.5Z" fill="url(#paint6_linear)"/>
<g filter="url(#filter4_i)">
<path d="M107 105.5L114 102.5L116.5 112.5H109.5L107 105.5Z" fill="url(#paint7_linear)"/>
</g>
<g filter="url(#filter5_f)">
<path d="M110.5 104L112.5 103C114.387 106.835 114.5 108.5 115 112.5H113C113 109 112.666 107.024 110.5 104Z" fill="#C4C4C4"/>
</g>
<g filter="url(#filter6_i)">
<path d="M104.5 99L112.5 95.8L114 101.5L113.5 102.5L108 105L106.5 105L104.5 99Z" fill="url(#paint8_linear)"/>
</g>
<g filter="url(#filter7_i)">
<path d="M69.2 58L75.4074 59.335C77.2198 59.7248 78.5269 61.3088 78.5655 63.1622L78.9724 82.6947C78.9873 83.4112 78.4106 84 77.694 84C77.0216 84 76.4641 83.4792 76.4184 82.8083L75.2162 65.1762C75.0894 63.3172 73.6958 61.7919 71.8558 61.4983L65.5996 60.5C66 60 67 59.5 69.2 58Z" fill="url(#paint9_linear)"/>
</g>
<path d="M15.8182 1.00002C17.4403 0.994764 17.6364 2.04424 18 2.56633H17.2727C17.2727 2.56633 16.5073 1.56827 15.8182 2.04422C15.2459 2.43947 15.1789 3.10399 15.0907 3.61053C14.7273 5.6989 15.5 8.5 15.5 8.5C15.2467 8.91317 14.7273 8.83151 14.3636 8.30941C14 7.78732 14 4.13263 14 4.13263C14 4.13263 14.196 1.00528 15.8182 1.00002Z" fill="url(#paint10_linear)"/>
<path d="M20.8615 1.09241C22.4262 1.52045 22.9898 2.20977 23.2009 2.81L22.4 2.77999C22.4 2.77999 21.374 1.82403 20.5828 2.0987C19.9257 2.32681 19.6837 2.94932 19.4635 3.41394C18.5557 5.32946 19 9 19 9C18.6455 9.33053 18.1668 9.11316 17.9558 8.51293C17.7447 7.9127 18.273 3.62586 18.273 3.62586C18.273 3.62586 19.2969 0.664379 20.8615 1.09241Z" fill="url(#paint11_linear)"/>
<path d="M29.1464 1.85414C30.5241 2.71059 30.8677 3.53202 30.8988 4.16751L30.1398 3.91037C30.1398 3.91037 29.429 2.70151 28.5923 2.73915C27.8974 2.7704 27.488 3.29807 27.1444 3.6806C25.728 5.25769 25 9 25 9C24.566 9.21573 24.0311 9.13549 24 8.5C23.9689 7.86451 25.9429 3.54422 25.9429 3.54422C25.9429 3.54422 27.7688 0.997692 29.1464 1.85414Z" fill="url(#paint12_linear)"/>
<path d="M36.5005 4.00001C38.0005 4.49999 37.9694 5.9845 38.0005 6.61999L37.0005 6.24999C37.0005 6.24999 36.8372 4.96238 36.0005 5.00001C35.3057 5.03127 34.4852 6.40898 34.1416 6.79151C32.7252 8.36861 31.9972 12.1109 31.9972 12.1109C31.5632 12.3266 31.0283 12.2464 30.9972 11.6109C30.9661 10.9754 32.9401 6.65514 32.9401 6.65514C32.9401 6.65514 35.0005 3.50004 36.5005 4.00001Z" fill="url(#paint13_linear)"/>
<path d="M45.999 7C47.9999 7.49995 47.1919 9.29349 46.9996 9.89997L46.0004 9.49989C46.0004 9.49989 46.9998 8.49994 45.9998 7.99994C44.9998 7.49994 40.8429 10.7575 40.4693 11.1107C38.9998 12.4999 36.6052 15.3491 36.6052 15.3491C36.1233 15.4001 35.6499 15.1384 35.8422 14.5319C36.0346 13.9254 39.3906 10.5641 39.3906 10.5641C39.3906 10.5641 43.998 6.50005 45.999 7Z" fill="url(#paint14_linear)"/>
<path d="M53.9999 11.5001C53.9999 11.5001 54.4999 11.5 55.4999 12C55.4999 12 55.0002 12.6 54.4999 12.6C53.4999 12.1 50.8733 17.6469 50.4997 18.0001C49.4997 20.0001 48.9996 22.5 48.9996 22.5C48.5176 22.5509 48.4997 22.5001 48.2365 21.6828C47.9997 21.0001 48.9997 18.0001 48.9997 18.0001C48.9997 18.0001 52 11.5 53.9999 11.5001Z" fill="url(#paint15_linear)"/>
<g filter="url(#filter8_f)">
<path d="M94 59L97.9998 58L108.647 85.9374C109.406 87.9279 108.458 90.1623 106.499 90.9999L108.5 87L98.5 60L94 59Z" fill="#C4C4C4"/>
</g>
<g filter="url(#filter9_f)">
<path d="M85.5005 60.0001L84.5003 60.4999L101.431 92.2882C101.64 92.681 102.157 92.7834 102.5 92.5L88.0005 64.5001L85.5005 60.0001Z" fill="#1F1F1F"/>
</g>
<g filter="url(#filter10_f)">
<path d="M52 19L58 23C54.6519 24.0143 53 25.5 52 26.5C52.5154 24.7281 53.3157 22.8025 52 19Z" fill="#828282"/>
</g>
<g filter="url(#filter11_f)">
<path d="M102.5 45H102.8C104.3 46 103.3 48 102.3 49H101.9C103 47.5 104 46.5 102.5 45Z" fill="white"/>
</g>
<defs>
<filter id="filter0_f" x="0.230469" y="1.02539" width="56.3695" height="21.9746" filterUnits="userSpaceOnUse" color-interpolation-filters="sRGB">
<feFlood flood-opacity="0" result="BackgroundImageFix"/>
<feBlend mode="normal" in="SourceGraphic" in2="BackgroundImageFix" result="shape"/>
<feGaussianBlur stdDeviation="1" result="effect1_foregroundBlur"/>
</filter>
<filter id="filter1_i" x="44.6235" y="11.8801" width="66.3522" height="84.5952" filterUnits="userSpaceOnUse" color-interpolation-filters="sRGB">
<feFlood flood-opacity="0" result="BackgroundImageFix"/>
<feBlend mode="normal" in="SourceGraphic" in2="BackgroundImageFix" result="shape"/>
<feColorMatrix in="SourceAlpha" type="matrix" values="0 0 0 0 0 0 0 0 0 0 0 0 0 0 0 0 0 0 127 0" result="hardAlpha"/>
<feOffset dy="3"/>
<feGaussianBlur stdDeviation="2"/>
<feComposite in2="hardAlpha" operator="arithmetic" k2="-1" k3="1"/>
<feColorMatrix type="matrix" values="0 0 0 0 0 0 0 0 0 0 0 0 0 0 0 0 0 0 0.25 0"/>
<feBlend mode="normal" in2="shape" result="effect1_innerShadow"/>
</filter>
<filter id="filter2_di" x="40.6235" y="16.5" width="67.6171" height="47.4819" filterUnits="userSpaceOnUse" color-interpolation-filters="sRGB">
<feFlood flood-opacity="0" result="BackgroundImageFix"/>
<feColorMatrix in="SourceAlpha" type="matrix" values="0 0 0 0 0 0 0 0 0 0 0 0 0 0 0 0 0 0 127 0"/>
<feOffset dy="1"/>
<feGaussianBlur stdDeviation="2"/>
<feColorMatrix type="matrix" values="0 0 0 0 0 0 0 0 0 0 0 0 0 0 0 0 0 0 0.25 0"/>
<feBlend mode="normal" in2="BackgroundImageFix" result="effect1_dropShadow"/>
<feBlend mode="normal" in="SourceGraphic" in2="effect1_dropShadow" result="shape"/>
<feColorMatrix in="SourceAlpha" type="matrix" values="0 0 0 0 0 0 0 0 0 0 0 0 0 0 0 0 0 0 127 0" result="hardAlpha"/>
<feOffset dy="3"/>
<feGaussianBlur stdDeviation="2"/>
<feComposite in2="hardAlpha" operator="arithmetic" k2="-1" k3="1"/>
<feColorMatrix type="matrix" values="0 0 0 0 0 0 0 0 0 0 0 0 0 0 0 0 0 0 0.25 0"/>
<feBlend mode="normal" in2="shape" result="effect2_innerShadow"/>
</filter>
<filter id="filter3_f" x="43.6235" y="18.5" width="42.8251" height="36.4607" filterUnits="userSpaceOnUse" color-interpolation-filters="sRGB">
<feFlood flood-opacity="0" result="BackgroundImageFix"/>
<feBlend mode="normal" in="SourceGraphic" in2="BackgroundImageFix" result="shape"/>
<feGaussianBlur stdDeviation="0.5" result="effect1_foregroundBlur"/>
</filter>
<filter id="filter4_i" x="107" y="102.5" width="9.5" height="13" filterUnits="userSpaceOnUse" color-interpolation-filters="sRGB">
<feFlood flood-opacity="0" result="BackgroundImageFix"/>
<feBlend mode="normal" in="SourceGraphic" in2="BackgroundImageFix" result="shape"/>
<feColorMatrix in="SourceAlpha" type="matrix" values="0 0 0 0 0 0 0 0 0 0 0 0 0 0 0 0 0 0 127 0" result="hardAlpha"/>
<feOffset dy="3"/>
<feGaussianBlur stdDeviation="2"/>
<feComposite in2="hardAlpha" operator="arithmetic" k2="-1" k3="1"/>
<feColorMatrix type="matrix" values="0 0 0 0 0 0 0 0 0 0 0 0 0 0 0 0 0 0 0.25 0"/>
<feBlend mode="normal" in2="shape" result="effect1_innerShadow"/>
</filter>
<filter id="filter5_f" x="106.5" y="99" width="12.5" height="17.5" filterUnits="userSpaceOnUse" color-interpolation-filters="sRGB">
<feFlood flood-opacity="0" result="BackgroundImageFix"/>
<feBlend mode="normal" in="SourceGraphic" in2="BackgroundImageFix" result="shape"/>
<feGaussianBlur stdDeviation="2" result="effect1_foregroundBlur"/>
</filter>
<filter id="filter6_i" x="104.5" y="95.8" width="9.5" height="9.2" filterUnits="userSpaceOnUse" color-interpolation-filters="sRGB">
<feFlood flood-opacity="0" result="BackgroundImageFix"/>
<feBlend mode="normal" in="SourceGraphic" in2="BackgroundImageFix" result="shape"/>
<feColorMatrix in="SourceAlpha" type="matrix" values="0 0 0 0 0 0 0 0 0 0 0 0 0 0 0 0 0 0 127 0" result="hardAlpha"/>
<feOffset/>
<feGaussianBlur stdDeviation="1.5"/>
<feComposite in2="hardAlpha" operator="arithmetic" k2="-1" k3="1"/>
<feColorMatrix type="matrix" values="0 0 0 0 0 0 0 0 0 0 0 0 0 0 0 0 0 0 0.25 0"/>
<feBlend mode="normal" in2="shape" result="effect1_innerShadow"/>
</filter>
<filter id="filter7_i" x="65.5996" y="58" width="13.3731" height="27" filterUnits="userSpaceOnUse" color-interpolation-filters="sRGB">
<feFlood flood-opacity="0" result="BackgroundImageFix"/>
<feBlend mode="normal" in="SourceGraphic" in2="BackgroundImageFix" result="shape"/>
<feColorMatrix in="SourceAlpha" type="matrix" values="0 0 0 0 0 0 0 0 0 0 0 0 0 0 0 0 0 0 127 0" result="hardAlpha"/>
<feOffset dy="1"/>
<feGaussianBlur stdDeviation="2"/>
<feComposite in2="hardAlpha" operator="arithmetic" k2="-1" k3="1"/>
<feColorMatrix type="matrix" values="0 0 0 0 0 0 0 0 0 0 0 0 0 0 0 0 0 0 0.25 0"/>
<feBlend mode="normal" in2="shape" result="effect1_innerShadow"/>
</filter>
<filter id="filter8_f" x="91.4131" y="55.4459" width="21.4447" height="37.554" filterUnits="userSpaceOnUse" color-interpolation-filters="sRGB">
<feFlood flood-opacity="0" result="BackgroundImageFix"/>
<feBlend mode="normal" in="SourceGraphic" in2="BackgroundImageFix" result="shape"/>
<feGaussianBlur stdDeviation="1" result="effect1_foregroundBlur"/>
</filter>
<filter id="filter9_f" x="82.4692" y="56.7292" width="22.0428" height="39.4957" filterUnits="userSpaceOnUse" color-interpolation-filters="sRGB">
<feFlood flood-opacity="0" result="BackgroundImageFix"/>
<feBlend mode="normal" in="SourceGraphic" in2="BackgroundImageFix" result="shape"/>
<feGaussianBlur stdDeviation="1" result="effect1_foregroundBlur"/>
</filter>
<filter id="filter10_f" x="50" y="17" width="10" height="11.5" filterUnits="userSpaceOnUse" color-interpolation-filters="sRGB">
<feFlood flood-opacity="0" result="BackgroundImageFix"/>
<feBlend mode="normal" in="SourceGraphic" in2="BackgroundImageFix" result="shape"/>
<feGaussianBlur stdDeviation="1" result="effect1_foregroundBlur"/>
</filter>
<filter id="filter11_f" x="99.8999" y="43" width="5.66501" height="8" filterUnits="userSpaceOnUse" color-interpolation-filters="sRGB">
<feFlood flood-opacity="0" result="BackgroundImageFix"/>
<feBlend mode="normal" in="SourceGraphic" in2="BackgroundImageFix" result="shape"/>
<feGaussianBlur stdDeviation="1" result="effect1_foregroundBlur"/>
</filter>
<linearGradient id="paint0_linear" x1="27.96" y1="-5.49764" x2="19.4615" y2="15.3912" gradientUnits="userSpaceOnUse">
<stop offset="0.220994" stop-color="#2E2D2D"/>
<stop offset="0.580214" stop-color="#A09E9E"/>
<stop offset="0.989218" stop-color="#2E2D2D"/>
</linearGradient>
<linearGradient id="paint1_linear" x1="27.96" y1="-5.49764" x2="19.4615" y2="15.3912" gradientUnits="userSpaceOnUse">
<stop offset="0.220994" stop-color="#C4C4C4"/>
<stop offset="0.580214" stop-color="white"/>
<stop offset="0.989218" stop-color="#C4C4C4"/>
</linearGradient>
<linearGradient id="paint2_linear" x1="93.5" y1="29" x2="72.5" y2="96" gradientUnits="userSpaceOnUse">
<stop offset="0.105926" stop-color="#4F4F4F"/>
<stop offset="1"/>
</linearGradient>
<linearGradient id="paint3_linear" x1="75" y1="19" x2="87" y2="91.5" gradientUnits="userSpaceOnUse">
<stop offset="0.167681" stop-color="#4F4F4F"/>
<stop offset="0.674573" stop-color="#2E2D2D"/>
</linearGradient>
<linearGradient id="paint4_linear" x1="65.5" y1="19.5" x2="65.5" y2="55.5" gradientUnits="userSpaceOnUse">
<stop stop-color="#2E2D2D"/>
<stop offset="1" stop-color="#2E2D2D" stop-opacity="0"/>
</linearGradient>
<linearGradient id="paint5_linear" x1="75.75" y1="55.5" x2="76" y2="99" gradientUnits="userSpaceOnUse">
<stop stop-color="#2E2D2D"/>
<stop offset="0.900553" stop-color="#2E2D2D"/>
<stop offset="1"/>
</linearGradient>
<linearGradient id="paint6_linear" x1="113.5" y1="88" x2="101.695" y2="91.2217" gradientUnits="userSpaceOnUse">
<stop offset="0.0883978" stop-color="#2E2D2D"/>
<stop offset="0.712707" stop-color="white"/>
<stop offset="1" stop-color="#4F4F4F"/>
</linearGradient>
<linearGradient id="paint7_linear" x1="116" y1="107" x2="108.393" y2="111.21" gradientUnits="userSpaceOnUse">
<stop offset="0.105926" stop-color="#4F4F4F"/>
<stop offset="1"/>
</linearGradient>
<linearGradient id="paint8_linear" x1="115.583" y1="93.0942" x2="103.08" y2="96.4219" gradientUnits="userSpaceOnUse">
<stop offset="0.0883978" stop-color="#2E2D2D"/>
<stop offset="0.712707" stop-color="white"/>
<stop offset="1" stop-color="#4F4F4F"/>
</linearGradient>
<linearGradient id="paint9_linear" x1="72.2996" y1="58" x2="77.5" y2="87.5" gradientUnits="userSpaceOnUse">
<stop stop-color="#828282"/>
<stop offset="0.801105" stop-color="#F1EDEC"/>
<stop offset="1" stop-color="#2E2D2D"/>
</linearGradient>
<linearGradient id="paint10_linear" x1="15.9652" y1="-1.83917" x2="10.3113" y2="1.73624" gradientUnits="userSpaceOnUse">
<stop offset="0.198895" stop-color="#2E2D2D"/>
<stop offset="0.805766" stop-color="#C4C4C4"/>
<stop offset="1" stop-color="#4F4F4F"/>
</linearGradient>
<linearGradient id="paint11_linear" x1="22.0731" y1="-1.75246" x2="14.9712" y2="0.566228" gradientUnits="userSpaceOnUse">
<stop offset="0.198895" stop-color="#2E2D2D"/>
<stop offset="0.805766" stop-color="#C4C4C4"/>
<stop offset="1" stop-color="#4F4F4F"/>
</linearGradient>
<linearGradient id="paint12_linear" x1="31.1754" y1="-0.61731" x2="23.6285" y2="-0.535968" gradientUnits="userSpaceOnUse">
<stop offset="0.198895" stop-color="#2E2D2D"/>
<stop offset="0.805766" stop-color="#C4C4C4"/>
<stop offset="1" stop-color="#4F4F4F"/>
</linearGradient>
<linearGradient id="paint13_linear" x1="38.8427" y1="1.18195" x2="31.417" y2="0.690641" gradientUnits="userSpaceOnUse">
<stop offset="0.198895" stop-color="#2E2D2D"/>
<stop offset="0.805766" stop-color="#C4C4C4"/>
<stop offset="1" stop-color="#4F4F4F"/>
</linearGradient>
<linearGradient id="paint14_linear" x1="50.7389" y1="4.35797" x2="44.1906" y2="0.325916" gradientUnits="userSpaceOnUse">
<stop offset="0.198895" stop-color="#2E2D2D"/>
<stop offset="0.805766" stop-color="#C4C4C4"/>
<stop offset="1" stop-color="#4F4F4F"/>
</linearGradient>
<linearGradient id="paint15_linear" x1="59.7591" y1="10.417" x2="50.3986" y2="6.84498" gradientUnits="userSpaceOnUse">
<stop offset="0.198895" stop-color="#2E2D2D"/>
<stop offset="0.805766" stop-color="#C4C4C4"/>
<stop offset="1" stop-color="#4F4F4F"/>
</linearGradient>
</defs>
</svg>
