<svg width="123" height="116" viewBox="0 0 123 116" fill="none" xmlns="http://www.w3.org/2000/svg">
<path d="M4.51711 110.743C2.21595 108.329 2.37653 104.488 4.87112 102.274L78.7733 36.7024L82.7607 40.7144L12.9532 110.834C10.616 113.182 6.80291 113.141 4.51711 110.743Z" fill="url(#paint0_linear)"/>
<g filter="url(#filter0_i)">
<path d="M75.0008 37C74.2673 34.171 78.0197 34.2177 78.0197 34.2177C78.0197 34.2177 78.6511 35.9568 80.5786 38.0589C82.506 40.1609 84.7664 41.2132 84.7664 41.2132C84.7664 41.2132 85.3087 44.0012 82.5009 44.0001C82 43.9999 79.5 44 77.463 41.8292C75.426 39.6584 75.1813 37.6959 75.0008 37Z" fill="url(#paint1_linear)"/>
</g>
<path d="M72 84.4829H119V96.5276C119 98.0664 118.289 99.5198 116.967 100.307C113.539 102.348 105.947 106 95.5 106C85.0528 106 77.4608 102.348 74.0329 100.307C72.7108 99.5198 72 98.0664 72 96.5276V84.4829Z" fill="url(#paint2_linear)"/>
<g filter="url(#filter1_df)">
<ellipse cx="95.5" cy="86.2932" rx="23.5" ry="11.4655" fill="url(#paint3_linear)"/>
</g>
<g filter="url(#filter2_i)">
<path d="M74.9297 32.5908L94.1928 13.9385C94.3924 13.7453 94.7113 13.7518 94.9028 13.953L105.907 25.5161C106.286 25.9151 106.272 26.546 105.874 26.9273L87.6521 44.399C87.2537 44.781 86.621 44.7679 86.2387 44.3697L74.9297 32.5908Z" fill="url(#paint4_linear)"/>
</g>
<g filter="url(#filter3_d)">
<ellipse cx="95.5" cy="83.276" rx="23.5" ry="12.069" fill="url(#paint5_linear)"/>
</g>
<g filter="url(#filter4_d)">
<path d="M117.795 80.2586C117.795 86.5909 107.813 90.5172 95.5 90.5172C83.1868 90.5172 73.2051 86.5909 73.2051 80.2586C73.2051 73.9264 83.1868 70 95.5 70C107.813 70 117.795 73.9264 117.795 80.2586Z" fill="url(#paint6_linear)"/>
</g>
<path fill-rule="evenodd" clip-rule="evenodd" d="M64.7587 23.3422C64.8195 23.419 64.8831 23.4924 64.9493 23.5624C65.0184 23.6353 65.0906 23.7044 65.1659 23.77L64.7587 23.3422ZM79.1454 3C76.0479 3.49764 72.4371 5.11853 69.4373 7.96085C66.4116 10.8276 64.6225 14.3542 64 17.4132L79.1454 3Z" fill="url(#paint7_linear)"/>
<path d="M85.8789 4.08189C88.7633 7.12613 86.3224 14.1221 80.4271 19.7077C74.5319 25.2934 67.4145 27.3537 64.5302 24.3094C61.6458 21.2652 64.0866 14.2693 69.9819 8.68358C75.8772 3.0979 82.9945 1.03765 85.8789 4.08189Z" fill="url(#paint8_linear)"/>
<path d="M64.6381 24.4231C63.7519 23.4918 63.5742 22.096 64.2377 20.9949C65.8674 18.2905 69.0627 13.2948 71.9997 10.4998C74.9208 7.71991 79.883 4.93135 82.5881 3.51289C83.7124 2.92331 85.0765 3.17531 85.9517 4.09499C88.5893 6.86661 87.912 11.3978 84.7435 13.5424C82.7082 14.9201 80.5787 16.4962 78.999 17.9995C77.383 19.5374 75.6395 21.6679 74.1106 23.7C71.8151 26.7508 67.2702 27.1888 64.6381 24.4231Z" fill="url(#paint9_linear)"/>
<path d="M74.1321 32.2327C73.9436 31.8395 73.834 31.4122 73.9078 30.9825C74.1649 29.4848 75.4702 25.4718 82.0005 19.4995C87.0586 14.8735 91.3344 13.6124 92.8387 13.2934C93.22 13.2126 93.6092 13.2449 93.9855 13.3462C94.4452 13.4699 94.6121 14.0335 94.2904 14.3843C92.6654 16.1562 88.5465 20.6021 85.4997 23.4999C82.1555 26.6807 76.977 30.9698 75.1583 32.4618C74.8229 32.7369 74.3197 32.6239 74.1321 32.2327Z" fill="url(#paint10_linear)"/>
<path d="M73.5007 25.9995C69.1128 25.9987 74.6225 18.0818 77.5008 15.4997C80.3792 12.9175 87.5007 8.49952 88.0007 11.9995C88.3169 14.2129 92.1177 13.5676 92.1177 13.5676C83.9716 20.8687 82.3831 22.8689 74.2371 30.17C74.2371 30.17 75.4997 25.9999 73.5007 25.9995Z" fill="url(#paint11_linear)"/>
<path d="M74.01 25.9909C74.01 25.9909 77.2764 21.2252 80.0098 18.4907C82.7432 15.7562 88.0086 11.9866 88.0086 11.9866L87.5086 8.98655C78 14 76 16 70.0002 25.9998L74.01 25.9909Z" fill="url(#paint12_linear)"/>
<ellipse cx="104.801" cy="44.7865" rx="14.7048" ry="7.59333" transform="rotate(135.987 104.801 44.7865)" fill="url(#paint13_linear)"/>
<path d="M94.7436 54.8566C92.2245 52.2492 94.709 45.7621 100.293 40.3673C105.877 34.9725 112.446 32.7129 114.965 35.3204C117.484 37.9278 116.213 45.57 110.629 50.9648C105.045 56.3596 97.2627 57.4641 94.7436 54.8566Z" fill="url(#paint14_linear)"/>
<path d="M107.5 32.5005C113 35.4999 105.344 40.8961 102.491 43.5061C99.6382 46.1162 92.5601 50.6033 92.026 47.1083C91.6883 44.8981 86.9991 45.0013 86.9991 45.0013C95.0737 37.6211 98.4253 35.3807 106.5 28.0005C106.5 28.0005 105.745 31.5434 107.5 32.5005Z" fill="url(#paint15_linear)"/>
<path d="M106.586 26.1082C106.715 26.3897 106.792 26.6933 106.753 27.0006C106.586 28.3293 105.503 32.4495 98.7178 38.7779C93.4346 43.7056 88.9858 44.9013 87.708 45.1566C87.4639 45.2054 87.2144 45.199 86.9687 45.1588C86.549 45.09 86.3688 44.5886 86.6542 44.2732C88.2343 42.5267 92.3591 38.0151 95.4996 34.9999C98.8155 31.8166 104.143 27.3166 105.8 25.9276C106.057 25.7119 106.446 25.8029 106.586 26.1082Z" fill="url(#paint16_linear)"/>
<path d="M115.268 34.4565C116.163 35.379 116.355 36.773 115.702 37.8805C114.099 40.6007 110.952 45.6273 108.042 48.4508C105.148 51.2589 100.214 54.0957 97.5225 55.5404C96.404 56.1409 95.0375 55.9022 94.1534 54.9911C91.4889 52.2452 92.1221 47.7077 95.2696 45.5323C97.2914 44.1349 99.4054 42.5381 100.97 41.0195C102.571 39.466 104.294 37.3185 105.803 35.2717C108.069 32.1986 112.609 31.7165 115.268 34.4565Z" fill="url(#paint17_linear)"/>
<path d="M106.651 31.4999C106.651 31.4999 102.661 37.7774 99.9546 40.5384C97.7556 42.7815 93.8921 45.7241 92.5202 46.7491C92.2146 46.9774 92.0616 47.3581 92.128 47.7338L92.5487 50.1151C102.008 45.0093 104.099 42.7577 110.001 32.6999C107.111 32.7677 106.951 31.9999 106.651 31.4999Z" fill="url(#paint18_linear)"/>
<g filter="url(#filter5_i)">
<path d="M56.5001 54.0001C57.0204 51.0268 61.2619 52.2231 61.2619 52.2231C61.2619 52.2231 61.0491 53.9155 62.5017 55.4997C63.9544 57.084 66.8223 56.7442 66.8223 56.7442C66.8223 56.7442 67 61 64.5 61.5C62.1824 61.9635 59.4194 60.9133 58.501 60.0007C57.5826 59.0882 56.0753 56.4278 56.5001 54.0001Z" fill="url(#paint19_linear)"/>
</g>
<g filter="url(#filter6_f)">
<path d="M97.9986 48.0801C103.194 45.8007 108.501 38.58 111 34.08C109.001 37.58 105.194 45.3007 97.9986 48.0801Z" fill="#C4C4C4"/>
</g>
<g filter="url(#filter7_f)">
<path d="M96 55.58C104.5 52.08 113 42.08 115.995 35.5798C114 39.58 108.5 50.08 96 55.58Z" fill="#A09E9E"/>
</g>
<g filter="url(#filter8_f)">
<path d="M74.5 28.08C79.1206 22.0798 83.6262 18.0801 89.0002 13.0801C85.6258 17.0801 82.1206 20.0798 74.5 28.08Z" fill="#A09E9E"/>
</g>
<g filter="url(#filter9_f)">
<path d="M80.4985 24.08C85.1192 18.0798 87 17.0799 89.9986 15.08C85.5 19.08 86.9986 17.58 80.4985 24.08Z" fill="#A09E9E"/>
</g>
<g filter="url(#filter10_f)">
<path d="M73.5518 31.1881C78.1724 25.1879 78.6772 25.1883 84.0512 20.1883C80.6768 24.1883 81.1724 23.1879 73.5518 31.1881Z" fill="#2E2D2D"/>
</g>
<defs>
<filter id="filter0_i" x="73.1553" y="32.2124" width="12.4557" height="13.8417" filterUnits="userSpaceOnUse" color-interpolation-filters="sRGB">
<feFlood flood-opacity="0" result="BackgroundImageFix"/>
<feBlend mode="normal" in="SourceGraphic" in2="BackgroundImageFix" result="shape"/>
<feColorMatrix in="SourceAlpha" type="matrix" values="0 0 0 0 0 0 0 0 0 0 0 0 0 0 0 0 0 0 127 0" result="hardAlpha"/>
<feOffset dy="-1"/>
<feGaussianBlur stdDeviation="1.5"/>
<feComposite in2="hardAlpha" operator="arithmetic" k2="-1" k3="1"/>
<feColorMatrix type="matrix" values="0 0 0 0 0 0 0 0 0 0 0 0 0 0 0 0 0 0 0.7 0"/>
<feBlend mode="normal" in2="shape" result="effect1_innerShadow"/>
</filter>
<filter id="filter1_df" x="68" y="73.8276" width="55" height="31.931" filterUnits="userSpaceOnUse" color-interpolation-filters="sRGB">
<feFlood flood-opacity="0" result="BackgroundImageFix"/>
<feColorMatrix in="SourceAlpha" type="matrix" values="0 0 0 0 0 0 0 0 0 0 0 0 0 0 0 0 0 0 127 0"/>
<feOffset dy="4"/>
<feGaussianBlur stdDeviation="2"/>
<feColorMatrix type="matrix" values="0 0 0 0 0 0 0 0 0 0 0 0 0 0 0 0 0 0 0.25 0"/>
<feBlend mode="normal" in2="BackgroundImageFix" result="effect1_dropShadow"/>
<feBlend mode="normal" in="SourceGraphic" in2="effect1_dropShadow" result="shape"/>
<feGaussianBlur stdDeviation="0.5" result="effect2_foregroundBlur"/>
</filter>
<filter id="filter2_i" x="74.7695" y="12.5908" width="31.8917" height="32.5498" filterUnits="userSpaceOnUse" color-interpolation-filters="sRGB">
<feFlood flood-opacity="0" result="BackgroundImageFix"/>
<feBlend mode="normal" in="SourceGraphic" in2="BackgroundImageFix" result="shape"/>
<feColorMatrix in="SourceAlpha" type="matrix" values="0 0 0 0 0 0 0 0 0 0 0 0 0 0 0 0 0 0 127 0" result="hardAlpha"/>
<feOffset dy="-1"/>
<feGaussianBlur stdDeviation="1.5"/>
<feComposite in2="hardAlpha" operator="arithmetic" k2="-1" k3="1"/>
<feColorMatrix type="matrix" values="0 0 0 0 0 0 0 0 0 0 0 0 0 0 0 0 0 0 0.7 0"/>
<feBlend mode="normal" in2="shape" result="effect1_innerShadow"/>
</filter>
<filter id="filter3_d" x="70" y="70.207" width="51" height="28.1379" filterUnits="userSpaceOnUse" color-interpolation-filters="sRGB">
<feFlood flood-opacity="0" result="BackgroundImageFix"/>
<feColorMatrix in="SourceAlpha" type="matrix" values="0 0 0 0 0 0 0 0 0 0 0 0 0 0 0 0 0 0 127 0"/>
<feOffset dy="1"/>
<feGaussianBlur stdDeviation="1"/>
<feColorMatrix type="matrix" values="0 0 0 0 0 0 0 0 0 0 0 0 0 0 0 0 0 0 0.5 0"/>
<feBlend mode="normal" in2="BackgroundImageFix" result="effect1_dropShadow"/>
<feBlend mode="normal" in="SourceGraphic" in2="effect1_dropShadow" result="shape"/>
</filter>
<filter id="filter4_d" x="71.2051" y="70" width="48.5897" height="26.5172" filterUnits="userSpaceOnUse" color-interpolation-filters="sRGB">
<feFlood flood-opacity="0" result="BackgroundImageFix"/>
<feColorMatrix in="SourceAlpha" type="matrix" values="0 0 0 0 0 0 0 0 0 0 0 0 0 0 0 0 0 0 127 0"/>
<feOffset dy="4"/>
<feGaussianBlur stdDeviation="1"/>
<feColorMatrix type="matrix" values="0 0 0 0 0 0 0 0 0 0 0 0 0 0 0 0 0 0 0.5 0"/>
<feBlend mode="normal" in2="BackgroundImageFix" result="effect1_dropShadow"/>
<feBlend mode="normal" in="SourceGraphic" in2="effect1_dropShadow" result="shape"/>
</filter>
<filter id="filter5_i" x="54.252" y="48.7372" width="14.0918" height="15.3012" filterUnits="userSpaceOnUse" color-interpolation-filters="sRGB">
<feFlood flood-opacity="0" result="BackgroundImageFix"/>
<feBlend mode="normal" in="SourceGraphic" in2="BackgroundImageFix" result="shape"/>
<feColorMatrix in="SourceAlpha" type="matrix" values="0 0 0 0 0 0 0 0 0 0 0 0 0 0 0 0 0 0 127 0" result="hardAlpha"/>
<feOffset dy="-1"/>
<feGaussianBlur stdDeviation="1.5"/>
<feComposite in2="hardAlpha" operator="arithmetic" k2="-1" k3="1"/>
<feColorMatrix type="matrix" values="0 0 0 0 0 0 0 0 0 0 0 0 0 0 0 0 0 0 0.7 0"/>
<feBlend mode="normal" in2="shape" result="effect1_innerShadow"/>
</filter>
<filter id="filter6_f" x="96.7549" y="33.58" width="16.3928" height="15.9395" filterUnits="userSpaceOnUse" color-interpolation-filters="sRGB">
<feFlood flood-opacity="0" result="BackgroundImageFix"/>
<feBlend mode="normal" in="SourceGraphic" in2="BackgroundImageFix" result="shape"/>
<feGaussianBlur stdDeviation="0.25" result="effect1_foregroundBlur"/>
</filter>
<filter id="filter7_f" x="95.1211" y="35.0798" width="23.3426" height="22.6522" filterUnits="userSpaceOnUse" color-interpolation-filters="sRGB">
<feFlood flood-opacity="0" result="BackgroundImageFix"/>
<feBlend mode="normal" in="SourceGraphic" in2="BackgroundImageFix" result="shape"/>
<feGaussianBlur stdDeviation="0.25" result="effect1_foregroundBlur"/>
</filter>
<filter id="filter8_f" x="72.4004" y="11.5" width="18.6223" height="18.0799" filterUnits="userSpaceOnUse" color-interpolation-filters="sRGB">
<feFlood flood-opacity="0" result="BackgroundImageFix"/>
<feBlend mode="normal" in="SourceGraphic" in2="BackgroundImageFix" result="shape"/>
<feGaussianBlur stdDeviation="0.75" result="effect1_foregroundBlur"/>
</filter>
<filter id="filter9_f" x="79.5605" y="14.051" width="10.938" height="10.6028" filterUnits="userSpaceOnUse" color-interpolation-filters="sRGB">
<feFlood flood-opacity="0" result="BackgroundImageFix"/>
<feBlend mode="normal" in="SourceGraphic" in2="BackgroundImageFix" result="shape"/>
<feGaussianBlur stdDeviation="0.25" result="effect1_foregroundBlur"/>
</filter>
<filter id="filter10_f" x="72.5" y="19.58" width="12.4989" height="12.1082" filterUnits="userSpaceOnUse" color-interpolation-filters="sRGB">
<feFlood flood-opacity="0" result="BackgroundImageFix"/>
<feBlend mode="normal" in="SourceGraphic" in2="BackgroundImageFix" result="shape"/>
<feGaussianBlur stdDeviation="0.25" result="effect1_foregroundBlur"/>
</filter>
<linearGradient id="paint0_linear" x1="49.5" y1="75" x2="44" y2="67.5" gradientUnits="userSpaceOnUse">
<stop stop-color="#2E2D2D"/>
<stop offset="0.441572" stop-color="#4F4F4F"/>
<stop offset="1" stop-color="#828282"/>
</linearGradient>
<linearGradient id="paint1_linear" x1="78.1597" y1="32.3108" x2="76.0452" y2="42.8521" gradientUnits="userSpaceOnUse">
<stop stop-color="#4F4F4F"/>
<stop offset="0.257413" stop-color="#C4C4C4"/>
<stop offset="0.707805" stop-color="#4F4F4F"/>
<stop offset="1" stop-color="#4F4F4F"/>
</linearGradient>
<linearGradient id="paint2_linear" x1="119" y1="92" x2="75" y2="97.5" gradientUnits="userSpaceOnUse">
<stop stop-color="#828282"/>
<stop offset="1" stop-color="#2E2D2D"/>
</linearGradient>
<linearGradient id="paint3_linear" x1="95.5" y1="74.8276" x2="95.5" y2="97.7587" gradientUnits="userSpaceOnUse">
<stop stop-color="#828282"/>
<stop offset="1" stop-color="#4F4F4F"/>
</linearGradient>
<linearGradient id="paint4_linear" x1="102" y1="18.5" x2="82" y2="38.5" gradientUnits="userSpaceOnUse">
<stop stop-color="#4F4F4F"/>
<stop offset="0.515679" stop-color="#C4C4C4"/>
<stop offset="0.707805" stop-color="#8F8F8F"/>
<stop offset="1" stop-color="#4F4F4F"/>
</linearGradient>
<linearGradient id="paint5_linear" x1="105" y1="74.0307" x2="74.3122" y2="83.6052" gradientUnits="userSpaceOnUse">
<stop stop-color="#828282"/>
<stop offset="1" stop-color="#2E2D2D"/>
</linearGradient>
<linearGradient id="paint6_linear" x1="95.5" y1="70" x2="95.5" y2="90.5172" gradientUnits="userSpaceOnUse">
<stop stop-color="#828282"/>
<stop offset="0.716268" stop-color="#4F4F4F"/>
</linearGradient>
<linearGradient id="paint7_linear" x1="71.5727" y1="3" x2="71.5727" y2="23.77" gradientUnits="userSpaceOnUse">
<stop stop-color="#828282"/>
<stop offset="0.649164" stop-color="#2E2D2D"/>
</linearGradient>
<linearGradient id="paint8_linear" x1="71.8516" y1="10.6407" x2="80.4877" y2="19.7156" gradientUnits="userSpaceOnUse">
<stop stop-color="#828282"/>
<stop offset="1" stop-color="#2E2D2D"/>
</linearGradient>
<linearGradient id="paint9_linear" x1="71.8516" y1="10.6407" x2="80.4877" y2="19.7156" gradientUnits="userSpaceOnUse">
<stop stop-color="#828282"/>
<stop offset="1" stop-color="#2E2D2D"/>
</linearGradient>
<linearGradient id="paint10_linear" x1="77" y1="2.99984" x2="105.756" y2="23.6083" gradientUnits="userSpaceOnUse">
<stop offset="0.306268" stop-color="#2E2D2D"/>
<stop offset="0.484441" stop-color="#828282"/>
</linearGradient>
<linearGradient id="paint11_linear" x1="77" y1="2.99984" x2="105.756" y2="23.6083" gradientUnits="userSpaceOnUse">
<stop offset="0.306268" stop-color="#2E2D2D"/>
<stop offset="0.484441" stop-color="#828282"/>
</linearGradient>
<linearGradient id="paint12_linear" x1="74" y1="28" x2="89.669" y2="-3.17909" gradientUnits="userSpaceOnUse">
<stop offset="0.0675646" stop-color="#2E2D2D"/>
<stop offset="0.484441" stop-color="#828282"/>
</linearGradient>
<linearGradient id="paint13_linear" x1="104.801" y1="37.1932" x2="93.9389" y2="49.986" gradientUnits="userSpaceOnUse">
<stop offset="0.0675646" stop-color="#2E2D2D"/>
<stop offset="0.484441" stop-color="#828282"/>
</linearGradient>
<linearGradient id="paint14_linear" x1="105.083" y1="56.1464" x2="104.871" y2="34.3057" gradientUnits="userSpaceOnUse">
<stop offset="0.0675646" stop-color="#2E2D2D"/>
<stop offset="0.484441" stop-color="#828282"/>
</linearGradient>
<linearGradient id="paint15_linear" x1="92.5" y1="19" x2="116.955" y2="43.762" gradientUnits="userSpaceOnUse">
<stop offset="0.373735" stop-color="#828282"/>
<stop offset="0.459577" stop-color="#4F4F4F"/>
</linearGradient>
<linearGradient id="paint16_linear" x1="92.5" y1="19" x2="116.955" y2="43.762" gradientUnits="userSpaceOnUse">
<stop offset="0.373735" stop-color="#828282"/>
<stop offset="0.459577" stop-color="#4F4F4F"/>
</linearGradient>
<linearGradient id="paint17_linear" x1="101.5" y1="52" x2="112.5" y2="33.5" gradientUnits="userSpaceOnUse">
<stop stop-color="#4F4F4F"/>
<stop offset="1" stop-color="#828282"/>
</linearGradient>
<linearGradient id="paint18_linear" x1="99.2101" y1="39.4531" x2="102.795" y2="43.1479" gradientUnits="userSpaceOnUse">
<stop stop-color="#828282"/>
<stop offset="1" stop-color="#2E2D2D"/>
</linearGradient>
<linearGradient id="paint19_linear" x1="61.5" y1="48.5" x2="61.441" y2="61.4975" gradientUnits="userSpaceOnUse">
<stop stop-color="#4F4F4F"/>
<stop offset="0.257413" stop-color="#C4C4C4"/>
<stop offset="0.707805" stop-color="#4F4F4F"/>
<stop offset="1" stop-color="#4F4F4F"/>
</linearGradient>
</defs>
</svg>
