<svg width="93" height="114" viewBox="0 0 93 114" fill="none" xmlns="http://www.w3.org/2000/svg">
<path d="M83.02 2.75443C83.0093 1.55537 84.049 0.616551 85.2407 0.748971L89.3435 1.20483C90.8576 1.37307 92.0052 2.64942 92.0121 4.17285L92.4891 109.113C92.4955 110.51 91.5364 111.727 90.1763 112.047L86.4359 112.927C85.1875 113.221 83.9892 112.28 83.9779 110.998L83.02 2.75443Z" fill="url(#paint0_linear)"/>
<path d="M2 3.96502C2 2.87421 2.87407 1.98458 3.96471 1.96533L83.9605 0.553637C85.6327 0.52413 87.0061 1.86755 87.0135 3.5399L87.4861 110.361C87.4937 112.071 86.0722 113.442 84.3634 113.372L3.9182 110.079C2.84635 110.035 2 109.153 2 108.08V3.96502Z" fill="#2E2D2D"/>
<path d="M4 4.42509C4 3.33432 4.87401 2.44471 5.96461 2.42541L83.475 1.05379C85.1472 1.0242 86.5207 2.36766 86.528 4.04008L86.9861 107.861C86.9937 109.571 85.572 110.941 83.8631 110.871L5.91797 107.672C4.84622 107.628 4 106.746 4 105.673V4.42509Z" fill="url(#paint1_linear)"/>
<g filter="url(#filter0_f)">
<path d="M7.5 6L15 3H39V4H17.5L13 7L7.5 7.5V6Z" fill="#1F1F1F"/>
</g>
<g filter="url(#filter1_d)">
<circle cx="41" cy="39" r="36" fill="url(#paint2_linear)"/>
</g>
<g filter="url(#filter2_i)">
<circle cx="41" cy="39" r="11" fill="#4F4F4F"/>
</g>
<circle cx="41" cy="39" r="11.5" stroke="url(#paint3_linear)"/>
<circle cx="41" cy="39" r="9.25" fill="#C4C4C4" stroke="url(#paint4_linear)" stroke-width="0.5"/>
<circle cx="41" cy="39" r="6" fill="#4F4D4D"/>
<circle cx="41" cy="39" r="2" fill="#C4C4C4"/>
<g filter="url(#filter3_d)">
<path d="M5 11.736C5 9.62427 6.61866 7.86511 8.72305 7.68975C10.1368 7.57194 11.5095 8.20054 12.3439 9.34784L15 13C9.7608 18.9642 7.31169 22.7109 5.5 30H5V11.736Z" fill="url(#paint5_linear)"/>
</g>
<g filter="url(#filter4_d)">
<path d="M5 51H6.5C10 60.5 16 67.5 25 72H20.7016C20.2474 72 19.8068 71.8454 19.4522 71.5617L18.0478 70.4383C17.6932 70.1546 17.2526 70 16.7984 70H16.118C15.4328 70 14.8064 69.6129 14.5 69C14.1936 68.3871 13.5672 68 12.882 68H7C5.89543 68 5 67.1046 5 66V51Z" fill="url(#paint6_linear)"/>
</g>
<path d="M5.27371 71.0948C5.12819 70.5127 5.52445 69.9344 6.11982 69.86L12.0474 69.1191C12.5797 69.0525 13.0696 69.4178 13.1578 69.947L13.5 72L13.3881 72.6712C13.185 73.8903 14.125 75 15.3609 75H26.6743C27.3386 75 27.8357 75.6381 27.7282 76.2937C27.3617 78.5286 27.0582 83.1904 30 86.5C33.9304 90.9217 39.4378 89.6121 41.5888 88.8617C42.1042 88.6819 42.6958 88.8916 42.9399 89.3799L43.1708 89.8416C43.679 90.858 44.7178 91.5 45.8541 91.5H47.5C48.0523 91.5 48.5 91.9477 48.5 92.5V100.323C48.5 100.732 48.251 101.1 47.8714 101.251L46 102L23 101L10.808 105.354C9.72614 105.741 8.51832 105.398 7.8007 104.501C7.29415 103.868 7.10003 103.04 7.27228 102.248L9.45435 92.21C9.4847 92.0704 9.5 91.928 9.5 91.7851V80.1396C9.5 79.1862 8.82708 78.3654 7.89223 78.1784L7.62054 78.1241C7.2416 78.0483 6.94024 77.761 6.84652 77.3861L5.27371 71.0948Z" fill="#828282"/>
<g filter="url(#filter5_f)">
<path d="M17 101L80.5595 101.963C82.163 101.987 83.7488 101.626 85.1831 100.908L87 100V101V104L17 102V101Z" fill="#1F1F1F"/>
</g>
<g filter="url(#filter6_d)">
<path d="M59.4996 54.5L53.9996 63L51.9996 68C43.85 75.1961 40.1242 79.2591 35.4996 86.5L36.9996 88L40.9996 87L41.9996 89L35.4996 90.5L33.4996 90L27.4996 84H25.9996C25.5971 82.2369 25.4605 81.2538 25.4996 79.5C25.4996 79.5 30.9452 77.246 35 74.5C39.6886 71.3248 46.9996 64 46.9996 64L51.4996 61L59.4996 54.5Z" fill="url(#paint7_linear)"/>
</g>
<path d="M36 102.5L81.4902 103.865C84.0523 103.942 86.2575 102.069 86.5963 99.5278L87 96.5V103.75V106.852C87 109.118 85.1193 110.932 82.8546 110.849L32 109L36 102.5Z" fill="#C4C4C4"/>
<g filter="url(#filter7_d)">
<path d="M5 70H13L13.5 73L13 76H26C26 76 24 83 28 87.5C32.9827 93.1056 38.5 89.5 38.5 89.5L40 92.5L46.5 93.5V101.5L44 102L21 101L7 107L5 104.5L7.5 93V79.5L5 79V70Z" fill="url(#paint8_linear)"/>
</g>
<defs>
<filter id="filter0_f" x="6.5" y="2" width="33.5" height="6.5" filterUnits="userSpaceOnUse" color-interpolation-filters="sRGB">
<feFlood flood-opacity="0" result="BackgroundImageFix"/>
<feBlend mode="normal" in="SourceGraphic" in2="BackgroundImageFix" result="shape"/>
<feGaussianBlur stdDeviation="0.5" result="effect1_foregroundBlur"/>
</filter>
<filter id="filter1_d" x="1" y="3" width="80" height="80" filterUnits="userSpaceOnUse" color-interpolation-filters="sRGB">
<feFlood flood-opacity="0" result="BackgroundImageFix"/>
<feColorMatrix in="SourceAlpha" type="matrix" values="0 0 0 0 0 0 0 0 0 0 0 0 0 0 0 0 0 0 127 0"/>
<feOffset dy="4"/>
<feGaussianBlur stdDeviation="2"/>
<feColorMatrix type="matrix" values="0 0 0 0 0 0 0 0 0 0 0 0 0 0 0 0 0 0 0.25 0"/>
<feBlend mode="normal" in2="BackgroundImageFix" result="effect1_dropShadow"/>
<feBlend mode="normal" in="SourceGraphic" in2="effect1_dropShadow" result="shape"/>
</filter>
<filter id="filter2_i" x="29" y="27" width="24" height="28" filterUnits="userSpaceOnUse" color-interpolation-filters="sRGB">
<feFlood flood-opacity="0" result="BackgroundImageFix"/>
<feBlend mode="normal" in="SourceGraphic" in2="BackgroundImageFix" result="shape"/>
<feColorMatrix in="SourceAlpha" type="matrix" values="0 0 0 0 0 0 0 0 0 0 0 0 0 0 0 0 0 0 127 0" result="hardAlpha"/>
<feOffset dy="4"/>
<feGaussianBlur stdDeviation="10"/>
<feComposite in2="hardAlpha" operator="arithmetic" k2="-1" k3="1"/>
<feColorMatrix type="matrix" values="0 0 0 0 0 0 0 0 0 0 0 0 0 0 0 0 0 0 0.3 0"/>
<feBlend mode="normal" in2="shape" result="effect1_innerShadow"/>
</filter>
<filter id="filter3_d" x="2" y="5.67566" width="14" height="26.3243" filterUnits="userSpaceOnUse" color-interpolation-filters="sRGB">
<feFlood flood-opacity="0" result="BackgroundImageFix"/>
<feColorMatrix in="SourceAlpha" type="matrix" values="0 0 0 0 0 0 0 0 0 0 0 0 0 0 0 0 0 0 127 0"/>
<feOffset dx="-1"/>
<feGaussianBlur stdDeviation="1"/>
<feColorMatrix type="matrix" values="0 0 0 0 0 0 0 0 0 0 0 0 0 0 0 0 0 0 0.7 0"/>
<feBlend mode="normal" in2="BackgroundImageFix" result="effect1_dropShadow"/>
<feBlend mode="normal" in="SourceGraphic" in2="effect1_dropShadow" result="shape"/>
</filter>
<filter id="filter4_d" x="2" y="49" width="24" height="25" filterUnits="userSpaceOnUse" color-interpolation-filters="sRGB">
<feFlood flood-opacity="0" result="BackgroundImageFix"/>
<feColorMatrix in="SourceAlpha" type="matrix" values="0 0 0 0 0 0 0 0 0 0 0 0 0 0 0 0 0 0 127 0"/>
<feOffset dx="-1"/>
<feGaussianBlur stdDeviation="1"/>
<feColorMatrix type="matrix" values="0 0 0 0 0 0 0 0 0 0 0 0 0 0 0 0 0 0 0.7 0"/>
<feBlend mode="normal" in2="BackgroundImageFix" result="effect1_dropShadow"/>
<feBlend mode="normal" in="SourceGraphic" in2="effect1_dropShadow" result="shape"/>
</filter>
<filter id="filter5_f" x="16" y="99" width="72" height="6" filterUnits="userSpaceOnUse" color-interpolation-filters="sRGB">
<feFlood flood-opacity="0" result="BackgroundImageFix"/>
<feBlend mode="normal" in="SourceGraphic" in2="BackgroundImageFix" result="shape"/>
<feGaussianBlur stdDeviation="0.5" result="effect1_foregroundBlur"/>
</filter>
<filter id="filter6_d" x="24.4932" y="54.5" width="36.0064" height="38" filterUnits="userSpaceOnUse" color-interpolation-filters="sRGB">
<feFlood flood-opacity="0" result="BackgroundImageFix"/>
<feColorMatrix in="SourceAlpha" type="matrix" values="0 0 0 0 0 0 0 0 0 0 0 0 0 0 0 0 0 0 127 0"/>
<feOffset dy="1"/>
<feGaussianBlur stdDeviation="0.5"/>
<feColorMatrix type="matrix" values="0 0 0 0 0 0 0 0 0 0 0 0 0 0 0 0 0 0 0.25 0"/>
<feBlend mode="normal" in2="BackgroundImageFix" result="effect1_dropShadow"/>
<feBlend mode="normal" in="SourceGraphic" in2="effect1_dropShadow" result="shape"/>
</filter>
<filter id="filter7_d" x="0" y="64" width="51.5" height="47" filterUnits="userSpaceOnUse" color-interpolation-filters="sRGB">
<feFlood flood-opacity="0" result="BackgroundImageFix"/>
<feColorMatrix in="SourceAlpha" type="matrix" values="0 0 0 0 0 0 0 0 0 0 0 0 0 0 0 0 0 0 127 0"/>
<feOffset dy="-1"/>
<feGaussianBlur stdDeviation="2.5"/>
<feColorMatrix type="matrix" values="0 0 0 0 0 0 0 0 0 0 0 0 0 0 0 0 0 0 0.7 0"/>
<feBlend mode="normal" in2="BackgroundImageFix" result="effect1_dropShadow"/>
<feBlend mode="normal" in="SourceGraphic" in2="effect1_dropShadow" result="shape"/>
</filter>
<linearGradient id="paint0_linear" x1="87.75" y1="0.5" x2="87.75" y2="113.5" gradientUnits="userSpaceOnUse">
<stop stop-color="#828282"/>
<stop offset="0.276243" stop-color="#2E2D2D"/>
</linearGradient>
<linearGradient id="paint1_linear" x1="45.5" y1="1" x2="45.5" y2="111" gradientUnits="userSpaceOnUse">
<stop stop-color="#474545"/>
<stop offset="0.276243" stop-color="#2E2D2D"/>
</linearGradient>
<linearGradient id="paint2_linear" x1="17.5" y1="9.5" x2="67.5" y2="66.5" gradientUnits="userSpaceOnUse">
<stop stop-color="#C4C4C4"/>
<stop offset="0.499916" stop-color="white"/>
<stop offset="1" stop-color="#C4C4C4"/>
</linearGradient>
<linearGradient id="paint3_linear" x1="52" y1="39" x2="34" y2="44" gradientUnits="userSpaceOnUse">
<stop stop-color="#2E2D2D"/>
<stop offset="0.624892" stop-color="#E9E9E9"/>
<stop offset="0.764938" stop-color="white"/>
</linearGradient>
<linearGradient id="paint4_linear" x1="50" y1="39" x2="35.2727" y2="43.0909" gradientUnits="userSpaceOnUse">
<stop stop-color="#2E2D2D"/>
<stop offset="0.624892" stop-color="#E9E9E9"/>
<stop offset="0.764938" stop-color="white"/>
</linearGradient>
<linearGradient id="paint5_linear" x1="15.9028" y1="17.1875" x2="2.66287" y2="21.8038" gradientUnits="userSpaceOnUse">
<stop offset="0.181429" stop-color="#F6F6F6"/>
<stop offset="0.592479" stop-color="#EAE8E8" stop-opacity="0.99"/>
<stop offset="0.98895" stop-color="#C4C4C4"/>
</linearGradient>
<linearGradient id="paint6_linear" x1="26.8056" y1="60.0417" x2="7.74603" y2="74.2818" gradientUnits="userSpaceOnUse">
<stop offset="0.181429" stop-color="#F6F6F6"/>
<stop offset="0.592479" stop-color="#EAE8E8" stop-opacity="0.99"/>
<stop offset="0.98895" stop-color="#C4C4C4"/>
</linearGradient>
<linearGradient id="paint7_linear" x1="37" y1="64" x2="52.0114" y2="81.3551" gradientUnits="userSpaceOnUse">
<stop stop-color="#C4C4C4"/>
<stop offset="0.450464" stop-color="white"/>
<stop offset="0.784187" stop-color="#C4C4C4"/>
</linearGradient>
<linearGradient id="paint8_linear" x1="50.2465" y1="85.9306" x2="15.5132" y2="116.493" gradientUnits="userSpaceOnUse">
<stop offset="0.181429" stop-color="#F6F6F6"/>
<stop offset="0.592479" stop-color="#EAE8E8" stop-opacity="0.99"/>
<stop offset="0.98895" stop-color="#C4C4C4"/>
</linearGradient>
</defs>
</svg>
