<svg width="55" height="51" viewBox="0 0 55 51" fill="none" xmlns="http://www.w3.org/2000/svg">
<path d="M0 6L35 0H55L20 6H0Z" fill="url(#paint0_linear)"/>
<path d="M20 6L55 0V19L20 26V6Z" fill="url(#paint1_linear)"/>
<path d="M0 6H20V26H0V6Z" fill="#C4C4C4"/>
<path d="M0 31L35 25H55L20 31H0Z" fill="url(#paint2_linear)"/>
<path d="M20 31L55 25V44L20 51V31Z" fill="url(#paint3_linear)"/>
<path d="M0 31H20V51H0V31Z" fill="#C4C4C4"/>
<defs>
<linearGradient id="paint0_linear" x1="41" y1="5.61818" x2="41" y2="-12.3454" gradientUnits="userSpaceOnUse">
<stop stop-color="#4F4F4F"/>
<stop offset="0.38832" stop-color="white" stop-opacity="0"/>
</linearGradient>
<linearGradient id="paint1_linear" x1="18.5" y1="29.2545" x2="54.9992" y2="29.4206" gradientUnits="userSpaceOnUse">
<stop offset="0.0297365" stop-color="#4F4F4F"/>
<stop offset="1" stop-color="white" stop-opacity="0"/>
</linearGradient>
<linearGradient id="paint2_linear" x1="41" y1="30.6182" x2="41" y2="12.6546" gradientUnits="userSpaceOnUse">
<stop stop-color="#4F4F4F"/>
<stop offset="0.38832" stop-color="white" stop-opacity="0"/>
</linearGradient>
<linearGradient id="paint3_linear" x1="18.5" y1="54.2545" x2="54.9992" y2="54.4206" gradientUnits="userSpaceOnUse">
<stop offset="0.0297365" stop-color="#4F4F4F"/>
<stop offset="1" stop-color="white" stop-opacity="0"/>
</linearGradient>
</defs>
</svg>
