<svg width="86" height="52" viewBox="0 0 86 52" fill="none" xmlns="http://www.w3.org/2000/svg">
<path d="M5 7L40 0H86L51 7H5Z" fill="url(#paint0_linear)"/>
<path d="M51 18L86 10V43L48 52V20L51 18Z" fill="url(#paint1_linear)"/>
<path d="M49 7L86 0V7L46.5 16L48 9.00001L49 7Z" fill="url(#paint2_linear)"/>
<path d="M3 18L27 32L51 18V49C51 50.6568 49.6569 52 48 52H6C4.34315 52 3 50.6568 3 49V18Z" fill="#C4C4C4"/>
<g filter="url(#filter0_d)">
<path d="M3 9C3 7.89543 3.89543 7 5 7H49C50.1046 7 51 7.89543 51 9V15L27 29L3 15V9Z" fill="#C4C4C4"/>
</g>
<defs>
<filter id="filter0_d" x="0" y="3" width="58" height="32" filterUnits="userSpaceOnUse" color-interpolation-filters="sRGB">
<feFlood flood-opacity="0" result="BackgroundImageFix"/>
<feColorMatrix in="SourceAlpha" type="matrix" values="0 0 0 0 0 0 0 0 0 0 0 0 0 0 0 0 0 0 127 0"/>
<feOffset dx="2" dy="1"/>
<feGaussianBlur stdDeviation="2.5"/>
<feColorMatrix type="matrix" values="0 0 0 0 0 0 0 0 0 0 0 0 0 0 0 0 0 0 0.25 0"/>
<feBlend mode="normal" in2="BackgroundImageFix" result="effect1_dropShadow"/>
<feBlend mode="normal" in="SourceGraphic" in2="effect1_dropShadow" result="shape"/>
</filter>
<linearGradient id="paint0_linear" x1="44" y1="6.61818" x2="44" y2="-11.3454" gradientUnits="userSpaceOnUse">
<stop stop-color="#4F4F4F"/>
<stop offset="0.38832" stop-color="white" stop-opacity="0"/>
</linearGradient>
<linearGradient id="paint1_linear" x1="46.5" y1="30.2545" x2="82.9992" y2="30.4206" gradientUnits="userSpaceOnUse">
<stop offset="0.0297365" stop-color="#4F4F4F"/>
<stop offset="1" stop-color="white" stop-opacity="0"/>
</linearGradient>
<linearGradient id="paint2_linear" x1="46.5" y1="19.2545" x2="82.9993" y2="19.4206" gradientUnits="userSpaceOnUse">
<stop offset="0.0297365" stop-color="#4F4F4F"/>
<stop offset="1" stop-color="white" stop-opacity="0"/>
</linearGradient>
</defs>
</svg>
