<svg width="71" height="52" viewBox="0 0 71 52" fill="none" xmlns="http://www.w3.org/2000/svg">
<path d="M24 15.6182L59 9H69L38 15.5L24 15.6182Z" fill="url(#paint0_linear)"/>
<path d="M19 6.11818L57 0L59 9L16.5 17.1L19 6.11818Z" fill="url(#paint1_linear)"/>
<path d="M38 15.5L71 8.5V45L38 52V15.5Z" fill="url(#paint2_linear)"/>
<path fill-rule="evenodd" clip-rule="evenodd" d="M1.99212 15.6104C0.890635 15.6147 0 16.5089 0 17.6103V50C0 51.1046 0.895431 52 2 52H38C39.1046 52 40 51.1046 40 50V17.5C40 16.3954 39.1046 15.5 38 15.5H30L1.99212 15.6104ZM8 25H32V27H8V25ZM8 33H32V35H8V33ZM32 41H8V43H32V41Z" fill="#C4C4C4"/>
<defs>
<linearGradient id="paint0_linear" x1="33" y1="15.6182" x2="33" y2="-2.34544" gradientUnits="userSpaceOnUse">
<stop stop-color="#4F4F4F"/>
<stop offset="0.38832" stop-color="white" stop-opacity="0"/>
</linearGradient>
<linearGradient id="paint1_linear" x1="14.6786" y1="10.0172" x2="58.9873" y2="10.7687" gradientUnits="userSpaceOnUse">
<stop offset="0.191136" stop-color="#4F4F4F"/>
<stop offset="1" stop-color="white" stop-opacity="0"/>
</linearGradient>
<linearGradient id="paint2_linear" x1="36.5857" y1="30.2545" x2="70.9994" y2="30.4021" gradientUnits="userSpaceOnUse">
<stop offset="0.0297365" stop-color="#4F4F4F"/>
<stop offset="1" stop-color="white" stop-opacity="0"/>
</linearGradient>
</defs>
</svg>
