<svg width="79" height="118" viewBox="0 0 79 118" fill="none" xmlns="http://www.w3.org/2000/svg">
<g filter="url(#filter0_i)">
<path fill-rule="evenodd" clip-rule="evenodd" d="M13 27.0555C13 17.0249 17.7383 7.01579 27.0352 3.24883C36.0801 -0.416275 43.9199 -0.416275 52.9648 3.24883C62.2617 7.01579 67 17.0249 67 27.0555V47H64V53H67V61H59V26.2443C59 23.4459 58.5059 20.6107 56.9814 18.2635C48.5312 5.24547 31.4688 5.24547 23.0186 18.2635C21.4941 20.6107 21 23.4459 21 26.2443V44.7L18 45V51L21 51.3V52C21 53.1046 20.1045 54 19 54H16C14.3428 54 13 52.6568 13 51V27.0555Z" fill="url(#paint0_linear)"/>
</g>
<g filter="url(#filter1_f)">
<path d="M48 6.99986C40 5.49961 35.5 5.5 31 9.99991C34.5 7 48.5 4.99984 56.5 14.9998C61 20.9999 60.5 28.4999 60.5 30.9998V62.4998L62 62.4999L62 29.9998C62 17.4998 57.2964 10.7668 48 6.99986Z" fill="url(#paint1_linear)"/>
<path d="M48.1878 6.53646L48.1414 6.51766L48.0922 6.50843C44.0892 5.75774 40.8937 5.36732 38.1184 5.75462C35.3131 6.14611 32.9658 7.32702 30.6465 9.64635L31.3254 10.3795C32.114 9.70364 33.5571 9.04061 35.4502 8.59607C37.3302 8.15463 39.607 7.93986 42.0246 8.12347C46.8573 8.49048 52.2116 10.4437 56.1047 15.3061C60.1325 20.6817 60.0458 27.3012 60.0065 30.3048C60.003 30.5646 60 30.7973 60 30.9998V62.4998V62.9998L60.5 62.9998L62 62.9999L62.5 62.9999V62.4999L62.5 29.9998C62.5 23.6898 61.313 18.7798 58.9094 14.9587C56.5024 11.1324 52.9076 8.44894 48.1878 6.53646Z" stroke="url(#paint2_linear)" stroke-opacity="0.5"/>
</g>
<g filter="url(#filter2_f)">
<path d="M15.5 25.9999L15 51.4999C15 53.1567 15.5004 53 15.5004 53C16.605 53 16.5004 52.1046 16.5004 51C16.5004 51 17.0005 28.0427 17.0005 25.2443C17.0005 22.446 18.5 11 22.5 10C17 10.5 15.5 23.1666 15.5 25.9999Z" fill="url(#paint3_linear)"/>
<path d="M15.9999 26.0097L16 26.0097V25.9999C16 24.6294 16.3686 20.8024 17.4169 17.2671C17.7587 16.1144 18.1686 15.0073 18.6536 14.0329C18.3121 14.9138 18.0179 15.8626 17.7666 16.8209C16.8823 20.1933 16.5005 23.7972 16.5005 25.2443C16.5005 26.6368 16.3757 33.068 16.2506 39.1613C16.188 42.2057 16.1255 45.1626 16.0787 47.3585C16.0552 48.4565 16.0357 49.3641 16.022 49.9973L16.0061 50.7306L16.002 50.9232L16.0009 50.9725L16.0006 50.9849L16.0005 50.9881L16.0005 50.9888C16.0005 50.989 16.0005 50.9891 16.48 50.9995L16.0004 50.9891V51C16.0004 51.0994 16.0011 51.1926 16.0018 51.2811C16.0032 51.4548 16.0045 51.6109 15.9997 51.7629C15.9927 51.9893 15.9727 52.1509 15.9369 52.2665C15.904 52.3729 15.867 52.4116 15.8372 52.4323C15.8091 52.4519 15.7462 52.4834 15.6139 52.4953C15.5682 52.3731 15.5004 52.0908 15.5 51.5047L15.9999 26.0097Z" stroke="url(#paint4_linear)"/>
</g>
<g filter="url(#filter3_f)">
<path d="M20.5333 24.9058L20 44.5H21C21 44.5 21.5 26.5823 21.5 24.5C21.5 22.4177 23.5 14.5 32 10C22.5 13 20.5333 22.7975 20.5333 24.9058Z" fill="url(#paint5_linear)"/>
</g>
<g filter="url(#filter4_f)">
<path d="M13.5 25.9999L13 51.4999C13 53.1567 13.5004 53 13.5004 53C14.605 53 14.5004 52.1046 14.5004 51C14.5004 51 15.0005 28.0427 15.0005 25.2443C15.0005 22.446 16.5 11 20.5 10C15 10.5 13.5 23.1666 13.5 25.9999Z" fill="url(#paint6_linear)"/>
</g>
<path d="M66 84C66 102.225 62.2254 117 44 117C10 117 0 102.225 0 84C0 65.7746 11 51 42 51C60.2254 51 66 65.7746 66 84Z" fill="url(#paint7_linear)"/>
<g filter="url(#filter5_f)">
<circle cx="45" cy="84" r="33" fill="url(#paint8_linear)"/>
<circle cx="45" cy="84" r="32.5" stroke="url(#paint9_linear)"/>
</g>
<circle cx="46" cy="84" r="30" fill="url(#paint10_linear)"/>
<g filter="url(#filter6_i)">
<ellipse cx="17.7269" cy="58.9969" rx="2.37113" ry="5.25" transform="rotate(51.7279 17.7269 58.9969)" fill="#4F4F4F"/>
</g>
<g filter="url(#filter7_d)">
<circle cx="45" cy="102" r="4" fill="#C4C4C4"/>
</g>
<g filter="url(#filter8_i)">
<path d="M44 101H47L46.5 103L47 112.637C46.625 113.121 44.4746 113.121 44.0996 112.637V106L45 105.5L44 104V101Z" fill="#1F1F1F"/>
</g>
<defs>
<filter id="filter0_i" x="13" y="0.5" width="54" height="64.5" filterUnits="userSpaceOnUse" color-interpolation-filters="sRGB">
<feFlood flood-opacity="0" result="BackgroundImageFix"/>
<feBlend mode="normal" in="SourceGraphic" in2="BackgroundImageFix" result="shape"/>
<feColorMatrix in="SourceAlpha" type="matrix" values="0 0 0 0 0 0 0 0 0 0 0 0 0 0 0 0 0 0 127 0" result="hardAlpha"/>
<feOffset dy="4"/>
<feGaussianBlur stdDeviation="10"/>
<feComposite in2="hardAlpha" operator="arithmetic" k2="-1" k3="1"/>
<feColorMatrix type="matrix" values="0 0 0 0 0 0 0 0 0 0 0 0 0 0 0 0 0 0 0.3 0"/>
<feBlend mode="normal" in2="shape" result="effect1_innerShadow"/>
</filter>
<filter id="filter1_f" x="29.293" y="4.10291" width="34.7071" height="60.397" filterUnits="userSpaceOnUse" color-interpolation-filters="sRGB">
<feFlood flood-opacity="0" result="BackgroundImageFix"/>
<feBlend mode="normal" in="SourceGraphic" in2="BackgroundImageFix" result="shape"/>
<feGaussianBlur stdDeviation="0.5" result="effect1_foregroundBlur"/>
</filter>
<filter id="filter2_f" x="14" y="9" width="9.5" height="45.004" filterUnits="userSpaceOnUse" color-interpolation-filters="sRGB">
<feFlood flood-opacity="0" result="BackgroundImageFix"/>
<feBlend mode="normal" in="SourceGraphic" in2="BackgroundImageFix" result="shape"/>
<feGaussianBlur stdDeviation="0.5" result="effect1_foregroundBlur"/>
</filter>
<filter id="filter3_f" x="19.5" y="9.5" width="13" height="35.5" filterUnits="userSpaceOnUse" color-interpolation-filters="sRGB">
<feFlood flood-opacity="0" result="BackgroundImageFix"/>
<feBlend mode="normal" in="SourceGraphic" in2="BackgroundImageFix" result="shape"/>
<feGaussianBlur stdDeviation="0.25" result="effect1_foregroundBlur"/>
</filter>
<filter id="filter4_f" x="12" y="9" width="9.5" height="45.004" filterUnits="userSpaceOnUse" color-interpolation-filters="sRGB">
<feFlood flood-opacity="0" result="BackgroundImageFix"/>
<feBlend mode="normal" in="SourceGraphic" in2="BackgroundImageFix" result="shape"/>
<feGaussianBlur stdDeviation="0.5" result="effect1_foregroundBlur"/>
</filter>
<filter id="filter5_f" x="11" y="50" width="68" height="68" filterUnits="userSpaceOnUse" color-interpolation-filters="sRGB">
<feFlood flood-opacity="0" result="BackgroundImageFix"/>
<feBlend mode="normal" in="SourceGraphic" in2="BackgroundImageFix" result="shape"/>
<feGaussianBlur stdDeviation="0.5" result="effect1_foregroundBlur"/>
</filter>
<filter id="filter6_i" x="12.1367" y="53.8835" width="11.1807" height="14.2267" filterUnits="userSpaceOnUse" color-interpolation-filters="sRGB">
<feFlood flood-opacity="0" result="BackgroundImageFix"/>
<feBlend mode="normal" in="SourceGraphic" in2="BackgroundImageFix" result="shape"/>
<feColorMatrix in="SourceAlpha" type="matrix" values="0 0 0 0 0 0 0 0 0 0 0 0 0 0 0 0 0 0 127 0" result="hardAlpha"/>
<feOffset dy="4"/>
<feGaussianBlur stdDeviation="2"/>
<feComposite in2="hardAlpha" operator="arithmetic" k2="-1" k3="1"/>
<feColorMatrix type="matrix" values="0 0 0 0 0 0 0 0 0 0 0 0 0 0 0 0 0 0 1 0"/>
<feBlend mode="normal" in2="shape" result="effect1_innerShadow"/>
</filter>
<filter id="filter7_d" x="37" y="96" width="12" height="12" filterUnits="userSpaceOnUse" color-interpolation-filters="sRGB">
<feFlood flood-opacity="0" result="BackgroundImageFix"/>
<feColorMatrix in="SourceAlpha" type="matrix" values="0 0 0 0 0 0 0 0 0 0 0 0 0 0 0 0 0 0 127 0"/>
<feOffset dx="-2"/>
<feGaussianBlur stdDeviation="1"/>
<feColorMatrix type="matrix" values="0 0 0 0 0 0 0 0 0 0 0 0 0 0 0 0 0 0 0.7 0"/>
<feBlend mode="normal" in2="BackgroundImageFix" result="effect1_dropShadow"/>
<feBlend mode="normal" in="SourceGraphic" in2="effect1_dropShadow" result="shape"/>
</filter>
<filter id="filter8_i" x="44" y="101" width="3" height="16" filterUnits="userSpaceOnUse" color-interpolation-filters="sRGB">
<feFlood flood-opacity="0" result="BackgroundImageFix"/>
<feBlend mode="normal" in="SourceGraphic" in2="BackgroundImageFix" result="shape"/>
<feColorMatrix in="SourceAlpha" type="matrix" values="0 0 0 0 0 0 0 0 0 0 0 0 0 0 0 0 0 0 127 0" result="hardAlpha"/>
<feOffset dy="4"/>
<feGaussianBlur stdDeviation="2"/>
<feComposite in2="hardAlpha" operator="arithmetic" k2="-1" k3="1"/>
<feColorMatrix type="matrix" values="0 0 0 0 0 0 0 0 0 0 0 0 0 0 0 0 0 0 0.25 0"/>
<feBlend mode="normal" in2="shape" result="effect1_innerShadow"/>
</filter>
<linearGradient id="paint0_linear" x1="13" y1="5.26847" x2="13" y2="76.5" gradientUnits="userSpaceOnUse">
<stop stop-color="#4F4F4F"/>
<stop offset="0.14939" stop-color="#E9E9E9"/>
<stop offset="0.272282" stop-color="#C6C2C2"/>
<stop offset="0.685333" stop-color="#C4C4C4"/>
<stop offset="0.856613" stop-color="#E9E9E9"/>
<stop offset="1" stop-color="#828282"/>
</linearGradient>
<linearGradient id="paint1_linear" x1="46" y1="6.92065" x2="46" y2="62.5" gradientUnits="userSpaceOnUse">
<stop stop-color="#2E2D2D"/>
<stop offset="1"/>
</linearGradient>
<linearGradient id="paint2_linear" x1="54.5" y1="3.5" x2="62" y2="57" gradientUnits="userSpaceOnUse">
<stop stop-color="#D1CDCD"/>
<stop offset="1" stop-color="white" stop-opacity="0.69"/>
</linearGradient>
<linearGradient id="paint3_linear" x1="31" y1="3.2395" x2="31" y2="53.004" gradientUnits="userSpaceOnUse">
<stop stop-color="#2E2D2D"/>
<stop offset="1"/>
</linearGradient>
<linearGradient id="paint4_linear" x1="18.75" y1="10" x2="18.75" y2="53.004" gradientUnits="userSpaceOnUse">
<stop stop-color="white"/>
<stop offset="1" stop-color="white" stop-opacity="0"/>
</linearGradient>
<linearGradient id="paint5_linear" x1="37.0667" y1="7.9694" x2="37.0667" y2="45" gradientUnits="userSpaceOnUse">
<stop stop-color="#C4C4C4"/>
<stop offset="1" stop-color="#4F4F4F"/>
</linearGradient>
<linearGradient id="paint6_linear" x1="29" y1="3.2395" x2="29" y2="53.004" gradientUnits="userSpaceOnUse">
<stop stop-color="#4F4F4F"/>
<stop offset="1" stop-color="#4F4F4F"/>
</linearGradient>
<linearGradient id="paint7_linear" x1="33" y1="51" x2="66" y2="76" gradientUnits="userSpaceOnUse">
<stop stop-color="#A09E9E"/>
<stop offset="0.502959" stop-color="#4F4F4F"/>
<stop offset="1" stop-color="#828282"/>
</linearGradient>
<linearGradient id="paint8_linear" x1="12" y1="81.5" x2="78" y2="81.5" gradientUnits="userSpaceOnUse">
<stop offset="0.263796"/>
<stop offset="1" stop-color="#C4C4C4"/>
</linearGradient>
<linearGradient id="paint9_linear" x1="12" y1="80" x2="69" y2="97.5" gradientUnits="userSpaceOnUse">
<stop offset="0.366281" stop-color="white"/>
<stop offset="1" stop-color="#828282"/>
</linearGradient>
<linearGradient id="paint10_linear" x1="4.52995e-07" y1="84" x2="76" y2="84" gradientUnits="userSpaceOnUse">
<stop offset="0.18381" stop-color="#4F4F4F"/>
<stop offset="1" stop-color="#C4C4C4"/>
</linearGradient>
</defs>
</svg>
