<svg width="123" height="62" viewBox="0 0 123 62" fill="none" xmlns="http://www.w3.org/2000/svg">
<g filter="url(#filter0_d)">
<path d="M2.52373 6.47998C2.50566 5.93269 2.94037 5.49189 3.48787 5.48182L84.0003 4L118.124 13.7497C118.62 13.8915 118.929 14.3862 118.823 14.8915C116.621 25.3983 110.317 36.397 106.362 42.5565C104.285 45.7919 100.906 47.8624 97.1097 48.4718C86.4764 50.1788 61.4 54.0129 21.5004 59C13.4998 60 7.49989 49 5.9998 39C3.16689 20.1152 2.62619 9.5823 2.52373 6.47998Z" fill="url(#paint0_linear)"/>
</g>
<path d="M3.46132 6.98568C3.03866 6.33247 3.49103 5.46803 4.26865 5.44295L79.2335 3.02473C79.7415 3.00834 80.2491 3.06951 80.7387 3.20615L117.398 13.4366C118.48 13.7386 118.318 15.3207 117.197 15.3974L19.3782 22.0974C15.7508 22.3458 12.2744 20.6059 10.2992 17.5533L3.46132 6.98568Z" fill="#828282"/>
<path d="M3.55372 7.01186C3.10002 6.3609 3.54882 5.46617 4.34188 5.44058L79.2257 3.02498C79.7388 3.00842 80.2515 3.071 80.7456 3.21051L116.887 13.4152C117.969 13.7207 117.802 15.3031 116.68 15.3755L19.6249 21.6371C16.1332 21.8624 12.7777 20.2463 10.7771 17.3758L3.55372 7.01186Z" fill="#C4C4C4"/>
<path d="M44.5035 32.0721C44.8026 30.8283 45.8541 29.9153 47.1271 29.7891L103.303 24.2179C104.479 24.1012 105.415 25.0213 105.164 26.1769C104.766 28.0074 103.897 31.1227 102 36C98.5 45 94 49 94 49L37 57C37 57 38.4379 55.565 40 50C41.1966 45.7371 43.494 36.2691 44.5035 32.0721Z" fill="#828282"/>
<g filter="url(#filter1_d)">
<path d="M43.5761 38.8627L100 32C100 32 97.6372 39.3529 95.2744 43.2745C92.9115 47.1961 91.0213 49.1569 91.0213 49.1569L38 57C38 57 39.5118 54.549 40.4571 51.1176C41.4025 47.6863 43.5761 38.8627 43.5761 38.8627Z" fill="#C4C4C4"/>
</g>
<path d="M43.6 38.5L103.3 31.5C103.3 31.5 100.8 39 98.2998 43C95.7998 47 93.7998 49 93.7998 49L37.7002 57C37.7002 57 39.2998 54.5 40.3 51C41.3002 47.5 43.6 38.5 43.6 38.5Z" fill="url(#paint1_linear)"/>
<path d="M16 2L67 0.5L76 3L4 5.5L16 2Z" fill="#828282"/>
<path d="M18.6087 1.2L67.3913 0L76 2L9.2002 4L18.6087 1.2Z" fill="#C4C4C4"/>
<g filter="url(#filter2_d)">
<path d="M12.8119 6.15205C12.1497 5.54825 12.5549 4.44525 13.4505 4.41372L81.1341 2.03049C81.7071 2.01031 82.2793 2.08884 82.8257 2.26263L113.995 12.1774C115.047 12.5118 114.861 14.0526 113.761 14.128L32.263 19.7081C29.5401 19.8946 26.8593 18.9599 24.8424 17.121L12.8119 6.15205Z" fill="url(#paint2_linear)"/>
</g>
<path d="M43.5 36.5L102 30L103.5 31.5L43 38.5L43.5 36.5Z" fill="#D2D1D1"/>
<path d="M100.4 24.5L101.8 24.3599L99.6998 30.26L98.2998 30.41L100.4 24.5Z" fill="#C4C4C4"/>
<defs>
<filter id="filter0_d" x="0.522949" y="2" width="120.321" height="59.0635" filterUnits="userSpaceOnUse" color-interpolation-filters="sRGB">
<feFlood flood-opacity="0" result="BackgroundImageFix"/>
<feColorMatrix in="SourceAlpha" type="matrix" values="0 0 0 0 0 0 0 0 0 0 0 0 0 0 0 0 0 0 127 0"/>
<feOffset/>
<feGaussianBlur stdDeviation="1"/>
<feColorMatrix type="matrix" values="0 0 0 0 0 0 0 0 0 0 0 0 0 0 0 0 0 0 0.5 0"/>
<feBlend mode="normal" in2="BackgroundImageFix" result="effect1_dropShadow"/>
<feBlend mode="normal" in="SourceGraphic" in2="effect1_dropShadow" result="shape"/>
</filter>
<filter id="filter1_d" x="35" y="25" width="70" height="33" filterUnits="userSpaceOnUse" color-interpolation-filters="sRGB">
<feFlood flood-opacity="0" result="BackgroundImageFix"/>
<feColorMatrix in="SourceAlpha" type="matrix" values="0 0 0 0 0 0 0 0 0 0 0 0 0 0 0 0 0 0 127 0"/>
<feOffset dx="1" dy="-3"/>
<feGaussianBlur stdDeviation="2"/>
<feColorMatrix type="matrix" values="0 0 0 0 0 0 0 0 0 0 0 0 0 0 0 0 0 0 0.7 0"/>
<feBlend mode="normal" in2="BackgroundImageFix" result="effect1_dropShadow"/>
<feBlend mode="normal" in="SourceGraphic" in2="effect1_dropShadow" result="shape"/>
</filter>
<filter id="filter2_d" x="9.48389" y="1.02734" width="106.209" height="21.7041" filterUnits="userSpaceOnUse" color-interpolation-filters="sRGB">
<feFlood flood-opacity="0" result="BackgroundImageFix"/>
<feColorMatrix in="SourceAlpha" type="matrix" values="0 0 0 0 0 0 0 0 0 0 0 0 0 0 0 0 0 0 127 0"/>
<feOffset dx="-1" dy="1"/>
<feGaussianBlur stdDeviation="1"/>
<feColorMatrix type="matrix" values="0 0 0 0 0 0 0 0 0 0 0 0 0 0 0 0 0 0 1 0"/>
<feBlend mode="normal" in2="BackgroundImageFix" result="effect1_dropShadow"/>
<feBlend mode="normal" in="SourceGraphic" in2="effect1_dropShadow" result="shape"/>
</filter>
<linearGradient id="paint0_linear" x1="-13" y1="37" x2="119" y2="32" gradientUnits="userSpaceOnUse">
<stop offset="0.0966623" stop-color="#2E2D2D"/>
<stop offset="0.211794" stop-color="#E5E5E5"/>
<stop offset="1" stop-color="#828282"/>
</linearGradient>
<linearGradient id="paint1_linear" x1="70.5" y1="31.5" x2="72.5" y2="57" gradientUnits="userSpaceOnUse">
<stop stop-color="#D9D8D8"/>
<stop offset="1" stop-color="#4F4F4F"/>
</linearGradient>
<linearGradient id="paint2_linear" x1="37.5" y1="50" x2="103.5" y2="-25.5" gradientUnits="userSpaceOnUse">
<stop offset="0.0650355" stop-color="white"/>
<stop offset="1" stop-color="#828282"/>
</linearGradient>
</defs>
</svg>
