<svg width="124" height="124" viewBox="0 0 124 124" fill="none" xmlns="http://www.w3.org/2000/svg">
<path d="M53.7622 54.7042L60.2582 47.705C68.7632 45.2044 92.1893 66.3648 95 70.5L88 69L90 76.0001C85.3734 70.0791 61.2671 51.7037 53.7622 54.7042Z" fill="#6F6E6E"/>
<path d="M2.99544 99.9999L52.9954 53.9999L97.3426 5.71079C97.7551 5.26165 98.3543 5.02263 98.9614 5.07961C111.903 6.29432 117.694 12.8985 118.906 24.0334C118.972 24.6404 118.739 25.2407 118.294 25.6586L69.9954 70.9999L23.9954 120C13.0007 117 5 111 2.99544 99.9999Z" fill="url(#paint0_linear)"/>
<path d="M55.2167 51.4813L61.7005 44.4997C76 45.5 81.5 54 83 59L76 65.5C73 57 67.5 50.5 55.2167 51.4813Z" fill="#828282"/>
<path d="M59.4 47L66.4981 38.998C80.0002 43.0002 79.0002 80.0002 79.0002 85.0002L73.5002 80.0002L68.0001 88.5001C67.5022 81.0024 71.6833 46.0187 59.4 47Z" fill="#4F4F4F"/>
<defs>
<linearGradient id="paint0_linear" x1="43" y1="45" x2="75.5" y2="75.5" gradientUnits="userSpaceOnUse">
<stop offset="0.176557" stop-color="#4F4F4F"/>
<stop offset="0.545266" stop-color="#C4C4C4"/>
<stop offset="0.989218" stop-color="#4F4F4F"/>
</linearGradient>
</defs>
</svg>
