<svg width="77" height="49" viewBox="0 0 77 49" fill="none" xmlns="http://www.w3.org/2000/svg">
<path d="M22.5 35L59 28.8818L44.5002 38.3821L9.2002 44.7002L22.5 35Z" fill="url(#paint0_linear)"/>
<path d="M30.5 29.1182L67 23L71 38.3819L35.7 44.7L30.5 29.1182Z" fill="url(#paint1_linear)"/>
<path d="M22.5 3.99996L61 0L65 15L27.4998 19.55L22.5 3.99996Z" fill="url(#paint2_linear)"/>
<path d="M43.85 19.55L77 15L67 23L29 29.5L43.85 19.55Z" fill="url(#paint3_linear)"/>
<path d="M27.5 19.55L67.5 14.5L77 15L43.9 19.55H27.5Z" fill="url(#paint4_linear)"/>
<path d="M22.5 4L27.5516 19.5471H43.8988L30.6736 29.1558L35.7252 44.7029L22.5 35.0942L9.27483 44.7029L14.3264 29.1558L1.10123 19.5471H17.4484L22.5 4Z" fill="#C4C4C4"/>
<defs>
<linearGradient id="paint0_linear" x1="9" y1="31" x2="39.831" y2="68.1403" gradientUnits="userSpaceOnUse">
<stop offset="0.24092" stop-color="#4F4F4F"/>
<stop offset="0.499294" stop-color="white" stop-opacity="0"/>
</linearGradient>
<linearGradient id="paint1_linear" x1="30" y1="34" x2="71.048" y2="23.4413" gradientUnits="userSpaceOnUse">
<stop offset="0.0297365" stop-color="#4F4F4F"/>
<stop offset="0.863811" stop-color="white" stop-opacity="0"/>
</linearGradient>
<linearGradient id="paint2_linear" x1="21.9012" y1="9.41704" x2="69.2955" y2="-5.99926" gradientUnits="userSpaceOnUse">
<stop offset="0.0297365" stop-color="#4F4F4F"/>
<stop offset="0.787964" stop-color="white" stop-opacity="0"/>
</linearGradient>
<linearGradient id="paint3_linear" x1="40" y1="15" x2="76.8832" y2="40.6678" gradientUnits="userSpaceOnUse">
<stop offset="0.0539497" stop-color="#4F4F4F"/>
<stop offset="0.669714" stop-color="white" stop-opacity="0"/>
</linearGradient>
<linearGradient id="paint4_linear" x1="36" y1="10.2545" x2="72.4993" y2="10.4206" gradientUnits="userSpaceOnUse">
<stop offset="0.0297365" stop-color="#4F4F4F"/>
<stop offset="1" stop-color="white" stop-opacity="0"/>
</linearGradient>
</defs>
</svg>
