<svg width="103" height="115" viewBox="0 0 103 115" fill="none" xmlns="http://www.w3.org/2000/svg">
<path d="M30 6L94 10.5C96.8647 11.776 98.7055 13.0929 101.782 16.2532C102.235 16.7181 102.427 17.369 102.302 18.0056C94.851 55.9627 86.4738 110.04 83.5002 114.5L7.5002 99.5L6.91115 96.9769C6.838 96.6636 6.84152 96.3373 6.92142 96.0256L30 6Z" fill="url(#paint0_linear)"/>
<path d="M25.0337 5.50114L24.593 5.47136L24.5091 5.90499L6.90089 96.8808C6.63287 98.2656 7.56285 99.5978 8.95517 99.8236L80.92 111.494L81.4153 111.574L81.4938 111.078C87.6671 72.139 91.5846 51.2455 98.3896 16.6813C99.0296 13.4305 96.6743 10.3417 93.3653 10.1181L25.0337 5.50114Z" fill="url(#paint1_linear)" stroke="url(#paint2_linear)"/>
<g filter="url(#filter0_i)">
<path d="M39.274 9.68418L43.1676 10.3707C46.7795 11.0076 48.9799 14.7074 47.815 18.1852L42.4747 34.1294C41.0224 38.4653 36.8141 41.2638 32.254 40.9261L26.5003 40.5L39.274 9.68418Z" fill="#BCB5B5"/>
</g>
<g filter="url(#filter1_i)">
<path d="M18.5008 64L22.9079 64C26.2572 64 28.958 66.742 28.9072 70.0909L28.6479 87.1967C28.5653 92.6419 24.1407 97.02 18.6949 97.045L13.0023 97.0711L18.5008 64Z" fill="#4F4F4F"/>
</g>
<g filter="url(#filter2_d)">
<path d="M41 7.00006L45.4466 13.2998C46.4344 14.6994 46.7769 16.4545 46.3877 18.1228L45.006 24.0459C44.1615 27.6661 40.6345 29.9948 36.9735 29.3493L32.7471 28.6041L41 7.00006Z" fill="#2E2D2D"/>
</g>
<g filter="url(#filter3_d)">
<path d="M24.0967 11.5941C25.8089 7.18431 30.4156 4.63326 35.0743 5.4547L39.1211 6.16827C42.1204 6.69713 43.9515 9.77082 42.9788 12.6569C33.0412 42.1418 25.1087 60.7276 24.4808 90.3694C24.3866 94.8126 20.3932 98.2433 16.0225 97.4382L11.2047 96.5508C7.89581 95.9413 5.47207 93.062 5.57933 89.6991C6.47105 61.7406 14.6036 36.0438 24.0967 11.5941Z" fill="url(#paint3_linear)"/>
</g>
<path d="M22.0967 10.5941C23.8089 6.18431 28.4156 3.63326 33.0743 4.4547L37.1211 5.16827C40.1204 5.69713 41.9515 8.77082 40.9788 11.6569C31.0412 41.1418 23.1087 59.7276 22.4808 89.3694C22.3866 93.8126 18.3932 97.2433 14.0225 96.4382L9.20473 95.5508C5.89581 94.9413 3.47207 92.062 3.57933 88.6991C4.47105 60.7406 12.6036 35.0438 22.0967 10.5941Z" fill="url(#paint4_linear)"/>
<path d="M44.8174 52.036C47.0618 52.5857 49.3324 51.1683 49.8933 48.8777C50.4542 46.5872 49.0955 44.281 46.8511 43.7314C44.6067 43.1818 42.3362 44.5992 41.7753 46.8897C41.2143 49.1803 42.573 51.4864 44.8174 52.036Z" fill="#2E2D2D" stroke="url(#paint5_linear)" stroke-width="0.25"/>
<ellipse cx="45.8177" cy="47.82" rx="3.44938" ry="3.5" transform="rotate(13.7603 45.8177 47.82)" fill="#828282"/>
<ellipse cx="58.9251" cy="49.9952" rx="4.05396" ry="4.15" transform="rotate(13.7603 58.9251 49.9952)" fill="#2E2D2D"/>
<ellipse cx="58.9085" cy="49.9314" rx="3.44938" ry="3.5" transform="rotate(13.7603 58.9085 49.9314)" fill="#828282"/>
<ellipse cx="72.0247" cy="51.9952" rx="4.05396" ry="4.15" transform="rotate(13.7603 72.0247 51.9952)" fill="#2E2D2D"/>
<ellipse cx="72.0081" cy="51.9314" rx="3.44938" ry="3.5" transform="rotate(13.7603 72.0081 51.9314)" fill="#828282"/>
<ellipse cx="81.465" cy="53.5" rx="2.02894" ry="2.07701" transform="rotate(13.7603 81.465 53.5)" fill="#2E2D2D"/>
<ellipse cx="81.4564" cy="53.4681" rx="1.72636" ry="1.75169" transform="rotate(13.7603 81.4564 53.4681)" fill="#828282"/>
<ellipse cx="79.465" cy="64.5" rx="2.02894" ry="2.07701" transform="rotate(13.7603 79.465 64.5)" fill="#2E2D2D"/>
<ellipse cx="79.4564" cy="64.4681" rx="1.72636" ry="1.75169" transform="rotate(13.7603 79.4564 64.4681)" fill="#828282"/>
<ellipse cx="77.465" cy="75.5" rx="2.02894" ry="2.07701" transform="rotate(13.7603 77.465 75.5)" fill="#2E2D2D"/>
<ellipse cx="77.4564" cy="75.4681" rx="1.72636" ry="1.75169" transform="rotate(13.7603 77.4564 75.4681)" fill="#828282"/>
<ellipse cx="75.465" cy="86.5" rx="2.02894" ry="2.07701" transform="rotate(13.7603 75.465 86.5)" fill="#2E2D2D"/>
<ellipse cx="75.4564" cy="86.4681" rx="1.72636" ry="1.75169" transform="rotate(13.7603 75.4564 86.4681)" fill="#828282"/>
<ellipse cx="43.9251" cy="58.9952" rx="4.05396" ry="4.15" transform="rotate(13.7603 43.9251 58.9952)" fill="#2E2D2D"/>
<ellipse cx="43.9085" cy="58.9314" rx="3.44938" ry="3.5" transform="rotate(13.7603 43.9085 58.9314)" fill="#828282"/>
<ellipse cx="57.0159" cy="61.1066" rx="4.05396" ry="4.15" transform="rotate(13.7603 57.0159 61.1066)" fill="#2E2D2D"/>
<ellipse cx="56.9993" cy="61.0429" rx="3.44938" ry="3.5" transform="rotate(13.7603 56.9993 61.0429)" fill="#828282"/>
<ellipse cx="70.1155" cy="63.1066" rx="4.05396" ry="4.15" transform="rotate(13.7603 70.1155 63.1066)" fill="#2E2D2D"/>
<ellipse cx="70.0989" cy="63.0429" rx="3.44938" ry="3.5" transform="rotate(13.7603 70.0989 63.0429)" fill="#828282"/>
<ellipse cx="41.9251" cy="69.9952" rx="4.05396" ry="4.15" transform="rotate(13.7603 41.9251 69.9952)" fill="#2E2D2D"/>
<ellipse cx="41.9085" cy="69.9314" rx="3.44938" ry="3.5" transform="rotate(13.7603 41.9085 69.9314)" fill="#828282"/>
<ellipse cx="55.0159" cy="72.1066" rx="4.05396" ry="4.15" transform="rotate(13.7603 55.0159 72.1066)" fill="#2E2D2D"/>
<ellipse cx="54.9993" cy="72.0429" rx="3.44938" ry="3.5" transform="rotate(13.7603 54.9993 72.0429)" fill="#828282"/>
<ellipse cx="68.1155" cy="74.1066" rx="4.05396" ry="4.15" transform="rotate(13.7603 68.1155 74.1066)" fill="#2E2D2D"/>
<ellipse cx="68.0989" cy="74.0429" rx="3.44938" ry="3.5" transform="rotate(13.7603 68.0989 74.0429)" fill="#828282"/>
<ellipse cx="39.9251" cy="80.9952" rx="4.05396" ry="4.15" transform="rotate(13.7603 39.9251 80.9952)" fill="#2E2D2D"/>
<ellipse cx="39.9085" cy="80.9314" rx="3.44938" ry="3.5" transform="rotate(13.7603 39.9085 80.9314)" fill="#828282"/>
<ellipse cx="53.0159" cy="83.1066" rx="4.05396" ry="4.15" transform="rotate(13.7603 53.0159 83.1066)" fill="#2E2D2D"/>
<ellipse cx="52.9993" cy="83.0429" rx="3.44938" ry="3.5" transform="rotate(13.7603 52.9993 83.0429)" fill="#828282"/>
<ellipse cx="66.1155" cy="85.1066" rx="4.05396" ry="4.15" transform="rotate(13.7603 66.1155 85.1066)" fill="#2E2D2D"/>
<ellipse cx="66.0989" cy="85.0429" rx="3.44938" ry="3.5" transform="rotate(13.7603 66.0989 85.0429)" fill="#828282"/>
<defs>
<filter id="filter0_i" x="26.5005" y="8.42896" width="26.5774" height="39.055" filterUnits="userSpaceOnUse" color-interpolation-filters="sRGB">
<feFlood flood-opacity="0" result="BackgroundImageFix"/>
<feBlend mode="normal" in="SourceGraphic" in2="BackgroundImageFix" result="shape"/>
<feColorMatrix in="SourceAlpha" type="matrix" values="0 0 0 0 0 0 0 0 0 0 0 0 0 0 0 0 0 0 127 0" result="hardAlpha"/>
<feOffset dx="5" dy="7"/>
<feGaussianBlur stdDeviation="2"/>
<feComposite in2="hardAlpha" operator="arithmetic" k2="-1" k3="1"/>
<feColorMatrix type="matrix" values="0 0 0 0 0 0 0 0 0 0 0 0 0 0 0 0 0 0 0.7 0"/>
<feBlend mode="normal" in2="shape" result="effect1_innerShadow"/>
</filter>
<filter id="filter1_i" x="12.6797" y="63.1555" width="23.9044" height="40.3156" filterUnits="userSpaceOnUse" color-interpolation-filters="sRGB">
<feFlood flood-opacity="0" result="BackgroundImageFix"/>
<feBlend mode="normal" in="SourceGraphic" in2="BackgroundImageFix" result="shape"/>
<feColorMatrix in="SourceAlpha" type="matrix" values="0 0 0 0 0 0 0 0 0 0 0 0 0 0 0 0 0 0 127 0" result="hardAlpha"/>
<feOffset dx="5" dy="7"/>
<feGaussianBlur stdDeviation="2"/>
<feComposite in2="hardAlpha" operator="arithmetic" k2="-1" k3="1"/>
<feColorMatrix type="matrix" values="0 0 0 0 0 0 0 0 0 0 0 0 0 0 0 0 0 0 0.7 0"/>
<feBlend mode="normal" in2="shape" result="effect1_innerShadow"/>
</filter>
<filter id="filter2_d" x="30.7471" y="5.24011" width="23.3891" height="32.3821" filterUnits="userSpaceOnUse" color-interpolation-filters="sRGB">
<feFlood flood-opacity="0" result="BackgroundImageFix"/>
<feColorMatrix in="SourceAlpha" type="matrix" values="0 0 0 0 0 0 0 0 0 0 0 0 0 0 0 0 0 0 127 0"/>
<feOffset dx="2" dy="3"/>
<feGaussianBlur stdDeviation="2"/>
<feColorMatrix type="matrix" values="0 0 0 0 0 0 0 0 0 0 0 0 0 0 0 0 0 0 0.7 0"/>
<feBlend mode="normal" in2="BackgroundImageFix" result="effect1_dropShadow"/>
<feBlend mode="normal" in="SourceGraphic" in2="effect1_dropShadow" result="shape"/>
</filter>
<filter id="filter3_d" x="2.8877" y="0.654297" width="56.1406" height="106.847" filterUnits="userSpaceOnUse" color-interpolation-filters="sRGB">
<feFlood flood-opacity="0" result="BackgroundImageFix"/>
<feColorMatrix in="SourceAlpha" type="matrix" values="0 0 0 0 0 0 0 0 0 0 0 0 0 0 0 0 0 0 127 0"/>
<feOffset dx="10" dy="3"/>
<feGaussianBlur stdDeviation="2.5"/>
<feColorMatrix type="matrix" values="0 0 0 0 0 0 0 0 0 0 0 0 0 0 0 0 0 0 0.7 0"/>
<feBlend mode="normal" in2="BackgroundImageFix" result="effect1_dropShadow"/>
<feBlend mode="normal" in="SourceGraphic" in2="effect1_dropShadow" result="shape"/>
</filter>
<linearGradient id="paint0_linear" x1="102" y1="17" x2="70.4198" y2="107.892" gradientUnits="userSpaceOnUse">
<stop offset="0.142018" stop-color="#C4C4C4"/>
<stop offset="0.810923" stop-color="#2E2D2D"/>
</linearGradient>
<linearGradient id="paint1_linear" x1="53" y1="6" x2="53" y2="111" gradientUnits="userSpaceOnUse">
<stop stop-color="#2E2D2D"/>
<stop offset="0.491713" stop-color="#C4C4C4"/>
<stop offset="0.950276" stop-color="#2E2D2D"/>
</linearGradient>
<linearGradient id="paint2_linear" x1="53" y1="6" x2="53" y2="111" gradientUnits="userSpaceOnUse">
<stop stop-opacity="0"/>
<stop offset="1" stop-color="#1F1F1F" stop-opacity="0.04"/>
</linearGradient>
<linearGradient id="paint3_linear" x1="31.9995" y1="4.91254" x2="15.6835" y2="97.4452" gradientUnits="userSpaceOnUse">
<stop stop-color="#C4C4C4"/>
<stop offset="1" stop-color="#4F4F4F"/>
</linearGradient>
<linearGradient id="paint4_linear" x1="7.5" y1="22.5" x2="48" y2="32.5" gradientUnits="userSpaceOnUse">
<stop offset="0.142018" stop-color="#C4C4C4"/>
<stop offset="0.668673" stop-color="#2E2D2D"/>
</linearGradient>
<linearGradient id="paint5_linear" x1="41" y1="45.5" x2="51" y2="51.5" gradientUnits="userSpaceOnUse">
<stop stop-color="#828282"/>
<stop offset="1" stop-color="#B9B6B6"/>
</linearGradient>
</defs>
</svg>
