<svg width="92" height="51" viewBox="0 0 92 51" fill="none" xmlns="http://www.w3.org/2000/svg">
<path d="M24 6.11818L78 0V15.5L24 22.1182C36 20 33 6 24 6.11818Z" fill="url(#paint0_radial)"/>
<path d="M24 24L92 16L83 45L48 50.9999C48 35 38 24 24 24Z" fill="url(#paint1_radial)"/>
<circle cx="24" cy="14" r="8" fill="#C4C4C4"/>
<path fill-rule="evenodd" clip-rule="evenodd" d="M24 24C10.7452 24 0 34.7452 0 48V51H48V48C48 34.7452 37.2548 24 24 24ZM22.595 33.7871C22.8237 32.7376 24.3204 32.7376 24.5491 33.7871L24.7176 34.5603C24.8557 35.1937 25.5506 35.5303 26.1332 35.2461L26.8303 34.906C27.8017 34.432 28.73 35.6223 28.0336 36.449L27.607 36.9554C27.1797 37.4625 27.3555 38.2376 27.9597 38.5108L28.5547 38.7798C29.5428 39.2267 29.2125 40.7066 28.1281 40.6909L27.4248 40.6807C26.7683 40.6712 26.281 41.2861 26.4402 41.9231L26.6157 42.6251C26.8766 43.6692 25.5303 44.3322 24.8618 43.4888L24.3557 42.8503C23.9554 42.3451 23.1887 42.3451 22.7884 42.8503L22.2823 43.4888C21.6138 44.3322 20.2675 43.6692 20.5284 42.6251L20.7039 41.9231C20.8631 41.2861 20.3758 40.6712 19.7193 40.6807L19.016 40.6909C17.9316 40.7066 17.6013 39.2267 18.5894 38.7798L19.1844 38.5108C19.7886 38.2376 19.9644 37.4625 19.5371 36.9554L19.1105 36.449C18.4141 35.6223 19.3424 34.432 20.3138 34.906L21.0109 35.2461C21.5935 35.5303 22.2884 35.1937 22.4265 34.5603L22.595 33.7871ZM25.6117 38.4746C25.6117 39.6248 24.6562 40.5572 23.4776 40.5572C22.2989 40.5572 21.3435 39.6248 21.3435 38.4746C21.3435 37.3245 22.2989 36.3921 23.4776 36.3921C24.6562 36.3921 25.6117 37.3245 25.6117 38.4746Z" fill="#C4C4C4"/>
<defs>
<radialGradient id="paint0_radial" cx="0" cy="0" r="1" gradientUnits="userSpaceOnUse" gradientTransform="translate(18 22) rotate(-16.5571) scale(115.802 131.471)">
<stop offset="0.101692" stop-color="#4F4F4F"/>
<stop offset="0.555804" stop-color="white" stop-opacity="0"/>
</radialGradient>
<radialGradient id="paint1_radial" cx="0" cy="0" r="1" gradientUnits="userSpaceOnUse" gradientTransform="translate(36 52.5) rotate(-46.3748) scale(88.4138 105.491)">
<stop offset="0.170928" stop-color="#4F4F4F"/>
<stop offset="0.622777" stop-color="white" stop-opacity="0"/>
</radialGradient>
</defs>
</svg>
