<svg width="91" height="125" viewBox="0 0 91 125" fill="none" xmlns="http://www.w3.org/2000/svg">
<g filter="url(#filter0_di)">
<path d="M10 35.9777C10 29.6899 12.8994 23.6555 18.186 20.2513C37.9691 7.51229 51.8781 7.77222 71.6236 20.2487C77.0139 23.6546 80 29.7588 80 36.135V89.835C80 96.2176 77.0178 102.343 71.5812 105.687C53.018 117.105 39.1794 117.092 19.0996 105.648C13.2898 102.337 10 95.9741 10 89.287V35.9777Z" fill="url(#paint0_angular)"/>
</g>
<path d="M26.1134 2.0618C33.6134 1.63789 33.2818 3.50972 41.1134 4.17782C53.5714 5.24061 66.1134 0.792184 73.1134 5.87064C76.5712 8.3793 75.9857 11.5327 79.1134 14.3347C82.2005 17.1005 86.765 17.637 88.6133 21.1054C91.4517 26.4319 80.6133 35.0712 80.6133 35.0712C81.0038 42.5084 82.1133 43.5353 81.1133 51.153C81.1133 51.153 73.5708 50.2686 68.6134 49.884C59.4228 49.1709 54.3414 51.2736 45.1134 51.1536C37.0493 51.0487 32.6724 49.6208 24.6134 49.884C18.4866 50.084 9.11338 52 9.11338 52C9.11338 52 5.61114 43.6303 5.11337 38.0342C4.14631 27.1621 9.61337 22.7982 12.1134 11.7955C12.3818 10.614 14.9406 10.9058 16.6134 10.1027C21.1771 7.91174 22.0173 2.29331 26.1134 2.0618Z" fill="url(#paint1_linear)"/>
<g filter="url(#filter1_f)">
<path d="M13.6129 10.9485L39.1129 12.2181C39.1129 12.2181 48.7831 14.8106 55.1129 16.0269C67.3943 18.3871 87.1129 19.4126 87.1129 19.4126C87.1129 19.4126 88.7683 21.0748 89.1129 22.375C89.6941 24.5684 88.234 25.8388 87.1129 27.8767C85.3489 31.0831 80.6129 35.0712 80.6129 35.0712C80.6129 35.0712 72.1751 32.6216 71.1129 28.7231C70.1103 25.0437 77.8296 22.7711 74.1132 20.6822C72.3166 19.6723 72.4077 18.8232 70.6132 19.8358C67.6132 21.5286 60.1223 26.3139 53.6129 24.491C48.8939 23.1695 49.1379 18.6143 44.6129 16.8733C33.6129 12.6413 12.1129 13.0645 12.1129 13.0645C11.9619 11.6151 12.2743 11.1382 13.6129 10.9485Z" fill="url(#paint2_linear)"/>
</g>
<g filter="url(#filter2_f)">
<path d="M22.6133 4.17719L39.6133 7.13962C41.1133 7.56283 40.1133 8.83244 38.1133 8.83244L18.1133 9.25565L22.6133 4.17719Z" fill="#696565"/>
</g>
<g filter="url(#filter3_f)">
<path d="M43.1133 7.13991C45.1133 7.56279 45.1133 11.3716 78.1133 16.4512C78.1133 16.4512 91.4965 17.7387 89.1133 24.0689C88.1853 26.5337 85.6133 29.9938 85.6133 29.9938C85.6133 29.9938 89.1133 23.2237 85.6133 20.6833C82.1133 18.1429 53.1133 18.5673 39.6133 12.6424L14.6133 10.9485L18.1133 9.67885C18.1133 9.67885 39.1133 10.1015 41.1133 9.67914C42.6407 9.35657 41.1133 6.71703 43.1133 7.13991Z" fill="#696565"/>
</g>
<path d="M8.11328 49.4601C8.11328 49.4601 18.183 47.109 25.1133 46.9207C32.9805 46.7069 37.2436 48.0575 45.1133 48.1903C52.5549 48.3159 56.6704 47.7247 64.1133 47.7671C70.9724 47.8061 81.1133 49.4601 81.1133 49.4601V50.3063C81.1133 50.3063 70.7975 48.6827 64.1133 48.6135C56.6529 48.5362 52.573 49.5759 45.1133 49.4599C37.2167 49.337 33.0085 47.5947 25.1133 47.7671C18.374 47.9142 8.61328 50.7298 8.61328 50.7298L8.11328 49.4601Z" fill="#4F4F4F"/>
<path d="M12.1125 13.9109C12.1125 13.9109 17.7554 15.1236 21.1125 16.4501C30.7467 20.257 51.0383 30.7667 40.6125 32.5319C35.6133 33.3783 5.61247 34.2247 5.61247 34.2247C4.92374 31.0843 6.55228 26.4192 12.1125 13.9109Z" fill="url(#paint3_linear)"/>
<g filter="url(#filter4_f)">
<path d="M32.1133 3.33078C32.1133 3.33078 39.0424 4.91333 41.1133 5.64174C43.6133 6.52108 48.1133 7.39996 48.1133 7.39996V7.98604C48.1133 7.98604 43.6133 7.10693 41.1133 6.22782C39.0422 5.49954 32.1133 3.91685 32.1133 3.91685V3.33078Z" fill="#787777"/>
</g>
<path d="M39.6133 42.2656C51.3232 38.9234 50.3917 32.5129 62.1133 35.9162C65.0501 39.0906 64.9385 40.9364 62.1133 44.3803C57.5854 46.2829 53.1789 46.8585 42.6133 47.3441L29.6133 46.0745L39.6133 42.2656Z" fill="url(#paint4_linear)"/>
<rect x="20" y="56" width="12" height="3" rx="1.5" fill="#4F4F4F"/>
<rect x="60" y="56" width="12" height="3" rx="1.5" fill="#4F4F4F"/>
<circle cx="25" cy="67" r="3" fill="url(#paint5_radial)"/>
<circle cx="65" cy="67" r="3" fill="url(#paint6_radial)"/>
<g filter="url(#filter5_d)">
<path d="M60 93.1441C60 94.2708 59.3285 95.2966 58.2835 95.7177C48.274 99.7517 41.7829 99.6047 31.7291 95.6947C30.6803 95.2868 30 94.2664 30 93.141V93.141C30 91.1648 32.0064 89.8247 33.8761 90.4648C42.0807 93.2736 47.9138 93.1746 56.1067 90.427C57.9938 89.7941 60 91.1536 60 93.1441V93.1441Z" fill="#4F4F4F"/>
</g>
<g filter="url(#filter6_f)">
<path d="M58.0068 93.1681C58.0068 93.3658 57.8812 93.5444 57.6962 93.6142C47.5036 97.4555 42.0215 97.4569 32.3117 93.6177C32.1294 93.5456 32.0068 93.368 32.0068 93.172V93.172C32.0068 92.8418 32.3357 92.6115 32.6482 92.718C42.0567 95.9227 47.9598 95.9223 57.3692 92.7167C57.6799 92.6109 58.0068 92.8398 58.0068 93.1681V93.1681Z" fill="black"/>
</g>
<defs>
<filter id="filter0_di" x="0" y="0.793945" width="90" height="128.447" filterUnits="userSpaceOnUse" color-interpolation-filters="sRGB">
<feFlood flood-opacity="0" result="BackgroundImageFix"/>
<feColorMatrix in="SourceAlpha" type="matrix" values="0 0 0 0 0 0 0 0 0 0 0 0 0 0 0 0 0 0 127 0"/>
<feOffset/>
<feGaussianBlur stdDeviation="5"/>
<feColorMatrix type="matrix" values="0 0 0 0 0 0 0 0 0 0 0 0 0 0 0 0 0 0 0.5 0"/>
<feBlend mode="normal" in2="BackgroundImageFix" result="effect1_dropShadow"/>
<feBlend mode="normal" in="SourceGraphic" in2="effect1_dropShadow" result="shape"/>
<feColorMatrix in="SourceAlpha" type="matrix" values="0 0 0 0 0 0 0 0 0 0 0 0 0 0 0 0 0 0 127 0" result="hardAlpha"/>
<feOffset dy="20"/>
<feGaussianBlur stdDeviation="7.5"/>
<feComposite in2="hardAlpha" operator="arithmetic" k2="-1" k3="1"/>
<feColorMatrix type="matrix" values="0 0 0 0 0 0 0 0 0 0 0 0 0 0 0 0 0 0 0.25 0"/>
<feBlend mode="normal" in2="shape" result="effect2_innerShadow"/>
</filter>
<filter id="filter1_f" x="11.0781" y="9.94847" width="79.1668" height="26.1227" filterUnits="userSpaceOnUse" color-interpolation-filters="sRGB">
<feFlood flood-opacity="0" result="BackgroundImageFix"/>
<feBlend mode="normal" in="SourceGraphic" in2="BackgroundImageFix" result="shape"/>
<feGaussianBlur stdDeviation="0.5" result="effect1_foregroundBlur"/>
</filter>
<filter id="filter2_f" x="17.1133" y="3.17719" width="24.2222" height="7.07846" filterUnits="userSpaceOnUse" color-interpolation-filters="sRGB">
<feFlood flood-opacity="0" result="BackgroundImageFix"/>
<feBlend mode="normal" in="SourceGraphic" in2="BackgroundImageFix" result="shape"/>
<feGaussianBlur stdDeviation="0.5" result="effect1_foregroundBlur"/>
</filter>
<filter id="filter3_f" x="13.6133" y="6.09416" width="76.7843" height="24.8997" filterUnits="userSpaceOnUse" color-interpolation-filters="sRGB">
<feFlood flood-opacity="0" result="BackgroundImageFix"/>
<feBlend mode="normal" in="SourceGraphic" in2="BackgroundImageFix" result="shape"/>
<feGaussianBlur stdDeviation="0.5" result="effect1_foregroundBlur"/>
</filter>
<filter id="filter4_f" x="30.1133" y="1.33078" width="20" height="8.65526" filterUnits="userSpaceOnUse" color-interpolation-filters="sRGB">
<feFlood flood-opacity="0" result="BackgroundImageFix"/>
<feBlend mode="normal" in="SourceGraphic" in2="BackgroundImageFix" result="shape"/>
<feGaussianBlur stdDeviation="1" result="effect1_foregroundBlur"/>
</filter>
<filter id="filter5_d" x="29" y="89.2702" width="32" height="10.4153" filterUnits="userSpaceOnUse" color-interpolation-filters="sRGB">
<feFlood flood-opacity="0" result="BackgroundImageFix"/>
<feColorMatrix in="SourceAlpha" type="matrix" values="0 0 0 0 0 0 0 0 0 0 0 0 0 0 0 0 0 0 127 0"/>
<feOffset/>
<feGaussianBlur stdDeviation="0.5"/>
<feColorMatrix type="matrix" values="0 0 0 0 0 0 0 0 0 0 0 0 0 0 0 0 0 0 0.25 0"/>
<feBlend mode="normal" in2="BackgroundImageFix" result="effect1_dropShadow"/>
<feBlend mode="normal" in="SourceGraphic" in2="effect1_dropShadow" result="shape"/>
</filter>
<filter id="filter6_f" x="31.0068" y="91.6906" width="28" height="5.80551" filterUnits="userSpaceOnUse" color-interpolation-filters="sRGB">
<feFlood flood-opacity="0" result="BackgroundImageFix"/>
<feBlend mode="normal" in="SourceGraphic" in2="BackgroundImageFix" result="shape"/>
<feGaussianBlur stdDeviation="0.5" result="effect1_foregroundBlur"/>
</filter>
<radialGradient id="paint0_angular" cx="0" cy="0" r="1" gradientUnits="userSpaceOnUse" gradientTransform="translate(45 70.0001) rotate(-90) scale(44 40.093)">
<stop stop-color="#9A9898"/>
<stop offset="1" stop-color="#EAE8E8" stop-opacity="0.99"/>
</radialGradient>
<linearGradient id="paint1_linear" x1="70.1133" y1="2.06117" x2="52.9401" y2="53.9515" gradientUnits="userSpaceOnUse">
<stop offset="0.105428" stop-color="#C4C4C4"/>
<stop offset="0.42549" stop-color="#595959"/>
</linearGradient>
<linearGradient id="paint2_linear" x1="50.6615" y1="10.9485" x2="50.6615" y2="35.0712" gradientUnits="userSpaceOnUse">
<stop stop-color="#575454"/>
<stop offset="0.643111" stop-color="#2E2C2C"/>
</linearGradient>
<linearGradient id="paint3_linear" x1="14.1133" y1="13.9109" x2="33.8132" y2="43.3605" gradientUnits="userSpaceOnUse">
<stop stop-color="#8E8B8B"/>
<stop offset="0.612852" stop-color="#828282" stop-opacity="0"/>
</linearGradient>
<linearGradient id="paint4_linear" x1="37.4922" y1="34.9488" x2="47.1986" y2="56.6104" gradientUnits="userSpaceOnUse">
<stop stop-color="#8E8B8B"/>
<stop offset="0.612852" stop-color="#828282" stop-opacity="0"/>
</linearGradient>
<radialGradient id="paint5_radial" cx="0" cy="0" r="1" gradientUnits="userSpaceOnUse" gradientTransform="translate(25 67) rotate(90) scale(3)">
<stop stop-color="#EBE3E3"/>
<stop offset="1" stop-color="#4F4D4D"/>
</radialGradient>
<radialGradient id="paint6_radial" cx="0" cy="0" r="1" gradientUnits="userSpaceOnUse" gradientTransform="translate(65 67) rotate(90) scale(3)">
<stop stop-color="#EBE3E3"/>
<stop offset="1" stop-color="#4F4D4D"/>
</radialGradient>
</defs>
</svg>
